<svg width="100" height="55" viewBox="0 0 100 55" fill="none" xmlns="http://www.w3.org/2000/svg">
<path d="M42.8733 16.3877H18.0995L16.2896 7.63264L21.1538 10.7755L22.285 6.06121L26.2443 10.2143L30.5429 1.34692L35.0678 10.2143L39.0271 6.06121L40.3846 10.7755L45.0226 7.63264L42.8733 16.3877Z" stroke="#D4AF37"/>
<path d="M13.6561 16.3877C13.638 17.1061 13.6018 17.8334 13.5475 18.5697C13.5113 19.2881 13.448 20.0155 13.3575 20.7518H12.6516L11.5385 17.7885H5.61993V24.9273H10.0453L11.1041 22.9338H11.7828C11.8914 24.7118 11.8914 26.5257 11.7828 28.3755H11.1041L10.0453 26.3281H5.61993V33.844H11.8643L13.1946 30.6114H13.8733C14 31.3657 14.0905 32.1289 14.1448 32.9012C14.1991 33.6734 14.2082 34.4546 14.172 35.2448H0.787354V34.4636C1.42084 34.1763 2.16292 33.9608 3.0136 33.8171V17.8424C2.65161 17.7706 2.28057 17.6808 1.90048 17.573C1.52039 17.4473 1.14934 17.3126 0.787354 17.1689V16.3877H13.6561ZM17.8154 19.5306H24.0145V20.1816C23.6525 20.3163 23.2905 20.436 22.9285 20.5408C22.5665 20.6306 22.2045 20.6979 21.8425 20.7428V34.0775H27.0462L28.381 30.4632H28.9693C29.0145 30.7775 29.0521 31.1441 29.0824 31.5632C29.1276 31.9673 29.1577 32.3938 29.1729 32.8428C29.203 33.2767 29.2181 33.7033 29.2181 34.1224C29.2181 34.5415 29.2104 34.9155 29.1955 35.2448H17.8154V34.5938C18.1774 34.4293 18.5092 34.3094 18.8108 34.2346C19.1125 34.1599 19.3991 34.0999 19.6706 34.055V20.7428C19.3236 20.6829 18.9918 20.6081 18.6751 20.5183C18.3583 20.4135 18.0718 20.3013 17.8154 20.1816V19.5306ZM38.2012 19.5306H43.1785V20.1816C42.6055 20.4659 42.0324 20.653 41.4591 20.7428L37.1831 28.555V34.055C37.7713 34.1298 38.3446 34.3094 38.9025 34.5938V35.2448H33.1559V34.5938C33.6989 34.3244 34.3174 34.1448 35.0111 34.055V28.5775L30.441 20.7428C30.0941 20.6829 29.7699 20.6081 29.4681 20.5183C29.1817 20.4135 28.895 20.3013 28.6084 20.1816V19.5306H34.6039V20.1816C34.3776 20.2714 34.1213 20.3686 33.8346 20.4734C33.5482 20.5632 33.2238 20.653 32.8618 20.7428L36.5722 27.3428L40.0564 20.7428C39.7095 20.668 39.3776 20.5857 39.0609 20.4959C38.7593 20.3911 38.4726 20.2863 38.2012 20.1816V19.5306ZM47.6935 33.6959C47.8745 33.8755 48.1082 34.0326 48.3948 34.1673C48.6812 34.2869 49.1111 34.3469 49.6844 34.3469C50.167 34.3469 50.6195 34.2869 51.0419 34.1673C51.4641 34.0326 51.826 33.8456 52.1279 33.6061C52.4446 33.3517 52.6935 33.0522 52.8745 32.7081C53.0555 32.3489 53.146 31.9448 53.146 31.4959C53.146 30.8971 52.9573 30.3959 52.5803 29.9918C52.2183 29.5877 51.7582 29.2285 51.2002 28.9142C50.6573 28.5999 50.0613 28.2931 49.4129 27.9938C48.7643 27.6946 48.1609 27.3428 47.603 26.9387C47.06 26.5196 46.5998 26.0257 46.2229 25.4571C45.8609 24.8734 45.6799 24.1476 45.6799 23.2795C45.6799 22.651 45.793 22.0897 46.0193 21.5959C46.2455 21.102 46.5622 20.6829 46.9695 20.3387C47.3917 19.9945 47.8894 19.7326 48.4627 19.553C49.0358 19.3584 49.6767 19.2612 50.3858 19.2612C51.3057 19.2612 52.1428 19.336 52.8971 19.4857C53.6663 19.6203 54.2695 19.7925 54.707 20.002C54.707 20.2564 54.6844 20.5557 54.6392 20.8999C54.6088 21.2292 54.5636 21.5734 54.5034 21.9326C54.4582 22.2918 54.4052 22.6436 54.345 22.9877C54.2846 23.317 54.2242 23.6089 54.1641 23.8632H53.5758L52.6708 20.7877C52.3993 20.668 52.0523 20.5782 51.6301 20.5183C51.2229 20.4584 50.7853 20.4285 50.3179 20.4285C49.5487 20.4285 48.9301 20.6455 48.4627 21.0795C47.995 21.4986 47.7613 22.0897 47.7613 22.853C47.7613 23.4665 47.9423 23.9829 48.3043 24.402C48.6812 24.8211 49.1489 25.1951 49.707 25.5244C50.265 25.8538 50.8609 26.1755 51.4944 26.4897C52.1428 26.789 52.7462 27.1408 53.3043 27.5448C53.8622 27.9489 54.3224 28.4278 54.6844 28.9816C55.0613 29.5354 55.25 30.2237 55.25 31.0469C55.25 31.7203 55.1217 32.3339 54.8654 32.8877C54.624 33.4415 54.2695 33.9129 53.8021 34.302C53.3344 34.691 52.7613 34.9905 52.0826 35.1999C51.4039 35.4094 50.6346 35.5142 49.7749 35.5142C48.8247 35.5142 47.9724 35.402 47.2183 35.1775C46.4641 34.953 45.9288 34.7135 45.612 34.4591C45.6269 34.2048 45.6496 33.8979 45.6799 33.5387C45.7251 33.1795 45.7704 32.8129 45.8156 32.4387C45.8758 32.0497 45.9362 31.6755 45.9966 31.3163C46.0568 30.9571 46.1172 30.6502 46.1776 30.3959H46.7659L47.6935 33.6959ZM64.4385 35.2448H58.6466V34.5938C59.2349 34.3244 59.8383 34.1448 60.4566 34.055V20.7428C60.155 20.6829 59.8532 20.6081 59.5516 20.5183C59.25 20.4135 58.9482 20.3013 58.6466 20.1816V19.5306H64.4385V20.1816C64.167 20.3013 63.8729 20.4135 63.5561 20.5183C63.2394 20.6081 62.9301 20.6829 62.6285 20.7428V34.055C62.9453 34.115 63.262 34.1897 63.5788 34.2795C63.8955 34.3693 64.1821 34.4742 64.4385 34.5938V35.2448ZM71.6683 35.2448H66.6457V34.5938C67.1887 34.3543 67.7317 34.1747 68.2747 34.055L73.9987 19.2612H74.6548L80.3788 34.055C80.6806 34.115 80.9747 34.1823 81.2611 34.2571C81.5629 34.3318 81.8419 34.4441 82.0982 34.5938V35.2448H76.3064V34.5938C76.6082 34.4742 76.9172 34.3693 77.234 34.2795C77.5507 34.1897 77.86 34.115 78.1616 34.055L76.6231 29.9469H71.2159L69.7226 34.055C70.3561 34.1448 71.0048 34.3244 71.6683 34.5938V35.2448ZM71.6683 28.7795H76.2385L74.4512 24.0203L74.0213 22.0897H73.976L73.4104 24.0652L71.6683 28.7795ZM94.2389 19.5306H99.1258V20.1816C98.4923 20.6006 97.874 20.8999 97.2706 21.0795V35.5142H95.981L87.7683 23.1448L86.886 21.3938H86.8181L87.0217 23.1448V33.8081C87.6401 33.9727 88.2208 34.2346 88.7638 34.5938V35.2448H83.8769V34.5938C84.1484 34.4293 84.4351 34.2869 84.7367 34.1673C85.0534 34.0326 85.3853 33.9129 85.7321 33.8081V20.9448C85.4306 20.8251 85.1288 20.6979 84.8272 20.5632C84.5405 20.4285 84.269 20.2938 84.0127 20.1591V19.5306H87.8362L94.9629 30.1938L96.0036 32.1244H96.0941L95.981 30.1938V21.0795C95.6643 20.9448 95.355 20.8027 95.0534 20.653C94.7668 20.5033 94.4953 20.3462 94.2389 20.1816V19.5306Z" fill="#4D4E4D"/>
<path d="M26.7034 48.4009C26.7034 48.9709 26.5599 49.4576 26.2726 49.8608C25.9898 50.2599 25.5921 50.5646 25.0796 50.7751C24.567 50.9855 23.9638 51.0908 23.2701 51.0908C22.9032 51.0908 22.5564 51.0733 22.2294 51.0382C21.9024 51.003 21.6019 50.9527 21.3279 50.8869C21.054 50.8212 20.8131 50.7399 20.6055 50.6436V49.5714C20.9369 49.7075 21.3412 49.8345 21.8184 49.9531C22.2957 50.0669 22.795 50.1239 23.3165 50.1239C23.8025 50.1239 24.2133 50.0604 24.5493 49.9333C24.8851 49.8018 25.1391 49.6154 25.3115 49.3741C25.4882 49.1287 25.5767 48.8349 25.5767 48.493C25.5767 48.1641 25.5038 47.89 25.3579 47.6709C25.2122 47.4471 24.969 47.2455 24.6287 47.0657C24.293 46.8816 23.8335 46.6865 23.2502 46.4804C22.8391 46.3356 22.4768 46.1778 22.1631 46.0068C21.8494 45.8314 21.5864 45.6341 21.3743 45.415C21.1622 45.1957 21.0009 44.9413 20.8905 44.652C20.7844 44.3626 20.7314 44.0317 20.7314 43.6588C20.7314 43.1459 20.8618 42.7074 21.1225 42.3435C21.3876 41.9751 21.7521 41.6945 22.2161 41.5017C22.6846 41.3044 23.2215 41.2058 23.8267 41.2058C24.3439 41.2058 24.821 41.2541 25.2586 41.3504C25.7004 41.4469 26.1047 41.5762 26.4715 41.7385L26.1201 42.6987C25.771 42.5541 25.4 42.4333 25.0066 42.337C24.6179 42.2405 24.2156 42.1922 23.8002 42.1922C23.3848 42.1922 23.0337 42.2537 22.7464 42.3765C22.4636 42.4948 22.2471 42.6636 22.0968 42.8827C21.9466 43.1021 21.8715 43.3629 21.8715 43.6655C21.8715 44.0032 21.9422 44.2838 22.0836 44.5074C22.2294 44.731 22.4592 44.9305 22.7728 45.1059C23.0909 45.2769 23.5109 45.4565 24.0323 45.6451C24.6023 45.8512 25.0862 46.0705 25.4839 46.3029C25.8814 46.5307 26.1842 46.8113 26.3918 47.1447C26.5995 47.4736 26.7034 47.8922 26.7034 48.4009ZM41.731 41.3439L39.1394 50.9592H38.0059L36.0837 44.4876C36.0262 44.3035 35.971 44.1192 35.9181 43.9352C35.8694 43.7466 35.8231 43.569 35.779 43.4024C35.7346 43.2314 35.6971 43.0823 35.6663 42.9553C35.6396 42.8237 35.6197 42.7249 35.6066 42.6592C35.5977 42.7249 35.5801 42.8215 35.5534 42.9485C35.5314 43.0758 35.5004 43.2226 35.4606 43.3892C35.4253 43.5558 35.3812 43.7333 35.328 43.9219C35.2796 44.1105 35.2265 44.3013 35.169 44.4941L33.3 50.9592H32.1665L29.5948 41.3439H30.7679L32.3256 47.3748C32.3785 47.5766 32.4271 47.776 32.4713 47.9733C32.5199 48.1663 32.562 48.3547 32.5973 48.539C32.6371 48.7231 32.6724 48.9029 32.7034 49.0782C32.7344 49.2535 32.7629 49.4246 32.7896 49.5912C32.8115 49.4203 32.8403 49.2428 32.8758 49.0585C32.9111 48.8699 32.9486 48.6793 32.9885 48.4862C33.0326 48.2934 33.079 48.0983 33.1276 47.901C33.1805 47.7037 33.2357 47.5063 33.2932 47.309L35.0364 41.3439H36.1964L38.0127 47.355C38.0744 47.5611 38.1319 47.765 38.1848 47.9668C38.238 48.1684 38.2844 48.3657 38.3242 48.5588C38.3683 48.7471 38.4059 48.9292 38.4369 49.1045C38.4722 49.2755 38.5032 49.4379 38.5296 49.5912C38.5606 49.3763 38.5982 49.1505 38.6423 48.9139C38.6864 48.6771 38.7373 48.4292 38.7948 48.1706C38.8566 47.912 38.9228 47.6444 38.9937 47.3683L40.5511 41.3439H41.731ZM50.6937 50.9592H45.2984V41.3439H50.6937V42.3303H46.4251V45.4413H50.4484V46.4146H46.4251V49.9726H50.6937V50.9592ZM60.2728 50.9592H54.8776V41.3439H60.2728V42.3303H56.0043V45.4413H60.0276V46.4146H56.0043V49.9726H60.2728V50.9592ZM67.4328 50.9592H66.2993V42.3303H63.2502V41.3439H70.4685V42.3303H67.4328V50.9592ZM79.4378 48.4009C79.4378 48.9709 79.2941 49.4576 79.007 49.8608C78.7242 50.2599 78.3265 50.5646 77.814 50.7751C77.3013 50.9855 76.6982 51.0908 76.0043 51.0908C75.6376 51.0908 75.2907 51.0733 74.9638 51.0382C74.6369 51.003 74.3362 50.9527 74.0622 50.8869C73.7885 50.8212 73.5475 50.7399 73.3398 50.6436V49.5714C73.6713 49.7075 74.0756 49.8345 74.5527 49.9531C75.0301 50.0669 75.5294 50.1239 76.0509 50.1239C76.5369 50.1239 76.9477 50.0604 77.2837 49.9333C77.6194 49.8018 77.8735 49.6154 78.0459 49.3741C78.2226 49.1287 78.3111 48.8349 78.3111 48.493C78.3111 48.1641 78.238 47.89 78.0923 47.6709C77.9464 47.4471 77.7034 47.2455 77.3631 47.0657C77.0274 46.8816 76.5679 46.6865 75.9846 46.4804C75.5735 46.3356 75.2113 46.1778 74.8975 46.0068C74.5837 45.8314 74.3208 45.6341 74.1088 45.415C73.8966 45.1957 73.7353 44.9413 73.6249 44.652C73.5188 44.3626 73.4658 44.0317 73.4658 43.6588C73.4658 43.1459 73.5961 42.7074 73.8568 42.3435C74.1219 41.9751 74.4864 41.6945 74.9504 41.5017C75.419 41.3044 75.9559 41.2058 76.5611 41.2058C77.0783 41.2058 77.5554 41.2541 77.993 41.3504C78.4348 41.4469 78.8391 41.5762 79.2059 41.7385L78.8545 42.6987C78.5054 42.5541 78.1344 42.4333 77.7409 42.337C77.352 42.2405 76.95 42.1922 76.5346 42.1922C76.1192 42.1922 75.7681 42.2537 75.4808 42.3765C75.198 42.4948 74.9814 42.6636 74.8312 42.8827C74.681 43.1021 74.6059 43.3629 74.6059 43.6655C74.6059 44.0032 74.6765 44.2838 74.8179 44.5074C74.9638 44.731 75.1934 44.9305 75.5072 45.1059C75.8253 45.2769 76.2452 45.4565 76.7667 45.6451C77.3366 45.8512 77.8206 46.0705 78.2183 46.3029C78.6158 46.5307 78.9185 46.8113 79.1262 47.1447C79.3339 47.4736 79.4378 47.8922 79.4378 48.4009Z" fill="#4D4E4D"/>
<mask id="mask0_14_172" style="mask-type:luminance" maskUnits="userSpaceOnUse" x="20" y="41" width="60" height="11">
<path d="M79.6381 41.0817H20.3621V51.1837H79.6381V41.0817Z" fill="white"/>
<path d="M26.7034 48.4009C26.7034 48.9709 26.5599 49.4576 26.2726 49.8608C25.9898 50.2599 25.5921 50.5646 25.0796 50.7751C24.567 50.9855 23.9638 51.0908 23.2701 51.0908C22.9032 51.0908 22.5564 51.0733 22.2294 51.0382C21.9024 51.003 21.6019 50.9527 21.3279 50.8869C21.054 50.8212 20.8131 50.7399 20.6055 50.6436V49.5714C20.9369 49.7075 21.3412 49.8345 21.8184 49.9531C22.2957 50.0669 22.795 50.1239 23.3165 50.1239C23.8025 50.1239 24.2133 50.0604 24.5493 49.9333C24.8851 49.8018 25.1391 49.6154 25.3115 49.3741C25.4882 49.1287 25.5767 48.8349 25.5767 48.493C25.5767 48.1641 25.5038 47.89 25.3579 47.6709C25.2122 47.4471 24.969 47.2455 24.6287 47.0657C24.293 46.8816 23.8335 46.6865 23.2502 46.4804C22.8391 46.3356 22.4768 46.1778 22.1631 46.0068C21.8494 45.8314 21.5864 45.6341 21.3743 45.415C21.1622 45.1957 21.0009 44.9413 20.8905 44.652C20.7844 44.3626 20.7314 44.0317 20.7314 43.6588C20.7314 43.1459 20.8618 42.7074 21.1225 42.3435C21.3876 41.9751 21.7521 41.6945 22.2161 41.5017C22.6846 41.3044 23.2215 41.2058 23.8267 41.2058C24.3439 41.2058 24.821 41.2541 25.2586 41.3504C25.7004 41.4469 26.1047 41.5762 26.4715 41.7385L26.1201 42.6987C25.771 42.5541 25.4 42.4333 25.0066 42.337C24.6179 42.2405 24.2156 42.1922 23.8002 42.1922C23.3848 42.1922 23.0337 42.2537 22.7464 42.3765C22.4636 42.4948 22.2471 42.6636 22.0968 42.8827C21.9466 43.1021 21.8715 43.3629 21.8715 43.6655C21.8715 44.0032 21.9422 44.2838 22.0836 44.5074C22.2294 44.731 22.4592 44.9305 22.7728 45.1059C23.0909 45.2769 23.5109 45.4565 24.0323 45.6451C24.6023 45.8512 25.0862 46.0705 25.4839 46.3029C25.8814 46.5307 26.1842 46.8113 26.3918 47.1447C26.5995 47.4736 26.7034 47.8922 26.7034 48.4009ZM41.731 41.3439L39.1394 50.9592H38.0059L36.0837 44.4876C36.0262 44.3035 35.971 44.1192 35.9181 43.9352C35.8694 43.7466 35.8231 43.569 35.779 43.4024C35.7346 43.2314 35.6971 43.0823 35.6663 42.9553C35.6396 42.8237 35.6197 42.7249 35.6066 42.6592C35.5977 42.7249 35.5801 42.8215 35.5534 42.9485C35.5314 43.0758 35.5004 43.2226 35.4606 43.3892C35.4253 43.5558 35.3812 43.7333 35.328 43.9219C35.2796 44.1105 35.2265 44.3013 35.169 44.4941L33.3 50.9592H32.1665L29.5948 41.3439H30.7679L32.3256 47.3748C32.3785 47.5766 32.4271 47.776 32.4713 47.9733C32.5199 48.1663 32.562 48.3547 32.5973 48.539C32.6371 48.7231 32.6724 48.9029 32.7034 49.0782C32.7344 49.2535 32.7629 49.4246 32.7896 49.5912C32.8115 49.4203 32.8403 49.2428 32.8758 49.0585C32.9111 48.8699 32.9486 48.6793 32.9885 48.4862C33.0326 48.2934 33.079 48.0983 33.1276 47.901C33.1805 47.7037 33.2357 47.5063 33.2932 47.309L35.0364 41.3439H36.1964L38.0127 47.355C38.0744 47.5611 38.1319 47.765 38.1848 47.9668C38.238 48.1684 38.2844 48.3657 38.3242 48.5588C38.3683 48.7471 38.4059 48.9292 38.4369 49.1045C38.4722 49.2755 38.5032 49.4379 38.5296 49.5912C38.5606 49.3763 38.5982 49.1505 38.6423 48.9139C38.6864 48.6771 38.7373 48.4292 38.7948 48.1706C38.8566 47.912 38.9228 47.6444 38.9937 47.3683L40.5511 41.3439H41.731ZM50.6937 50.9592H45.2984V41.3439H50.6937V42.3303H46.4251V45.4413H50.4484V46.4146H46.4251V49.9726H50.6937V50.9592ZM60.2728 50.9592H54.8776V41.3439H60.2728V42.3303H56.0043V45.4413H60.0276V46.4146H56.0043V49.9726H60.2728V50.9592ZM67.4328 50.9592H66.2993V42.3303H63.2502V41.3439H70.4685V42.3303H67.4328V50.9592ZM79.4378 48.4009C79.4378 48.9709 79.2941 49.4576 79.007 49.8608C78.7242 50.2599 78.3265 50.5646 77.814 50.7751C77.3013 50.9855 76.6982 51.0908 76.0043 51.0908C75.6376 51.0908 75.2907 51.0733 74.9638 51.0382C74.6369 51.003 74.3362 50.9527 74.0622 50.8869C73.7885 50.8212 73.5475 50.7399 73.3398 50.6436V49.5714C73.6713 49.7075 74.0756 49.8345 74.5527 49.9531C75.0301 50.0669 75.5294 50.1239 76.0509 50.1239C76.5369 50.1239 76.9477 50.0604 77.2837 49.9333C77.6194 49.8018 77.8735 49.6154 78.0459 49.3741C78.2226 49.1287 78.3111 48.8349 78.3111 48.493C78.3111 48.1641 78.238 47.89 78.0923 47.6709C77.9464 47.4471 77.7034 47.2455 77.3631 47.0657C77.0274 46.8816 76.5679 46.6865 75.9846 46.4804C75.5735 46.3356 75.2113 46.1778 74.8975 46.0068C74.5837 45.8314 74.3208 45.6341 74.1088 45.415C73.8966 45.1957 73.7353 44.9413 73.6249 44.652C73.5188 44.3626 73.4658 44.0317 73.4658 43.6588C73.4658 43.1459 73.5961 42.7074 73.8568 42.3435C74.1219 41.9751 74.4864 41.6945 74.9504 41.5017C75.419 41.3044 75.9559 41.2058 76.5611 41.2058C77.0783 41.2058 77.5554 41.2541 77.993 41.3504C78.4348 41.4469 78.8391 41.5762 79.2059 41.7385L78.8545 42.6987C78.5054 42.5541 78.1344 42.4333 77.7409 42.337C77.352 42.2405 76.95 42.1922 76.5346 42.1922C76.1192 42.1922 75.7681 42.2537 75.4808 42.3765C75.198 42.4948 74.9814 42.6636 74.8312 42.8827C74.681 43.1021 74.6059 43.3629 74.6059 43.6655C74.6059 44.0032 74.6765 44.2838 74.8179 44.5074C74.9638 44.731 75.1934 44.9305 75.5072 45.1059C75.8253 45.2769 76.2452 45.4565 76.7667 45.6451C77.3366 45.8512 77.8206 46.0705 78.2183 46.3029C78.6158 46.5307 78.9185 46.8113 79.1262 47.1447C79.3339 47.4736 79.4378 47.8922 79.4378 48.4009Z" fill="black"/>
</mask>
<g mask="url(#mask0_14_172)">
<path d="M20.6055 50.6436H20.5715V50.6649L20.5911 50.6741L20.6055 50.6436ZM20.6055 49.5714L20.6184 49.5404L20.5715 49.5211V49.5714H20.6055ZM21.8184 49.953L21.8102 49.9856H21.8105L21.8184 49.953ZM24.5493 49.9333L24.5613 49.9647L24.5618 49.9645L24.5493 49.9333ZM25.3579 47.6709L25.3294 47.6891L25.3296 47.6893L25.3579 47.6709ZM24.6287 47.0657L24.6124 47.0953L24.6129 47.0955L24.6287 47.0657ZM23.2502 46.4804L23.2615 46.4488V46.4485L23.2502 46.4804ZM22.1631 46.0067L22.1464 46.0361L22.1468 46.0364L22.1631 46.0067ZM20.8905 44.6519L20.8586 44.6636L20.8588 44.6638L20.8905 44.6519ZM26.4715 41.7385L26.5034 41.75L26.5142 41.7205L26.4853 41.7078L26.4715 41.7385ZM26.1201 42.6987L26.107 42.7299L26.1398 42.7433L26.152 42.7101L26.1201 42.6987ZM22.7464 42.3765L22.7595 42.4075L22.7597 42.4073L22.7464 42.3765ZM22.0836 44.5074L22.0548 44.5251L22.0551 44.5255L22.0836 44.5074ZM22.7728 45.1059L22.7563 45.135L22.7568 45.1355L22.7728 45.1059ZM25.4839 46.3028L25.4667 46.3318L25.467 46.332L25.4839 46.3028ZM26.7034 48.4009H26.6695C26.6695 48.9651 26.5274 49.4446 26.2448 49.8415L26.2726 49.8608L26.3004 49.8803C26.5923 49.4704 26.7373 48.9767 26.7373 48.4009H26.7034ZM26.2726 49.8608L26.2448 49.8415C25.9663 50.2345 25.574 50.5356 25.0665 50.7439L25.0796 50.7751L25.0925 50.8061C25.6102 50.5935 26.0133 50.2851 26.3004 49.8803L26.2726 49.8608ZM25.0796 50.7751L25.0665 50.7439C24.559 50.9522 23.9604 51.0571 23.2701 51.0571V51.0908V51.1244C23.9672 51.1244 24.5749 51.0187 25.0925 50.8061L25.0796 50.7751ZM23.2701 51.0908V51.0571C22.9043 51.0571 22.5587 51.0396 22.233 51.0045L22.2294 51.0382L22.2257 51.0717C22.5541 51.1069 22.9023 51.1244 23.2701 51.1244V51.0908ZM22.2294 51.0382L22.233 51.0045C21.9073 50.9698 21.6083 50.9195 21.3359 50.8541L21.3279 50.8869L21.32 50.9197C21.5956 50.9857 21.8975 51.0364 22.2257 51.0717L22.2294 51.0382ZM21.3279 50.8869L21.3359 50.8541C21.0637 50.7888 20.8251 50.7082 20.6199 50.613L20.6055 50.6436L20.5911 50.6741C20.8012 50.7715 21.0443 50.8535 21.32 50.9197L21.3279 50.8869ZM20.6055 50.6436H20.6394V49.5714H20.6055H20.5715V50.6436H20.6055ZM20.6055 49.5714L20.5925 49.6026C20.9259 49.7393 21.3319 49.8671 21.8102 49.9856L21.8184 49.953L21.8267 49.9203C21.3505 49.8022 20.9478 49.6756 20.6184 49.5404L20.6055 49.5714ZM21.8184 49.953L21.8105 49.9856C22.2905 50.1003 22.7925 50.1575 23.3165 50.1575V50.1239V50.0902C22.7975 50.0902 22.3009 50.0336 21.8264 49.9203L21.8184 49.953ZM23.3165 50.1239V50.1575C23.8052 50.1575 24.2206 50.0938 24.5613 49.9647L24.5493 49.9333L24.5371 49.9019C24.2063 50.0271 23.7998 50.0902 23.3165 50.0902V50.1239ZM24.5493 49.9333L24.5618 49.9645C24.9025 49.8311 25.1622 49.6412 25.3391 49.3936L25.3115 49.3741L25.2839 49.3545C25.1161 49.5894 24.8681 49.7723 24.5371 49.9019L24.5493 49.9333ZM25.3115 49.3741L25.3391 49.3936C25.5206 49.1415 25.6106 48.8409 25.6106 48.493H25.5767H25.5428C25.5428 48.8288 25.4561 49.1155 25.2839 49.3545L25.3115 49.3741ZM25.5767 48.493H25.6106C25.6106 48.1591 25.5366 47.8783 25.3862 47.6522L25.3579 47.6709L25.3296 47.6893C25.471 47.9019 25.5428 48.169 25.5428 48.493H25.5767ZM25.3579 47.6709L25.3864 47.6525C25.2364 47.4224 24.988 47.2174 24.6448 47.036L24.6287 47.0657L24.6129 47.0955C24.95 47.2735 25.1878 47.472 25.3294 47.6891L25.3579 47.6709ZM24.6287 47.0657L24.6452 47.0362C24.307 46.8508 23.8457 46.6551 23.2615 46.4488L23.2502 46.4804L23.2387 46.5121C23.8213 46.7179 24.279 46.9123 24.6124 47.0953L24.6287 47.0657ZM23.2502 46.4804L23.2615 46.4485C22.8518 46.3044 22.4913 46.1473 22.1795 45.9773L22.1631 46.0067L22.1468 46.0364C22.4624 46.2083 22.8265 46.367 23.2387 46.5121L23.2502 46.4804ZM22.1631 46.0067L22.1798 45.9775C21.8684 45.8033 21.6083 45.608 21.3988 45.3916L21.3743 45.415L21.3499 45.4383C21.5646 45.6601 21.8303 45.8595 22.1464 46.0361L22.1631 46.0067ZM21.3743 45.415L21.3988 45.3916C21.1899 45.1757 21.0311 44.9254 20.9222 44.64L20.8905 44.6519L20.8588 44.6638C20.9708 44.9575 21.1345 45.2156 21.3499 45.4383L21.3743 45.415ZM20.8905 44.6519L20.9224 44.6405C20.8179 44.3554 20.7653 44.0285 20.7653 43.6588H20.7314H20.6975C20.6975 44.0348 20.7509 44.3698 20.8586 44.6636L20.8905 44.6519ZM20.7314 43.6588H20.7653C20.7653 43.1519 20.8941 42.7204 21.1501 42.363L21.1225 42.3435L21.0949 42.324C20.8295 42.6944 20.6975 43.14 20.6975 43.6588H20.7314ZM21.1225 42.3435L21.1501 42.363C21.4112 42.0005 21.7705 41.7235 22.2292 41.5327L22.2161 41.5017L22.203 41.4707C21.7338 41.6658 21.364 41.95 21.0949 42.324L21.1225 42.3435ZM22.2161 41.5017L22.2292 41.5327C22.6928 41.3373 23.2251 41.2395 23.8267 41.2395V41.2058V41.1721C23.2176 41.1721 22.6764 41.2713 22.203 41.4707L22.2161 41.5017ZM23.8267 41.2058V41.2395C24.3416 41.2395 24.8165 41.2875 25.2511 41.3834L25.2586 41.3504L25.2658 41.3176C24.8256 41.2204 24.3459 41.1721 23.8267 41.1721V41.2058ZM25.2586 41.3504L25.2511 41.3834C25.6912 41.4794 26.0932 41.6081 26.4577 41.7693L26.4715 41.7385L26.4853 41.7078C26.1163 41.5445 25.7097 41.4143 25.2658 41.3176L25.2586 41.3504ZM26.4715 41.7385L26.4396 41.7271L26.0882 42.6872L26.1201 42.6987L26.152 42.7101L26.5034 41.75L26.4715 41.7385ZM26.1201 42.6987L26.1333 42.6677C25.7823 42.5222 25.4097 42.4012 25.0147 42.3042L25.0066 42.337L24.9984 42.3695C25.3903 42.4656 25.7597 42.5857 26.107 42.7299L26.1201 42.6987ZM25.0066 42.337L25.0147 42.3042C24.6231 42.2072 24.2183 42.1585 23.8002 42.1585V42.1922V42.2259C24.2129 42.2259 24.6122 42.2739 24.9984 42.3695L25.0066 42.337ZM23.8002 42.1922V42.1585C23.3817 42.1585 23.0256 42.2205 22.733 42.3455L22.7464 42.3765L22.7597 42.4073C23.0416 42.2869 23.388 42.2259 23.8002 42.2259V42.1922ZM22.7464 42.3765L22.7333 42.3453C22.4453 42.4659 22.2232 42.6385 22.0688 42.8639L22.0968 42.8827L22.1249 42.9018C22.2709 42.6888 22.4819 42.5238 22.7595 42.4075L22.7464 42.3765ZM22.0968 42.8827L22.0688 42.8639C21.9142 43.0895 21.8375 43.3571 21.8375 43.6655H21.8715H21.9054C21.9054 43.3688 21.979 43.1146 22.1249 42.9018L22.0968 42.8827ZM21.8715 43.6655H21.8375C21.8375 44.0076 21.9092 44.295 22.0548 44.5251L22.0836 44.5074L22.1123 44.4894C21.9751 44.2725 21.9054 43.9984 21.9054 43.6655H21.8715ZM22.0836 44.5074L22.0551 44.5255C22.2047 44.7552 22.4393 44.9579 22.7563 45.135L22.7728 45.1059L22.7896 45.0764C22.479 44.9029 22.254 44.7067 22.1121 44.489L22.0836 44.5074ZM22.7728 45.1059L22.7568 45.1355C23.0769 45.3074 23.4984 45.4879 24.0206 45.6767L24.0323 45.6451L24.0439 45.6134C23.5233 45.4253 23.1052 45.2462 22.7891 45.0762L22.7728 45.1059ZM24.0323 45.6451L24.0206 45.6767C24.5894 45.8824 25.0713 46.1008 25.4667 46.3318L25.4839 46.3028L25.5011 46.2739C25.1011 46.0402 24.6154 45.82 24.0439 45.6134L24.0323 45.6451ZM25.4839 46.3028L25.467 46.332C25.8606 46.5576 26.1588 46.8347 26.3631 47.1624L26.3918 47.1447L26.4208 47.1269C26.2097 46.7882 25.9025 46.504 25.5009 46.2737L25.4839 46.3028ZM26.3918 47.1447L26.3631 47.1624C26.5665 47.4845 26.6695 47.8965 26.6695 48.4009H26.7034H26.7373C26.7373 47.8877 26.6326 47.4623 26.4206 47.1267L26.3918 47.1447ZM41.731 41.3439L41.7638 41.3526L41.7753 41.3102H41.731V41.3439ZM39.1394 50.9592V50.9929H39.1654L39.1722 50.968L39.1394 50.9592ZM38.0059 50.9592L37.9733 50.9686L37.9805 50.9929H38.0059V50.9592ZM35.9181 43.9351L35.8851 43.9434L35.8855 43.9443L35.9181 43.9351ZM35.779 43.4024L35.7459 43.4107L35.7461 43.411L35.779 43.4024ZM35.6663 42.9552L35.6328 42.9618L35.6333 42.9631L35.6663 42.9552ZM35.6066 42.6591L35.6398 42.6526L35.5728 42.6549L35.6066 42.6591ZM35.5534 42.9485L35.5204 42.9418L35.5201 42.9429L35.5534 42.9485ZM35.4606 43.3892L35.4276 43.3815V43.3822L35.4606 43.3892ZM35.328 43.9219L35.2955 43.9129L35.2952 43.9136L35.328 43.9219ZM35.169 44.4941L35.1364 44.4847V44.4849L35.169 44.4941ZM33.3 50.9592V50.9929H33.3256L33.3326 50.9684L33.3 50.9592ZM32.1665 50.9592L32.1337 50.9677L32.1403 50.9929H32.1665V50.9592ZM29.5948 41.3439V41.3102H29.5507L29.562 41.3524L29.5948 41.3439ZM30.7679 41.3439L30.8007 41.3355L30.7943 41.3102H30.7679V41.3439ZM32.4713 47.9733L32.4382 47.9807L32.4385 47.9816L32.4713 47.9733ZM32.5973 48.539L32.564 48.5453V48.5459L32.5973 48.539ZM32.7896 49.5912L32.7561 49.5965L32.8231 49.5954L32.7896 49.5912ZM32.9885 48.4862L32.9552 48.4788V48.4795L32.9885 48.4862ZM33.1276 47.901L33.0948 47.8922L33.0946 47.8929L33.1276 47.901ZM33.2932 47.309L33.2606 47.2996V47.2998L33.2932 47.309ZM35.0364 41.3439V41.3102H35.0111L35.0038 41.3344L35.0364 41.3439ZM36.1964 41.3439L36.229 41.3342L36.2217 41.3102H36.1964V41.3439ZM38.3242 48.5587L38.2909 48.5655V48.5664L38.3242 48.5587ZM38.4369 49.1045L38.4034 49.1103L38.4036 49.1112L38.4369 49.1045ZM38.5296 49.5912L38.4961 49.597L38.5631 49.5959L38.5296 49.5912ZM38.7948 48.1706L38.7618 48.1627L38.7615 48.1634L38.7948 48.1706ZM40.5511 41.3439V41.3102H40.5249L40.5183 41.3355L40.5511 41.3439ZM41.731 41.3439L41.6982 41.3351L39.1066 50.9504L39.1394 50.9592L39.1722 50.968L41.7638 41.3526L41.731 41.3439ZM39.1394 50.9592V50.9255H38.0059V50.9592V50.9929H39.1394V50.9592ZM38.0059 50.9592L38.0385 50.9498L36.1163 44.478L36.0837 44.4876L36.0511 44.497L37.9733 50.9686L38.0059 50.9592ZM36.0837 44.4876L36.1163 44.478C36.0588 44.2939 36.0036 44.1098 35.9507 43.9259L35.9181 43.9351L35.8855 43.9443C35.9385 44.1289 35.9939 44.3132 36.0514 44.4975L36.0837 44.4876ZM35.9181 43.9351L35.9509 43.9268C35.9023 43.7383 35.8559 43.5605 35.8118 43.3939L35.779 43.4024L35.7461 43.411C35.7903 43.5775 35.8366 43.7551 35.8851 43.9434L35.9181 43.9351ZM35.779 43.4024L35.8118 43.3939C35.7676 43.2228 35.7301 43.0742 35.6991 42.9474L35.6663 42.9552L35.6333 42.9631C35.6642 43.0904 35.7018 43.2397 35.7459 43.4107L35.779 43.4024ZM35.6663 42.9552L35.6995 42.9485C35.6993 42.9483 35.6993 42.9481 35.6993 42.9478C35.6993 42.9476 35.6991 42.9474 35.6991 42.9469C35.6991 42.9467 35.6991 42.9465 35.6991 42.9463C35.6989 42.946 35.6989 42.9458 35.6989 42.9456C35.6989 42.9451 35.6986 42.9449 35.6986 42.9447C35.6986 42.9445 35.6986 42.9442 35.6986 42.944C35.6984 42.9438 35.6984 42.9433 35.6984 42.9431C35.6984 42.9429 35.6982 42.9427 35.6982 42.9424C35.6982 42.9422 35.6982 42.942 35.698 42.9418C35.698 42.9413 35.698 42.9411 35.698 42.9409C35.698 42.9406 35.6977 42.9404 35.6977 42.9402C35.6977 42.94 35.6977 42.9395 35.6975 42.9393C35.6975 42.9391 35.6975 42.9389 35.6975 42.9386C35.6975 42.9384 35.6973 42.9382 35.6973 42.938C35.6973 42.9375 35.6973 42.9373 35.6971 42.9371C35.6971 42.9368 35.6971 42.9366 35.6971 42.9364C35.6968 42.9362 35.6968 42.9359 35.6968 42.9355C35.6968 42.9353 35.6968 42.935 35.6966 42.9348C35.6966 42.9346 35.6966 42.9344 35.6966 42.9341C35.6964 42.9339 35.6964 42.9335 35.6964 42.9332C35.6964 42.933 35.6964 42.9328 35.6961 42.9326C35.6961 42.9323 35.6961 42.9321 35.6961 42.9319C35.6959 42.9314 35.6959 42.9312 35.6959 42.931C35.6959 42.9308 35.6959 42.9305 35.6957 42.9303C35.6957 42.9301 35.6957 42.9299 35.6957 42.9296C35.6955 42.9292 35.6955 42.929 35.6955 42.9288C35.6955 42.9285 35.6955 42.9283 35.6952 42.9281C35.6952 42.9279 35.6952 42.9276 35.6952 42.9272C35.695 42.927 35.695 42.9267 35.695 42.9265C35.695 42.9263 35.695 42.9261 35.6948 42.9258C35.6948 42.9256 35.6948 42.9254 35.6948 42.9249C35.6946 42.9247 35.6946 42.9245 35.6946 42.9243C35.6946 42.924 35.6946 42.9238 35.6943 42.9236C35.6943 42.9234 35.6943 42.9231 35.6943 42.9227C35.6941 42.9225 35.6941 42.9222 35.6941 42.922C35.6941 42.9218 35.6941 42.9216 35.6939 42.9213C35.6939 42.9211 35.6939 42.9209 35.6939 42.9207C35.6937 42.9202 35.6937 42.92 35.6937 42.9198C35.6937 42.9195 35.6937 42.9193 35.6934 42.9191C35.6934 42.9189 35.6934 42.9187 35.6934 42.9184C35.6932 42.9182 35.6932 42.9178 35.6932 42.9175C35.6932 42.9173 35.6932 42.9171 35.693 42.9169C35.693 42.9166 35.693 42.9164 35.693 42.9162C35.6928 42.916 35.6928 42.9157 35.6928 42.9153C35.6928 42.9151 35.6928 42.9148 35.6925 42.9146C35.6925 42.9144 35.6925 42.9142 35.6925 42.9139C35.6925 42.9137 35.6923 42.9135 35.6923 42.9133C35.6923 42.913 35.6923 42.9126 35.6921 42.9124C35.6921 42.9121 35.6921 42.9119 35.6921 42.9117C35.6921 42.9115 35.6918 42.9112 35.6918 42.911C35.6918 42.9108 35.6919 42.9106 35.6916 42.9103C35.6916 42.9099 35.6916 42.9097 35.6916 42.9094C35.6916 42.9092 35.6914 42.909 35.6914 42.9088C35.6914 42.9085 35.6914 42.9083 35.6914 42.9081C35.6912 42.9079 35.6912 42.9076 35.6912 42.9074C35.6912 42.907 35.6909 42.9068 35.6909 42.9065C35.6909 42.9063 35.6909 42.9061 35.6909 42.9059C35.6907 42.9056 35.6907 42.9054 35.6907 42.9052C35.6907 42.905 35.6905 42.9047 35.6905 42.9045C35.6905 42.9041 35.6905 42.9038 35.6905 42.9036C35.6903 42.9034 35.6903 42.9032 35.6903 42.9029C35.6903 42.9027 35.6903 42.9025 35.69 42.9023C35.69 42.902 35.69 42.9018 35.69 42.9016C35.6898 42.9014 35.6898 42.9009 35.6898 42.9007C35.6898 42.9005 35.6898 42.9002 35.6896 42.9C35.6896 42.8998 35.6896 42.8996 35.6896 42.8993C35.6896 42.8991 35.6894 42.8989 35.6894 42.8987C35.6894 42.8984 35.6894 42.8982 35.6891 42.898C35.6891 42.8978 35.6891 42.8973 35.6891 42.8971C35.6891 42.8969 35.6889 42.8966 35.6889 42.8964C35.6889 42.8962 35.6889 42.896 35.6889 42.8958C35.6887 42.8955 35.6887 42.8953 35.6887 42.8951C35.6887 42.8949 35.6885 42.8946 35.6885 42.8944C35.6885 42.8942 35.6885 42.8937 35.6885 42.8935C35.6882 42.8933 35.6882 42.8931 35.6882 42.8928C35.6882 42.8926 35.6882 42.8924 35.688 42.8922C35.688 42.8919 35.688 42.8917 35.688 42.8915C35.688 42.8913 35.6878 42.891 35.6878 42.8908C35.6878 42.8906 35.6878 42.8904 35.6876 42.8901C35.6876 42.8897 35.6876 42.8895 35.6876 42.8892C35.6876 42.889 35.6873 42.8888 35.6873 42.8886C35.6873 42.8883 35.6873 42.8881 35.6873 42.8879C35.6871 42.8877 35.6871 42.8874 35.6871 42.8872C35.6871 42.887 35.6871 42.8868 35.6869 42.8865C35.6869 42.8863 35.6869 42.8861 35.6869 42.8859C35.6866 42.8857 35.6866 42.8852 35.6866 42.885C35.6866 42.8848 35.6866 42.8845 35.6864 42.8843C35.6864 42.8841 35.6864 42.8839 35.6864 42.8836C35.6864 42.8834 35.6862 42.8832 35.6862 42.883C35.6862 42.8827 35.6862 42.8825 35.6862 42.8823C35.686 42.8821 35.686 42.8818 35.686 42.8816C35.686 42.8814 35.6857 42.8812 35.6857 42.8809C35.6857 42.8807 35.6857 42.8805 35.6857 42.88C35.6855 42.8798 35.6855 42.8796 35.6855 42.8794C35.6855 42.8791 35.6855 42.8789 35.6853 42.8787C35.6853 42.8785 35.6853 42.8782 35.6853 42.878C35.6853 42.8778 35.6851 42.8776 35.6851 42.8773C35.6851 42.8771 35.6851 42.8769 35.6851 42.8767C35.6848 42.8764 35.6848 42.8762 35.6848 42.876C35.6848 42.8758 35.6848 42.8755 35.6846 42.8753C35.6846 42.8751 35.6846 42.8749 35.6846 42.8746C35.6844 42.8744 35.6844 42.8742 35.6844 42.874C35.6844 42.8738 35.6844 42.8733 35.6842 42.8731C35.6842 42.8729 35.6842 42.8726 35.6842 42.8724C35.6842 42.8722 35.6839 42.872 35.6839 42.8717C35.6839 42.8715 35.6839 42.8713 35.6839 42.8711C35.6837 42.8708 35.6837 42.8706 35.6837 42.8704C35.6837 42.8702 35.6837 42.8699 35.6835 42.8697C35.6835 42.8695 35.6835 42.8693 35.6835 42.869C35.6835 42.8688 35.6833 42.8686 35.6833 42.8684C35.6833 42.8681 35.6833 42.8679 35.6833 42.8677C35.683 42.8675 35.683 42.8672 35.683 42.867C35.683 42.8668 35.683 42.8666 35.6828 42.8663C35.6828 42.8661 35.6828 42.8659 35.6828 42.8657C35.6826 42.8654 35.6826 42.8652 35.6826 42.865C35.6826 42.8648 35.6826 42.8645 35.6823 42.8643C35.6823 42.8641 35.6823 42.8639 35.6823 42.8637C35.6823 42.8634 35.6821 42.8632 35.6821 42.863C35.6821 42.8625 35.6821 42.8623 35.6821 42.8621C35.6819 42.8619 35.6819 42.8616 35.6819 42.8614C35.6819 42.8612 35.6819 42.861 35.6817 42.8607C35.6817 42.8605 35.6817 42.8603 35.6817 42.8601C35.6817 42.8598 35.6814 42.8596 35.6814 42.8594C35.6814 42.8592 35.6814 42.8589 35.6814 42.8587C35.6812 42.8585 35.6812 42.8583 35.6812 42.858C35.6812 42.8578 35.6812 42.8576 35.681 42.8574C35.681 42.8571 35.681 42.8569 35.681 42.8567C35.681 42.8565 35.6808 42.8562 35.6808 42.856C35.6808 42.8558 35.6808 42.8556 35.6808 42.8553C35.6805 42.8551 35.6805 42.8549 35.6805 42.8547C35.6805 42.8544 35.6805 42.8542 35.6803 42.854C35.6803 42.8538 35.6803 42.8535 35.6803 42.8533C35.6803 42.8531 35.6801 42.8529 35.6801 42.8527C35.6801 42.8524 35.6801 42.8522 35.6801 42.852C35.6799 42.8518 35.6799 42.8515 35.6799 42.8513C35.6799 42.8511 35.6799 42.8509 35.6796 42.8506C35.6796 42.8504 35.6796 42.8502 35.6796 42.85C35.6796 42.8497 35.6794 42.8495 35.6794 42.8493C35.6794 42.8491 35.6794 42.8488 35.6794 42.8486C35.6792 42.8484 35.6792 42.8482 35.6792 42.8479C35.6792 42.8479 35.6792 42.8477 35.679 42.8475C35.679 42.8473 35.679 42.847 35.679 42.8468C35.679 42.8466 35.6787 42.8464 35.6787 42.8461C35.6787 42.8459 35.6787 42.8457 35.6787 42.8455C35.6785 42.8452 35.6785 42.845 35.6785 42.8448C35.6785 42.8446 35.6785 42.8443 35.6785 42.8441C35.6783 42.8439 35.6783 42.8437 35.6783 42.8434C35.6783 42.8432 35.6783 42.843 35.6781 42.8428C35.6781 42.8425 35.6781 42.8423 35.6781 42.8421C35.6781 42.8419 35.6778 42.8417 35.6778 42.8414C35.6778 42.8412 35.6778 42.841 35.6778 42.8408C35.6776 42.8405 35.6776 42.8403 35.6776 42.8401C35.6776 42.8399 35.6776 42.8396 35.6774 42.8394C35.6774 42.8392 35.6774 42.839 35.6774 42.8387C35.6774 42.8385 35.6771 42.8383 35.6771 42.8381C35.6771 42.8378 35.6771 42.8376 35.6771 42.8374C35.6769 42.8374 35.6769 42.8372 35.6769 42.8369C35.6769 42.8367 35.6769 42.8365 35.6767 42.8363C35.6767 42.836 35.6767 42.8358 35.6767 42.8356C35.6767 42.8354 35.6767 42.8351 35.6765 42.8349C35.6765 42.8347 35.6765 42.8345 35.6765 42.8342C35.6765 42.834 35.6762 42.8338 35.6762 42.8336C35.6762 42.8333 35.6762 42.8331 35.6762 42.8329C35.676 42.8327 35.676 42.8324 35.676 42.8322C35.676 42.832 35.676 42.8318 35.6758 42.8315C35.6758 42.8313 35.6758 42.8313 35.6758 42.8311C35.6758 42.8309 35.6756 42.8306 35.6756 42.8304C35.6756 42.8302 35.6756 42.83 35.6756 42.8298C35.6756 42.8295 35.6753 42.8293 35.6753 42.8291C35.6753 42.8289 35.6753 42.8286 35.6753 42.8284C35.6751 42.8282 35.6751 42.828 35.6751 42.8277C35.6751 42.8275 35.6751 42.8273 35.6749 42.8271C35.6749 42.8268 35.6749 42.8266 35.6749 42.8266C35.6749 42.8264 35.6747 42.8262 35.6747 42.8259C35.6747 42.8257 35.6747 42.8255 35.6747 42.8253C35.6747 42.825 35.6744 42.8248 35.6744 42.8246C35.6744 42.8244 35.6744 42.8241 35.6744 42.8239C35.6742 42.8237 35.6742 42.8235 35.6742 42.8232C35.6742 42.823 35.6742 42.8228 35.674 42.8226C35.674 42.8226 35.674 42.8223 35.674 42.8221C35.674 42.8219 35.674 42.8217 35.6737 42.8214C35.6737 42.8212 35.6737 42.821 35.6737 42.8208C35.6737 42.8205 35.6735 42.8203 35.6735 42.8201C35.6735 42.8199 35.6735 42.8196 35.6735 42.8194C35.6733 42.8192 35.6733 42.819 35.6733 42.819C35.6733 42.8188 35.6733 42.8185 35.6733 42.8183C35.6731 42.8181 35.6731 42.8179 35.6731 42.8176C35.6731 42.8174 35.6731 42.8172 35.6728 42.817C35.6728 42.8167 35.6728 42.8165 35.6728 42.8163C35.6728 42.8161 35.6726 42.8158 35.6726 42.8156C35.6726 42.8156 35.6726 42.8154 35.6726 42.8152C35.6726 42.8149 35.6724 42.8147 35.6724 42.8145C35.6724 42.8143 35.6724 42.814 35.6724 42.8138C35.6722 42.8136 35.6722 42.8134 35.6722 42.8131C35.6722 42.8129 35.6722 42.8127 35.6719 42.8127C35.6719 42.8125 35.6719 42.8122 35.6719 42.812C35.6719 42.8118 35.6719 42.8116 35.6717 42.8113C35.6717 42.8111 35.6717 42.8109 35.6717 42.8107C35.6717 42.8104 35.6715 42.8102 35.6715 42.81C35.6715 42.81 35.6715 42.8098 35.6715 42.8095C35.6715 42.8093 35.6713 42.8091 35.6713 42.8089C35.6713 42.8086 35.6713 42.8084 35.6713 42.8082C35.671 42.808 35.671 42.8078 35.671 42.8075C35.671 42.8075 35.671 42.8073 35.6708 42.8071C35.6708 42.8069 35.6708 42.8066 35.6708 42.8064C35.6708 42.8062 35.6708 42.806 35.6706 42.8057C35.6706 42.8055 35.6706 42.8053 35.6706 42.8051C35.6706 42.8051 35.6704 42.8048 35.6704 42.8046C35.6704 42.8044 35.6704 42.8042 35.6704 42.8039C35.6704 42.8037 35.6701 42.8035 35.6701 42.8033C35.6701 42.803 35.6701 42.8028 35.6701 42.8028C35.6699 42.8026 35.6699 42.8024 35.6699 42.8021C35.6699 42.8019 35.6699 42.8017 35.6699 42.8015C35.6697 42.8012 35.6697 42.801 35.6697 42.8008C35.6697 42.8006 35.6697 42.8006 35.6695 42.8003C35.6695 42.8001 35.6695 42.7999 35.6695 42.7997C35.6695 42.7994 35.6695 42.7992 35.6692 42.799C35.6692 42.7988 35.6692 42.7985 35.6692 42.7985C35.6692 42.7983 35.6692 42.7981 35.669 42.7979C35.669 42.7977 35.669 42.7974 35.669 42.7972C35.669 42.797 35.6688 42.7968 35.6688 42.7965C35.6688 42.7965 35.6688 42.7963 35.6688 42.7961C35.6688 42.7959 35.6685 42.7956 35.6685 42.7954C35.6685 42.7952 35.6685 42.795 35.6685 42.7947C35.6683 42.7945 35.6683 42.7945 35.6683 42.7943C35.6683 42.7941 35.6683 42.7938 35.6683 42.7936C35.6681 42.7934 35.6681 42.7932 35.6681 42.7929C35.6681 42.7927 35.6681 42.7927 35.6679 42.7925C35.6679 42.7923 35.6679 42.792 35.6679 42.7918C35.6679 42.7916 35.6679 42.7914 35.6676 42.7911C35.6676 42.7909 35.6676 42.7909 35.6676 42.7907C35.6676 42.7905 35.6676 42.7902 35.6674 42.79C35.6674 42.7898 35.6674 42.7896 35.6674 42.7893C35.6674 42.7891 35.6672 42.7891 35.6672 42.7889C35.6672 42.7887 35.6672 42.7884 35.6672 42.7882C35.6672 42.788 35.667 42.7878 35.667 42.7875C35.667 42.7875 35.667 42.7873 35.667 42.7871C35.667 42.7869 35.6667 42.7866 35.6667 42.7864C35.6667 42.7862 35.6667 42.786 35.6667 42.786C35.6665 42.7858 35.6665 42.7855 35.6665 42.7853C35.6665 42.7851 35.6665 42.7849 35.6665 42.7846C35.6663 42.7844 35.6663 42.7842 35.6663 42.7842C35.6663 42.784 35.6663 42.7837 35.6663 42.7835C35.6661 42.7833 35.6661 42.7831 35.6661 42.7828C35.6661 42.7828 35.6661 42.7826 35.6661 42.7824C35.6658 42.7822 35.6658 42.7819 35.6658 42.7817C35.6658 42.7815 35.6658 42.7813 35.6656 42.7813C35.6656 42.781 35.6656 42.7808 35.6656 42.7806C35.6656 42.7804 35.6656 42.7801 35.6654 42.7799C35.6654 42.7797 35.6654 42.7797 35.6654 42.7795C35.6654 42.7792 35.6654 42.779 35.6652 42.7788C35.6652 42.7786 35.6652 42.7783 35.6652 42.7783C35.6652 42.7781 35.6652 42.7779 35.6649 42.7777C35.6649 42.7774 35.6649 42.7772 35.6649 42.777C35.6649 42.777 35.6647 42.7768 35.6647 42.7765C35.6647 42.7763 35.6647 42.7761 35.6647 42.7759C35.6647 42.7756 35.6645 42.7756 35.6645 42.7754C35.6645 42.7752 35.6645 42.775 35.6645 42.7748C35.6645 42.7745 35.6642 42.7743 35.6642 42.7743C35.6642 42.7741 35.6642 42.7739 35.6642 42.7736C35.6642 42.7734 35.664 42.7732 35.664 42.773C35.664 42.773 35.664 42.7727 35.664 42.7725C35.664 42.7723 35.6638 42.7721 35.6638 42.7718C35.6638 42.7716 35.6638 42.7716 35.6638 42.7714C35.6638 42.7712 35.6636 42.7709 35.6636 42.7707C35.6636 42.7705 35.6636 42.7705 35.6636 42.7703C35.6636 42.77 35.6633 42.7698 35.6633 42.7696C35.6633 42.7694 35.6633 42.7691 35.6633 42.7691C35.6633 42.7689 35.6631 42.7687 35.6631 42.7685C35.6631 42.7682 35.6631 42.768 35.6631 42.768C35.6629 42.7678 35.6629 42.7676 35.6629 42.7673C35.6629 42.7671 35.6629 42.7669 35.6629 42.7667C35.6627 42.7667 35.6627 42.7664 35.6627 42.7662C35.6627 42.766 35.6627 42.7658 35.6627 42.7655C35.6624 42.7655 35.6624 42.7653 35.6624 42.7651C35.6624 42.7649 35.6624 42.7647 35.6624 42.7644C35.6622 42.7644 35.6622 42.7642 35.6622 42.764C35.6622 42.7638 35.6622 42.7635 35.6622 42.7633C35.662 42.7633 35.662 42.7631 35.662 42.7629C35.662 42.7626 35.662 42.7624 35.662 42.7622C35.6618 42.7622 35.6618 42.762 35.6618 42.7617C35.6618 42.7615 35.6618 42.7613 35.6618 42.7611C35.6615 42.7611 35.6615 42.7608 35.6615 42.7606C35.6615 42.7604 35.6615 42.7602 35.6615 42.7599C35.6613 42.7599 35.6613 42.7597 35.6613 42.7595C35.6613 42.7593 35.6613 42.759 35.6613 42.759C35.6611 42.7588 35.6611 42.7586 35.6611 42.7584C35.6611 42.7581 35.6611 42.7579 35.6611 42.7579C35.6611 42.7577 35.6609 42.7575 35.6609 42.7572C35.6609 42.757 35.6609 42.7568 35.6609 42.7568C35.6609 42.7566 35.6606 42.7563 35.6606 42.7561C35.6606 42.7559 35.6606 42.7559 35.6606 42.7557C35.6606 42.7554 35.6604 42.7552 35.6604 42.755C35.6604 42.7548 35.6604 42.7548 35.6604 42.7545C35.6604 42.7543 35.6602 42.7541 35.6602 42.7539C35.6602 42.7539 35.6602 42.7537 35.6602 42.7534C35.6602 42.7532 35.66 42.753 35.66 42.7528C35.66 42.7528 35.66 42.7525 35.66 42.7523C35.66 42.7521 35.6597 42.7519 35.6597 42.7519C35.6597 42.7516 35.6597 42.7514 35.6597 42.7512C35.6597 42.751 35.6595 42.751 35.6595 42.7507C35.6595 42.7505 35.6595 42.7503 35.6595 42.7501C35.6595 42.7501 35.6595 42.7498 35.6593 42.7496C35.6593 42.7494 35.6593 42.7492 35.6593 42.7492C35.6593 42.7489 35.6593 42.7487 35.659 42.7485C35.659 42.7483 35.659 42.748 35.659 42.748C35.659 42.7478 35.659 42.7476 35.6588 42.7474C35.6588 42.7471 35.6588 42.7471 35.6588 42.7469C35.6588 42.7467 35.6588 42.7465 35.6586 42.7462C35.6586 42.7462 35.6586 42.746 35.6586 42.7458C35.6586 42.7456 35.6586 42.7453 35.6584 42.7453C35.6584 42.7451 35.6584 42.7449 35.6584 42.7447C35.6584 42.7447 35.6584 42.7444 35.6584 42.7442C35.6581 42.744 35.6581 42.7438 35.6581 42.7438C35.6581 42.7435 35.6581 42.7433 35.6581 42.7431C35.6579 42.7429 35.6579 42.7429 35.6579 42.7427C35.6579 42.7424 35.6579 42.7422 35.6579 42.742C35.6577 42.742 35.6577 42.7418 35.6577 42.7415C35.6577 42.7413 35.6577 42.7411 35.6577 42.7411C35.6577 42.7409 35.6575 42.7406 35.6575 42.7404C35.6575 42.7404 35.6575 42.7402 35.6575 42.74C35.6575 42.7397 35.6572 42.7395 35.6572 42.7395C35.6572 42.7393 35.6572 42.7391 35.6572 42.7388C35.6572 42.7386 35.657 42.7386 35.657 42.7384C35.657 42.7382 35.657 42.7379 35.657 42.7379C35.657 42.7377 35.657 42.7375 35.6568 42.7373C35.6568 42.737 35.6568 42.737 35.6568 42.7368C35.6568 42.7366 35.6568 42.7364 35.6566 42.7364C35.6566 42.7361 35.6566 42.7359 35.6566 42.7357C35.6566 42.7355 35.6566 42.7355 35.6566 42.7352C35.6563 42.735 35.6563 42.7348 35.6563 42.7348C35.6563 42.7346 35.6563 42.7343 35.6563 42.7341C35.6561 42.7339 35.6561 42.7339 35.6561 42.7337C35.6561 42.7334 35.6561 42.7332 35.6561 42.7332C35.6561 42.733 35.6559 42.7328 35.6559 42.7325C35.6559 42.7325 35.6559 42.7323 35.6559 42.7321C35.6559 42.7319 35.6557 42.7317 35.6557 42.7317C35.6557 42.7314 35.6557 42.7312 35.6557 42.731C35.6557 42.731 35.6557 42.7308 35.6554 42.7305C35.6554 42.7303 35.6554 42.7303 35.6554 42.7301C35.6554 42.7299 35.6554 42.7296 35.6552 42.7294C35.6552 42.7294 35.6552 42.7292 35.6552 42.729C35.6552 42.7287 35.6552 42.7287 35.6552 42.7285C35.655 42.7283 35.655 42.7281 35.655 42.7281C35.655 42.7278 35.655 42.7276 35.655 42.7274C35.6547 42.7274 35.6547 42.7272 35.6547 42.7269C35.6547 42.7267 35.6547 42.7267 35.6547 42.7265C35.6547 42.7263 35.6545 42.726 35.6545 42.726C35.6545 42.7258 35.6545 42.7256 35.6545 42.7254C35.6545 42.7254 35.6545 42.7251 35.6543 42.7249C35.6543 42.7247 35.6543 42.7247 35.6543 42.7245C35.6543 42.7242 35.6543 42.724 35.6541 42.7238C35.6541 42.7238 35.6541 42.7236 35.6541 42.7233C35.6541 42.7231 35.6541 42.7231 35.6541 42.7229C35.6538 42.7227 35.6538 42.7227 35.6538 42.7224C35.6538 42.7222 35.6538 42.722 35.6538 42.722C35.6538 42.7218 35.6536 42.7215 35.6536 42.7213C35.6536 42.7213 35.6536 42.7211 35.6536 42.7209C35.6536 42.7207 35.6534 42.7207 35.6534 42.7204C35.6534 42.7202 35.6534 42.72 35.6534 42.72C35.6534 42.7198 35.6534 42.7195 35.6532 42.7193C35.6532 42.7193 35.6532 42.7191 35.6532 42.7189C35.6532 42.7186 35.6532 42.7186 35.6532 42.7184C35.6529 42.7182 35.6529 42.718 35.6529 42.718C35.6529 42.7177 35.6529 42.7175 35.6529 42.7173C35.6529 42.7173 35.6527 42.7171 35.6527 42.7168C35.6527 42.7168 35.6527 42.7166 35.6527 42.7164C35.6527 42.7162 35.6525 42.7162 35.6525 42.7159C35.6525 42.7157 35.6525 42.7155 35.6525 42.7155C35.6525 42.7153 35.6525 42.715 35.6523 42.7148C35.6523 42.7148 35.6523 42.7146 35.6523 42.7144C35.6523 42.7144 35.6523 42.7141 35.6523 42.7139C35.652 42.7137 35.652 42.7137 35.652 42.7135C35.652 42.7132 35.652 42.713 35.652 42.713C35.652 42.7128 35.6518 42.7126 35.6518 42.7126C35.6518 42.7123 35.6518 42.7121 35.6518 42.7119C35.6518 42.7119 35.6518 42.7117 35.6516 42.7114C35.6516 42.7112 35.6516 42.7112 35.6516 42.711C35.6516 42.7108 35.6516 42.7108 35.6516 42.7105C35.6514 42.7103 35.6514 42.7101 35.6514 42.7101C35.6514 42.7099 35.6514 42.7096 35.6514 42.7096C35.6514 42.7094 35.6511 42.7092 35.6511 42.709C35.6511 42.709 35.6511 42.7088 35.6511 42.7085C35.6511 42.7085 35.6511 42.7083 35.6509 42.7081C35.6509 42.7079 35.6509 42.7079 35.6509 42.7076C35.6509 42.7074 35.6509 42.7074 35.6509 42.7072C35.6507 42.707 35.6507 42.7067 35.6507 42.7067C35.6507 42.7065 35.6507 42.7063 35.6507 42.7063C35.6507 42.7061 35.6504 42.7058 35.6504 42.7056C35.6504 42.7056 35.6504 42.7054 35.6504 42.7052C35.6504 42.7052 35.6504 42.7049 35.6502 42.7047C35.6502 42.7045 35.6502 42.7045 35.6502 42.7043C35.6502 42.704 35.6502 42.704 35.6502 42.7038C35.65 42.7036 35.65 42.7036 35.65 42.7034C35.65 42.7031 35.65 42.7029 35.65 42.7029C35.65 42.7027 35.6498 42.7025 35.6498 42.7025C35.6498 42.7022 35.6498 42.702 35.6498 42.702C35.6498 42.7018 35.6498 42.7016 35.6495 42.7013C35.6495 42.7013 35.6495 42.7011 35.6495 42.7009C35.6495 42.7009 35.6495 42.7007 35.6495 42.7004C35.6493 42.7004 35.6493 42.7002 35.6493 42.7C35.6493 42.6998 35.6493 42.6998 35.6493 42.6995C35.6493 42.6993 35.6491 42.6993 35.6491 42.6991C35.6491 42.6989 35.6491 42.6989 35.6491 42.6987C35.6491 42.6984 35.6491 42.6982 35.6491 42.6982C35.6489 42.698 35.6489 42.6978 35.6489 42.6978C35.6489 42.6975 35.6489 42.6973 35.6489 42.6973C35.6489 42.6971 35.6486 42.6969 35.6486 42.6969C35.6486 42.6966 35.6486 42.6964 35.6486 42.6964C35.6486 42.6962 35.6486 42.696 35.6484 42.6957C35.6484 42.6957 35.6484 42.6955 35.6484 42.6953C35.6484 42.6953 35.6484 42.6951 35.6484 42.6948C35.6482 42.6948 35.6482 42.6946 35.6482 42.6944C35.6482 42.6944 35.6482 42.6942 35.6482 42.6939C35.6482 42.6939 35.6482 42.6937 35.648 42.6935C35.648 42.6935 35.648 42.6933 35.648 42.693C35.648 42.6928 35.648 42.6928 35.648 42.6926C35.6477 42.6924 35.6477 42.6924 35.6477 42.6921C35.6477 42.6919 35.6477 42.6919 35.6477 42.6917C35.6477 42.6915 35.6477 42.6915 35.6475 42.6912C35.6475 42.691 35.6475 42.691 35.6475 42.6908C35.6475 42.6906 35.6475 42.6906 35.6475 42.6903C35.6473 42.6901 35.6473 42.6901 35.6473 42.6899C35.6473 42.6897 35.6473 42.6897 35.6473 42.6894C35.6473 42.6892 35.6471 42.6892 35.6471 42.689C35.6471 42.6888 35.6471 42.6888 35.6471 42.6885C35.6471 42.6883 35.6471 42.6883 35.6471 42.6881C35.6468 42.6879 35.6468 42.6879 35.6468 42.6877C35.6468 42.6874 35.6468 42.6874 35.6468 42.6872C35.6468 42.687 35.6466 42.687 35.6466 42.6868C35.6466 42.6865 35.6466 42.6865 35.6466 42.6863C35.6466 42.6861 35.6466 42.6861 35.6466 42.6859C35.6464 42.6856 35.6464 42.6856 35.6464 42.6854C35.6464 42.6852 35.6464 42.6852 35.6464 42.685C35.6464 42.6847 35.6464 42.6847 35.6461 42.6845C35.6461 42.6843 35.6461 42.6843 35.6461 42.6841C35.6461 42.6838 35.6461 42.6838 35.6461 42.6836C35.6459 42.6834 35.6459 42.6834 35.6459 42.6832C35.6459 42.6829 35.6459 42.6829 35.6459 42.6827C35.6459 42.6827 35.6459 42.6825 35.6457 42.6823C35.6457 42.6823 35.6457 42.682 35.6457 42.6818C35.6457 42.6818 35.6457 42.6816 35.6457 42.6814C35.6455 42.6814 35.6455 42.6811 35.6455 42.6809C35.6455 42.6809 35.6455 42.6807 35.6455 42.6805C35.6455 42.6805 35.6455 42.6802 35.6452 42.68C35.6452 42.6798 35.6452 42.6793 35.6452 42.6793C35.6452 42.6791 35.645 42.6789 35.645 42.6789C35.645 42.6787 35.645 42.6784 35.645 42.6784C35.645 42.6782 35.645 42.678 35.645 42.678C35.6448 42.6778 35.6448 42.6778 35.6448 42.6775C35.6448 42.6773 35.6448 42.6773 35.6448 42.6771C35.6448 42.6769 35.6446 42.6769 35.6446 42.6766C35.6446 42.6764 35.6446 42.6764 35.6446 42.6762C35.6446 42.676 35.6446 42.676 35.6446 42.6758C35.6443 42.6758 35.6443 42.6755 35.6443 42.6753C35.6443 42.6753 35.6443 42.6751 35.6443 42.6749C35.6443 42.6749 35.6443 42.6746 35.6441 42.6746C35.6441 42.6744 35.6441 42.6742 35.6441 42.6742C35.6441 42.674 35.6441 42.6737 35.6441 42.6737C35.6441 42.6735 35.6439 42.6733 35.6439 42.6733C35.6439 42.6731 35.6439 42.6731 35.6439 42.6728C35.6439 42.6726 35.6439 42.6726 35.6439 42.6724C35.6437 42.6722 35.6437 42.6722 35.6437 42.6719C35.6437 42.6719 35.6437 42.6717 35.6437 42.6715C35.6437 42.6715 35.6437 42.6713 35.6434 42.671V42.6708C35.6434 42.6706 35.6434 42.6704 35.6434 42.6704C35.6434 42.6701 35.6432 42.6699 35.6432 42.6699C35.6432 42.6697 35.6432 42.6697 35.6432 42.6695C35.6432 42.6692 35.6432 42.6692 35.6432 42.669C35.643 42.669 35.643 42.6688 35.643 42.6686C35.643 42.6686 35.643 42.6683 35.643 42.6681C35.643 42.6681 35.643 42.6679 35.6428 42.6679C35.6428 42.6677 35.6428 42.6674 35.6428 42.6674C35.6428 42.6672 35.6428 42.6672 35.6428 42.667C35.6428 42.6668 35.6425 42.6668 35.6425 42.6665C35.6425 42.6663 35.6425 42.6663 35.6425 42.6661C35.6425 42.6661 35.6425 42.6659 35.6425 42.6656L35.6423 42.6654C35.6423 42.6652 35.6423 42.665 35.6423 42.665C35.6423 42.6648 35.6423 42.6648 35.6423 42.6645C35.6421 42.6643 35.6421 42.6643 35.6421 42.6641C35.6421 42.6641 35.6421 42.6639 35.6421 42.6636C35.6421 42.6636 35.6421 42.6634 35.6419 42.6632C35.6419 42.663 35.6419 42.6625 35.6419 42.6625C35.6419 42.6623 35.6416 42.6623 35.6416 42.6621C35.6416 42.6618 35.6416 42.6618 35.6416 42.6616C35.6416 42.6614 35.6414 42.6609 35.6414 42.6609C35.6414 42.6607 35.6414 42.6607 35.6414 42.6605C35.6414 42.6603 35.6414 42.6603 35.6414 42.66C35.6412 42.66 35.6412 42.6598 35.6412 42.6596V42.6594C35.6412 42.6591 35.6412 42.6589 35.6412 42.6589C35.6409 42.6587 35.6409 42.6587 35.6409 42.6585C35.6409 42.6582 35.6409 42.6582 35.6409 42.658C35.6409 42.658 35.6409 42.6578 35.6407 42.6578C35.6407 42.6576 35.6407 42.6573 35.6407 42.6573C35.6407 42.6571 35.6407 42.6571 35.6407 42.6569C35.6407 42.6567 35.6407 42.6567 35.6405 42.6564C35.6405 42.6562 35.6405 42.6558 35.6405 42.6558C35.6405 42.6555 35.6403 42.6555 35.6403 42.6553C35.6403 42.6551 35.6403 42.6551 35.6403 42.6549C35.6403 42.6546 35.64 42.6542 35.64 42.6542C35.64 42.654 35.64 42.654 35.64 42.6538C35.64 42.6538 35.64 42.6535 35.64 42.6533L35.6398 42.6531C35.6398 42.6529 35.6398 42.6526 35.6398 42.6526L35.6066 42.6591L35.5733 42.6659C35.5733 42.6661 35.5733 42.6665 35.5733 42.6665C35.5735 42.6668 35.5735 42.6668 35.5735 42.667C35.5735 42.6672 35.5735 42.6672 35.5735 42.6674V42.6677C35.5738 42.6679 35.5737 42.6681 35.5737 42.6681C35.5737 42.6683 35.5737 42.6683 35.5737 42.6686C35.5737 42.6686 35.5738 42.6688 35.574 42.669V42.6692C35.574 42.6695 35.574 42.6697 35.574 42.6697C35.574 42.6699 35.574 42.6699 35.5742 42.6701C35.5742 42.6701 35.5742 42.6704 35.5742 42.6706C35.5742 42.6708 35.5744 42.6713 35.5744 42.6713C35.5744 42.6715 35.5744 42.6715 35.5744 42.6717C35.5744 42.6717 35.5744 42.6719 35.5744 42.6722L35.5747 42.6724C35.5747 42.6726 35.5747 42.6728 35.5747 42.6728C35.5747 42.6731 35.5747 42.6731 35.5747 42.6733C35.5749 42.6735 35.5749 42.6735 35.5749 42.6737C35.5749 42.6737 35.5749 42.674 35.5749 42.6742V42.6744C35.5751 42.6746 35.5751 42.6749 35.5751 42.6749C35.5751 42.6751 35.5751 42.6751 35.5751 42.6753C35.5751 42.6755 35.5751 42.6755 35.5753 42.6758C35.5753 42.6758 35.5753 42.676 35.5753 42.6762V42.6764C35.5753 42.6767 35.5756 42.6769 35.5756 42.6769C35.5756 42.6771 35.5756 42.6771 35.5756 42.6773C35.5756 42.6775 35.5756 42.6775 35.5756 42.6778C35.5756 42.6778 35.5758 42.678 35.5758 42.6782V42.6784C35.5758 42.6787 35.5758 42.6789 35.5758 42.6789C35.576 42.6791 35.576 42.6791 35.576 42.6793C35.576 42.6796 35.576 42.6796 35.576 42.6798C35.576 42.68 35.576 42.68 35.5762 42.6802C35.5762 42.6802 35.5762 42.6805 35.5762 42.6807C35.5762 42.6809 35.5765 42.6814 35.5765 42.6814C35.5765 42.6816 35.5765 42.6816 35.5765 42.6818C35.5765 42.682 35.5765 42.682 35.5765 42.6823C35.5767 42.6825 35.5767 42.6825 35.5767 42.6827C35.5767 42.6827 35.5767 42.6829 35.5767 42.6832C35.5767 42.6832 35.5767 42.6834 35.5769 42.6836C35.5769 42.6838 35.5769 42.6843 35.5769 42.6843C35.5769 42.6845 35.5771 42.6847 35.5771 42.6847C35.5771 42.685 35.5771 42.685 35.5771 42.6852C35.5771 42.6854 35.5771 42.6854 35.5771 42.6856C35.5774 42.6859 35.5774 42.6859 35.5774 42.6861C35.5774 42.6861 35.5774 42.6863 35.5774 42.6865C35.5774 42.6865 35.5774 42.6868 35.5776 42.687C35.5776 42.6872 35.5776 42.6877 35.5776 42.6877C35.5776 42.6879 35.5778 42.6881 35.5778 42.6881C35.5778 42.6883 35.5778 42.6885 35.5778 42.6885C35.5778 42.6888 35.5778 42.6888 35.5778 42.689C35.578 42.6892 35.578 42.6892 35.578 42.6894C35.578 42.6897 35.578 42.6897 35.578 42.6899C35.578 42.6901 35.578 42.6901 35.5783 42.6903C35.5783 42.6903 35.5783 42.6906 35.5783 42.6908C35.5783 42.6908 35.5783 42.691 35.5783 42.6912C35.5783 42.6912 35.5785 42.6915 35.5785 42.6917V42.6919C35.5785 42.6921 35.5785 42.6924 35.5787 42.6924C35.5787 42.6926 35.5787 42.6928 35.5787 42.6928C35.5787 42.693 35.5787 42.6933 35.5787 42.6933C35.5787 42.6935 35.579 42.6937 35.579 42.6937C35.579 42.6939 35.579 42.6942 35.579 42.6942C35.579 42.6944 35.579 42.6944 35.579 42.6946C35.5792 42.6948 35.5792 42.6948 35.5792 42.6951C35.5792 42.6953 35.5792 42.6953 35.5792 42.6955C35.5792 42.6957 35.5792 42.6957 35.5794 42.696C35.5794 42.6962 35.5794 42.6962 35.5794 42.6964C35.5794 42.6966 35.5794 42.6966 35.5794 42.6969C35.5796 42.6971 35.5796 42.6971 35.5796 42.6973C35.5796 42.6975 35.5796 42.6975 35.5796 42.6978C35.5796 42.698 35.5796 42.698 35.5799 42.6982C35.5799 42.6984 35.5799 42.6984 35.5799 42.6987C35.5799 42.6987 35.5799 42.6989 35.5799 42.6991C35.5801 42.6991 35.5801 42.6993 35.5801 42.6995C35.5801 42.6995 35.5801 42.6998 35.5801 42.7C35.5801 42.7 35.5801 42.7002 35.5803 42.7004C35.5803 42.7004 35.5803 42.7007 35.5803 42.7009C35.5803 42.7009 35.5803 42.7011 35.5803 42.7013C35.5805 42.7013 35.5805 42.7016 35.5805 42.7018C35.5805 42.7018 35.5805 42.702 35.5805 42.7022C35.5805 42.7022 35.5805 42.7025 35.5808 42.7027C35.5808 42.7027 35.5808 42.7029 35.5808 42.7031C35.5808 42.7031 35.5808 42.7034 35.5808 42.7036C35.581 42.7038 35.581 42.7038 35.581 42.704C35.581 42.7043 35.581 42.7043 35.581 42.7045C35.581 42.7047 35.581 42.7047 35.5812 42.7049C35.5812 42.7052 35.5812 42.7052 35.5812 42.7054C35.5812 42.7056 35.5812 42.7056 35.5812 42.7058C35.5814 42.7061 35.5814 42.7061 35.5814 42.7063C35.5814 42.7065 35.5814 42.7065 35.5814 42.7067C35.5814 42.707 35.5817 42.707 35.5817 42.7072C35.5817 42.7074 35.5817 42.7074 35.5817 42.7076C35.5817 42.7079 35.5817 42.7081 35.5817 42.7081C35.5819 42.7083 35.5819 42.7085 35.5819 42.7085C35.5819 42.7088 35.5819 42.709 35.5819 42.709C35.5819 42.7092 35.5821 42.7094 35.5821 42.7094C35.5821 42.7097 35.5821 42.7099 35.5821 42.7099C35.5821 42.7101 35.5821 42.7103 35.5823 42.7103C35.5823 42.7105 35.5823 42.7108 35.5823 42.711C35.5823 42.711 35.5823 42.7112 35.5823 42.7114C35.5823 42.7114 35.5826 42.7117 35.5826 42.7119C35.5826 42.7119 35.5826 42.7121 35.5826 42.7123C35.5826 42.7123 35.5826 42.7126 35.5828 42.7128C35.5828 42.713 35.5828 42.713 35.5828 42.7132C35.5828 42.7135 35.5828 42.7135 35.5828 42.7137C35.583 42.7139 35.583 42.7139 35.583 42.7141C35.583 42.7144 35.583 42.7146 35.583 42.7146C35.583 42.7148 35.5833 42.715 35.5833 42.715C35.5833 42.7153 35.5833 42.7155 35.5833 42.7155C35.5833 42.7157 35.5833 42.7159 35.5835 42.7162C35.5835 42.7162 35.5835 42.7164 35.5835 42.7166C35.5835 42.7166 35.5835 42.7168 35.5835 42.7171C35.5837 42.7171 35.5837 42.7173 35.5837 42.7175C35.5837 42.7177 35.5837 42.7177 35.5837 42.718C35.5837 42.7182 35.5839 42.7182 35.5839 42.7184C35.5839 42.7186 35.5839 42.7189 35.5839 42.7189C35.5839 42.7191 35.5839 42.7193 35.5839 42.7193C35.5842 42.7195 35.5842 42.7198 35.5842 42.72C35.5842 42.72 35.5842 42.7202 35.5842 42.7204C35.5842 42.7204 35.5844 42.7207 35.5844 42.7209C35.5844 42.7211 35.5844 42.7211 35.5844 42.7213C35.5844 42.7215 35.5844 42.7215 35.5846 42.7218C35.5846 42.722 35.5846 42.7222 35.5846 42.7222C35.5846 42.7224 35.5846 42.7227 35.5848 42.7227C35.5848 42.7229 35.5848 42.7231 35.5848 42.7233C35.5848 42.7233 35.5848 42.7236 35.5848 42.7238C35.5851 42.7238 35.5851 42.724 35.5851 42.7242C35.5851 42.7245 35.5851 42.7245 35.5851 42.7247C35.5851 42.7249 35.5853 42.7251 35.5853 42.7251C35.5853 42.7254 35.5853 42.7256 35.5853 42.7256C35.5853 42.7258 35.5853 42.726 35.5855 42.7263C35.5855 42.7263 35.5855 42.7265 35.5855 42.7267C35.5855 42.7267 35.5855 42.7269 35.5855 42.7272C35.5857 42.7274 35.5857 42.7274 35.5857 42.7276C35.5857 42.7278 35.5857 42.7281 35.5857 42.7281C35.5857 42.7283 35.586 42.7285 35.586 42.7287C35.586 42.7287 35.586 42.729 35.586 42.7292C35.586 42.7292 35.586 42.7294 35.5862 42.7296C35.5862 42.7299 35.5862 42.7299 35.5862 42.7301C35.5862 42.7303 35.5862 42.7305 35.5862 42.7305C35.5864 42.7308 35.5864 42.731 35.5864 42.7312C35.5864 42.7312 35.5864 42.7314 35.5864 42.7317C35.5866 42.7317 35.5866 42.7319 35.5866 42.7321C35.5866 42.7323 35.5866 42.7323 35.5866 42.7325C35.5866 42.7328 35.5869 42.733 35.5869 42.733C35.5869 42.7332 35.5869 42.7334 35.5869 42.7337C35.5869 42.7337 35.5869 42.7339 35.5871 42.7341C35.5871 42.7343 35.5871 42.7343 35.5871 42.7346C35.5871 42.7348 35.5871 42.735 35.5871 42.735C35.5873 42.7352 35.5873 42.7355 35.5873 42.7357C35.5873 42.7357 35.5873 42.7359 35.5873 42.7361C35.5876 42.7364 35.5876 42.7364 35.5876 42.7366C35.5876 42.7368 35.5876 42.737 35.5876 42.737C35.5876 42.7373 35.5878 42.7375 35.5878 42.7377C35.5878 42.7377 35.5878 42.7379 35.5878 42.7382C35.5878 42.7384 35.5878 42.7384 35.588 42.7386C35.588 42.7388 35.588 42.7391 35.588 42.7391C35.588 42.7393 35.588 42.7395 35.5882 42.7397C35.5882 42.7397 35.5882 42.74 35.5882 42.7402C35.5882 42.7404 35.5882 42.7404 35.5882 42.7406C35.5885 42.7409 35.5885 42.7411 35.5885 42.7411C35.5885 42.7413 35.5885 42.7415 35.5885 42.7418C35.5887 42.742 35.5887 42.742 35.5887 42.7422C35.5887 42.7424 35.5887 42.7427 35.5887 42.7427C35.5887 42.7429 35.5889 42.7431 35.5889 42.7433C35.5889 42.7433 35.5889 42.7435 35.5889 42.7438C35.5889 42.744 35.5891 42.744 35.5891 42.7442C35.5891 42.7444 35.5891 42.7447 35.5891 42.7449C35.5891 42.7449 35.5891 42.7451 35.5894 42.7453C35.5894 42.7456 35.5894 42.7456 35.5894 42.7458C35.5894 42.746 35.5894 42.7462 35.5896 42.7462C35.5896 42.7465 35.5896 42.7467 35.5896 42.7469C35.5896 42.7471 35.5896 42.7471 35.5896 42.7474C35.5898 42.7476 35.5898 42.7478 35.5898 42.7478C35.5898 42.748 35.5898 42.7483 35.5898 42.7485C35.59 42.7485 35.59 42.7487 35.59 42.7489C35.59 42.7492 35.59 42.7494 35.59 42.7494C35.59 42.7496 35.5903 42.7498 35.5903 42.7501C35.5903 42.7501 35.5903 42.7503 35.5903 42.7505C35.5903 42.7507 35.5905 42.751 35.5905 42.751C35.5905 42.7512 35.5905 42.7514 35.5905 42.7516C35.5905 42.7519 35.5905 42.7519 35.5907 42.7521C35.5907 42.7523 35.5907 42.7525 35.5907 42.7525C35.5907 42.7528 35.5907 42.753 35.5909 42.7532C35.5909 42.7534 35.5909 42.7534 35.5909 42.7536C35.5909 42.7539 35.5909 42.7541 35.5912 42.7543C35.5912 42.7543 35.5912 42.7545 35.5912 42.7548C35.5912 42.755 35.5912 42.755 35.5912 42.7552C35.5914 42.7554 35.5914 42.7557 35.5914 42.7559C35.5914 42.7559 35.5914 42.7561 35.5914 42.7563C35.5916 42.7566 35.5916 42.7568 35.5916 42.7568C35.5916 42.757 35.5916 42.7572 35.5916 42.7575C35.5919 42.7577 35.5918 42.7577 35.5918 42.7579C35.5918 42.7581 35.5918 42.7584 35.5918 42.7586C35.5918 42.7586 35.5921 42.7588 35.5921 42.759C35.5921 42.7593 35.5921 42.7595 35.5921 42.7595C35.5921 42.7597 35.5923 42.7599 35.5923 42.7602C35.5923 42.7604 35.5923 42.7604 35.5923 42.7606C35.5923 42.7608 35.5925 42.7611 35.5925 42.7613C35.5925 42.7613 35.5925 42.7615 35.5925 42.7617C35.5925 42.762 35.5928 42.7622 35.5928 42.7622C35.5928 42.7624 35.5928 42.7626 35.5928 42.7629C35.5928 42.7631 35.5928 42.7631 35.593 42.7633C35.593 42.7635 35.593 42.7638 35.593 42.764C35.593 42.764 35.593 42.7642 35.5932 42.7644C35.5932 42.7647 35.5932 42.7649 35.5932 42.7649C35.5932 42.7651 35.5932 42.7653 35.5934 42.7655C35.5934 42.7658 35.5934 42.766 35.5934 42.766C35.5934 42.7662 35.5934 42.7664 35.5937 42.7667C35.5937 42.7669 35.5937 42.7669 35.5937 42.7671C35.5937 42.7673 35.5937 42.7676 35.5939 42.7678C35.5939 42.7678 35.5939 42.768 35.5939 42.7682C35.5939 42.7685 35.5939 42.7687 35.5941 42.7689C35.5941 42.7689 35.5941 42.7691 35.5941 42.7694C35.5941 42.7696 35.5941 42.7698 35.5943 42.7698C35.5943 42.77 35.5943 42.7703 35.5943 42.7705C35.5943 42.7707 35.5943 42.7709 35.5943 42.7709C35.5946 42.7712 35.5946 42.7714 35.5946 42.7716C35.5946 42.7718 35.5946 42.7721 35.5946 42.7721C35.5948 42.7723 35.5948 42.7725 35.5948 42.7727C35.5948 42.773 35.5948 42.773 35.5948 42.7732C35.595 42.7734 35.595 42.7736 35.595 42.7739C35.595 42.7741 35.595 42.7741 35.595 42.7743C35.5952 42.7745 35.5952 42.7748 35.5952 42.775C35.5952 42.7752 35.5952 42.7752 35.5952 42.7754C35.5955 42.7756 35.5955 42.7759 35.5955 42.7761C35.5955 42.7763 35.5955 42.7763 35.5955 42.7765C35.5957 42.7768 35.5957 42.777 35.5957 42.7772C35.5957 42.7774 35.5957 42.7774 35.5957 42.7777C35.5959 42.7779 35.5959 42.7781 35.5959 42.7783C35.5959 42.7786 35.5959 42.7786 35.5959 42.7788C35.5961 42.779 35.5962 42.7792 35.5962 42.7795C35.5962 42.7797 35.5962 42.7797 35.5962 42.7799C35.5964 42.7801 35.5964 42.7804 35.5964 42.7806C35.5964 42.7808 35.5964 42.781 35.5964 42.781C35.5966 42.7813 35.5966 42.7815 35.5966 42.7817C35.5966 42.7819 35.5966 42.7822 35.5968 42.7822C35.5968 42.7824 35.5968 42.7826 35.5968 42.7828C35.5968 42.7831 35.5968 42.7833 35.5971 42.7833C35.5971 42.7835 35.5971 42.7837 35.5971 42.784C35.5971 42.7842 35.5971 42.7844 35.5973 42.7846C35.5973 42.7846 35.5973 42.7849 35.5973 42.7851C35.5973 42.7853 35.5973 42.7855 35.5975 42.7858C35.5975 42.786 35.5975 42.786 35.5975 42.7862C35.5975 42.7864 35.5975 42.7866 35.5977 42.7869C35.5977 42.7871 35.5977 42.7873 35.5977 42.7873C35.5977 42.7875 35.5977 42.7878 35.598 42.788C35.598 42.7882 35.598 42.7884 35.598 42.7887C35.598 42.7887 35.598 42.7889 35.5982 42.7891C35.5982 42.7893 35.5982 42.7896 35.5982 42.7898C35.5982 42.79 35.5982 42.79 35.5984 42.7902C35.5984 42.7905 35.5984 42.7907 35.5984 42.7909C35.5984 42.7911 35.5986 42.7914 35.5986 42.7914C35.5986 42.7916 35.5986 42.7918 35.5986 42.792C35.5986 42.7923 35.5989 42.7925 35.5989 42.7927C35.5989 42.7927 35.5989 42.7929 35.5989 42.7932C35.5989 42.7934 35.5991 42.7936 35.5991 42.7938C35.5991 42.7941 35.5991 42.7943 35.5991 42.7943C35.5991 42.7945 35.5993 42.7947 35.5993 42.795C35.5993 42.7952 35.5993 42.7954 35.5993 42.7956C35.5995 42.7956 35.5995 42.7959 35.5995 42.7961C35.5995 42.7963 35.5995 42.7965 35.5995 42.7968C35.5998 42.797 35.5998 42.7972 35.5998 42.7972C35.5998 42.7974 35.5998 42.7977 35.5998 42.7979C35.6 42.7981 35.6 42.7983 35.6 42.7985C35.6 42.7988 35.6 42.7988 35.6 42.799C35.6002 42.7992 35.6002 42.7994 35.6002 42.7997C35.6002 42.7999 35.6002 42.8001 35.6004 42.8003C35.6004 42.8003 35.6004 42.8006 35.6004 42.8008C35.6004 42.801 35.6004 42.8012 35.6007 42.8015C35.6007 42.8017 35.6007 42.8019 35.6007 42.8021C35.6007 42.8021 35.6007 42.8024 35.6009 42.8026C35.6009 42.8028 35.6009 42.803 35.6009 42.8033C35.6009 42.8035 35.6011 42.8037 35.6011 42.8037C35.6011 42.8039 35.6011 42.8042 35.6011 42.8044C35.6011 42.8046 35.6014 42.8048 35.6014 42.8051C35.6014 42.8053 35.6014 42.8055 35.6014 42.8055C35.6014 42.8057 35.6016 42.806 35.6016 42.8062C35.6016 42.8064 35.6016 42.8066 35.6016 42.8069C35.6018 42.8071 35.6018 42.8073 35.6018 42.8075C35.6018 42.8075 35.6018 42.8078 35.6018 42.808C35.602 42.8082 35.602 42.8084 35.602 42.8086C35.602 42.8089 35.602 42.8091 35.6023 42.8093C35.6023 42.8093 35.6023 42.8095 35.6023 42.8098C35.6023 42.81 35.6023 42.8102 35.6025 42.8104C35.6025 42.8107 35.6025 42.8109 35.6025 42.8111C35.6025 42.8113 35.6027 42.8113 35.6027 42.8116C35.6027 42.8118 35.6027 42.812 35.6027 42.8122C35.6027 42.8125 35.6029 42.8127 35.6029 42.8129C35.6029 42.8131 35.6029 42.8134 35.6029 42.8134C35.6029 42.8136 35.6032 42.8138 35.6032 42.814C35.6032 42.8143 35.6032 42.8145 35.6032 42.8147C35.6034 42.8149 35.6034 42.8152 35.6034 42.8154C35.6034 42.8156 35.6034 42.8156 35.6034 42.8158C35.6036 42.8161 35.6036 42.8163 35.6036 42.8165C35.6036 42.8167 35.6036 42.817 35.6038 42.8172C35.6038 42.8174 35.6038 42.8176 35.6038 42.8179C35.6038 42.8179 35.6038 42.8181 35.6041 42.8183C35.6041 42.8185 35.6041 42.8188 35.6041 42.819C35.6041 42.8192 35.6043 42.8194 35.6043 42.8197C35.6043 42.8199 35.6043 42.8201 35.6043 42.8203C35.6045 42.8203 35.6045 42.8205 35.6045 42.8208C35.6045 42.821 35.6045 42.8212 35.6045 42.8214C35.6047 42.8217 35.6047 42.8219 35.6047 42.8221C35.6047 42.8223 35.6047 42.8226 35.605 42.8228C35.605 42.8228 35.605 42.823 35.605 42.8232C35.605 42.8235 35.605 42.8237 35.6052 42.8239C35.6052 42.8241 35.6052 42.8244 35.6052 42.8246C35.6052 42.8248 35.6054 42.825 35.6054 42.8253C35.6054 42.8255 35.6054 42.8255 35.6054 42.8257C35.6054 42.8259 35.6057 42.8262 35.6057 42.8264C35.6057 42.8266 35.6057 42.8268 35.6057 42.8271C35.6059 42.8273 35.6059 42.8275 35.6059 42.8277C35.6059 42.828 35.6059 42.8282 35.6061 42.8284C35.6061 42.8284 35.6061 42.8286 35.6061 42.8289C35.6061 42.8291 35.6061 42.8293 35.6063 42.8295C35.6063 42.8298 35.6063 42.83 35.6063 42.8302C35.6063 42.8304 35.6066 42.8307 35.6066 42.8309C35.6066 42.8311 35.6066 42.8313 35.6066 42.8315C35.6068 42.8315 35.6068 42.8318 35.6068 42.832C35.6068 42.8322 35.6068 42.8324 35.6068 42.8327C35.607 42.8329 35.607 42.8331 35.607 42.8333C35.607 42.8336 35.607 42.8338 35.6072 42.834C35.6072 42.8342 35.6072 42.8345 35.6072 42.8347C35.6072 42.8349 35.6075 42.8351 35.6075 42.8351C35.6075 42.8354 35.6075 42.8356 35.6075 42.8358C35.6075 42.836 35.6077 42.8363 35.6077 42.8365C35.6077 42.8367 35.6077 42.8369 35.6077 42.8372C35.6079 42.8374 35.6079 42.8376 35.6079 42.8378C35.6079 42.8381 35.6079 42.8383 35.6081 42.8385C35.6081 42.8387 35.6081 42.839 35.6081 42.839C35.6081 42.8392 35.6081 42.8394 35.6084 42.8396C35.6084 42.8399 35.6084 42.8401 35.6084 42.8403C35.6084 42.8405 35.6086 42.8408 35.6086 42.841C35.6086 42.8412 35.6086 42.8414 35.6086 42.8416C35.6088 42.8419 35.6088 42.8421 35.6088 42.8423C35.6088 42.8425 35.6088 42.8428 35.609 42.843C35.609 42.8432 35.609 42.8434 35.609 42.8437C35.609 42.8437 35.6093 42.8439 35.6093 42.8441C35.6093 42.8443 35.6093 42.8446 35.6093 42.8448C35.6093 42.845 35.6095 42.8452 35.6095 42.8455C35.6095 42.8457 35.6095 42.8459 35.6095 42.8461C35.6097 42.8464 35.6097 42.8466 35.6097 42.8468C35.6097 42.847 35.6097 42.8473 35.6099 42.8475C35.6099 42.8477 35.6099 42.8479 35.6099 42.8482C35.6099 42.8484 35.6102 42.8486 35.6102 42.8488C35.6102 42.8491 35.6102 42.8493 35.6102 42.8495C35.6104 42.8495 35.6104 42.8497 35.6104 42.85C35.6104 42.8502 35.6104 42.8504 35.6104 42.8506C35.6106 42.8509 35.6106 42.8511 35.6106 42.8513C35.6106 42.8515 35.6106 42.8518 35.6109 42.852C35.6109 42.8522 35.6109 42.8524 35.6109 42.8527C35.6109 42.8529 35.6111 42.8531 35.6111 42.8533C35.6111 42.8535 35.6111 42.8538 35.6111 42.854C35.6113 42.8542 35.6113 42.8544 35.6113 42.8547C35.6113 42.8549 35.6113 42.8551 35.6115 42.8553C35.6115 42.8556 35.6115 42.8558 35.6115 42.856C35.6115 42.8562 35.6118 42.8565 35.6118 42.8567C35.6118 42.8569 35.6118 42.8571 35.6118 42.8574C35.612 42.8576 35.612 42.8578 35.612 42.858C35.612 42.8583 35.612 42.8585 35.6122 42.8585C35.6122 42.8587 35.6122 42.8589 35.6122 42.8592C35.6122 42.8594 35.6124 42.8596 35.6124 42.8598C35.6124 42.8601 35.6124 42.8603 35.6124 42.8605C35.6124 42.8607 35.6127 42.861 35.6127 42.8612C35.6127 42.8614 35.6127 42.8616 35.6127 42.8619C35.6129 42.8621 35.6129 42.8623 35.6129 42.8625C35.6129 42.8628 35.6129 42.863 35.6131 42.8632C35.6131 42.8634 35.6131 42.8636 35.6131 42.8639C35.6131 42.8641 35.6133 42.8643 35.6133 42.8645C35.6133 42.8648 35.6133 42.865 35.6133 42.8652C35.6136 42.8654 35.6136 42.8657 35.6136 42.8659C35.6136 42.8661 35.6136 42.8663 35.6138 42.8666C35.6138 42.8668 35.6138 42.867 35.6138 42.8672C35.6138 42.8675 35.614 42.8677 35.614 42.8679C35.614 42.8681 35.614 42.8684 35.614 42.8686C35.6142 42.8688 35.6142 42.869 35.6142 42.8693C35.6142 42.8695 35.6142 42.8697 35.6145 42.8699C35.6145 42.8702 35.6145 42.8704 35.6145 42.8706C35.6145 42.8708 35.6147 42.8711 35.6147 42.8713C35.6147 42.8715 35.6147 42.8717 35.6147 42.872C35.6149 42.8722 35.6149 42.8724 35.6149 42.8726C35.6149 42.8729 35.6149 42.8731 35.6152 42.8733C35.6152 42.8735 35.6152 42.8738 35.6152 42.874C35.6152 42.8742 35.6154 42.8744 35.6154 42.8746C35.6154 42.8749 35.6154 42.8751 35.6154 42.8753C35.6156 42.8755 35.6156 42.8758 35.6156 42.876C35.6156 42.8762 35.6156 42.8764 35.6158 42.8767C35.6158 42.8769 35.6158 42.8771 35.6158 42.8773C35.6161 42.8776 35.6161 42.8778 35.6161 42.878C35.6161 42.8782 35.6161 42.8787 35.6163 42.8789C35.6163 42.8791 35.6163 42.8794 35.6163 42.8796C35.6163 42.8798 35.6165 42.88 35.6165 42.8803C35.6165 42.8805 35.6165 42.8807 35.6165 42.8809C35.6167 42.8812 35.6167 42.8814 35.6167 42.8816C35.6167 42.8818 35.6167 42.8821 35.617 42.8823C35.617 42.8825 35.617 42.8827 35.617 42.883C35.617 42.8832 35.6172 42.8834 35.6172 42.8836C35.6172 42.8839 35.6172 42.8841 35.6172 42.8843C35.6174 42.8845 35.6174 42.8848 35.6174 42.885C35.6174 42.8852 35.6174 42.8854 35.6176 42.8856C35.6176 42.8859 35.6176 42.8861 35.6176 42.8863C35.6176 42.8865 35.6179 42.8868 35.6179 42.887C35.6179 42.8872 35.6179 42.8874 35.6181 42.8877C35.6181 42.8879 35.6181 42.8883 35.6181 42.8886C35.6181 42.8888 35.6183 42.889 35.6183 42.8892C35.6183 42.8895 35.6183 42.8897 35.6183 42.8899C35.6185 42.8901 35.6185 42.8904 35.6185 42.8906C35.6185 42.8908 35.6185 42.891 35.6188 42.8913C35.6188 42.8915 35.6188 42.8917 35.6188 42.8919C35.6188 42.8922 35.619 42.8924 35.619 42.8926C35.619 42.8928 35.619 42.8931 35.619 42.8933C35.6192 42.8935 35.6192 42.8937 35.6192 42.894C35.6192 42.8942 35.6195 42.8946 35.6195 42.8949C35.6195 42.8951 35.6195 42.8953 35.6195 42.8955C35.6197 42.8958 35.6197 42.896 35.6197 42.8962C35.6197 42.8964 35.6197 42.8966 35.6199 42.8969C35.6199 42.8971 35.6199 42.8973 35.6199 42.8975C35.6199 42.8978 35.6201 42.898 35.6201 42.8982C35.6201 42.8984 35.6201 42.8987 35.6204 42.8989C35.6204 42.8991 35.6204 42.8996 35.6204 42.8998C35.6204 42.9 35.6206 42.9002 35.6206 42.9005C35.6206 42.9007 35.6206 42.9009 35.6206 42.9011C35.6208 42.9014 35.6208 42.9016 35.6208 42.9018C35.6208 42.902 35.6208 42.9023 35.621 42.9025C35.621 42.9027 35.621 42.9029 35.621 42.9032C35.6213 42.9034 35.6213 42.9036 35.6213 42.9041C35.6213 42.9043 35.6213 42.9045 35.6215 42.9047C35.6215 42.905 35.6215 42.9052 35.6215 42.9054C35.6215 42.9056 35.6217 42.9059 35.6217 42.9061C35.6217 42.9063 35.6217 42.9065 35.6217 42.9068C35.6219 42.907 35.6219 42.9072 35.6219 42.9074C35.6219 42.9076 35.6222 42.9081 35.6222 42.9083C35.6222 42.9085 35.6222 42.9088 35.6222 42.909C35.6224 42.9092 35.6224 42.9094 35.6224 42.9097C35.6224 42.9099 35.6224 42.9101 35.6226 42.9103C35.6226 42.9106 35.6226 42.9108 35.6226 42.911C35.6228 42.9112 35.6228 42.9117 35.6228 42.9119C35.6228 42.9121 35.6228 42.9124 35.6231 42.9126C35.6231 42.9128 35.6231 42.913 35.6231 42.9133C35.6231 42.9135 35.6233 42.9137 35.6233 42.9139C35.6233 42.9142 35.6233 42.9144 35.6235 42.9146C35.6235 42.9151 35.6235 42.9153 35.6235 42.9155C35.6235 42.9157 35.6238 42.916 35.6238 42.9162C35.6238 42.9164 35.6238 42.9166 35.6238 42.9169C35.624 42.9171 35.624 42.9173 35.624 42.9175C35.624 42.9178 35.6242 42.9182 35.6242 42.9184C35.6242 42.9187 35.6242 42.9189 35.6242 42.9191C35.6244 42.9193 35.6244 42.9195 35.6244 42.9198C35.6244 42.92 35.6244 42.9202 35.6247 42.9204C35.6247 42.9207 35.6247 42.9211 35.6247 42.9213C35.6249 42.9216 35.6249 42.9218 35.6249 42.922C35.6249 42.9222 35.6249 42.9225 35.6251 42.9227C35.6251 42.9229 35.6251 42.9231 35.6251 42.9234C35.6253 42.9236 35.6253 42.924 35.6253 42.9243C35.6253 42.9245 35.6253 42.9247 35.6256 42.9249C35.6256 42.9252 35.6256 42.9254 35.6256 42.9256C35.6256 42.9258 35.6258 42.9261 35.6258 42.9263C35.6258 42.9267 35.6258 42.927 35.626 42.9272C35.626 42.9274 35.626 42.9276 35.626 42.9279C35.626 42.9281 35.6262 42.9283 35.6262 42.9285C35.6262 42.9288 35.6262 42.929 35.6265 42.9294C35.6265 42.9297 35.6265 42.9299 35.6265 42.9301C35.6265 42.9303 35.6267 42.9305 35.6267 42.9308C35.6267 42.931 35.6267 42.9312 35.6269 42.9314C35.6269 42.9319 35.6269 42.9321 35.6269 42.9323C35.6269 42.9326 35.6271 42.9328 35.6271 42.933C35.6271 42.9332 35.6271 42.9335 35.6271 42.9337C35.6274 42.9339 35.6274 42.9344 35.6274 42.9346C35.6274 42.9348 35.6276 42.935 35.6276 42.9353C35.6276 42.9355 35.6276 42.9357 35.6276 42.9359C35.6278 42.9362 35.6278 42.9366 35.6278 42.9368C35.6278 42.9371 35.628 42.9373 35.628 42.9375C35.628 42.9377 35.628 42.938 35.628 42.9382C35.6283 42.9384 35.6283 42.9389 35.6283 42.9391C35.6283 42.9393 35.6285 42.9395 35.6285 42.9398C35.6285 42.94 35.6285 42.9402 35.6285 42.9404C35.6287 42.9406 35.6287 42.9411 35.6287 42.9413C35.6287 42.9415 35.629 42.9418 35.629 42.942C35.629 42.9422 35.629 42.9424 35.629 42.9427C35.6292 42.9429 35.6292 42.9433 35.6292 42.9436C35.6292 42.9438 35.6294 42.944 35.6294 42.9442C35.6294 42.9445 35.6294 42.9447 35.6296 42.9449C35.6296 42.9454 35.6296 42.9456 35.6296 42.9458C35.6296 42.946 35.6299 42.9463 35.6299 42.9465C35.6299 42.9467 35.6299 42.9469 35.6301 42.9472C35.6301 42.9476 35.6301 42.9478 35.6301 42.9481C35.6301 42.9483 35.6303 42.9485 35.6303 42.9487C35.6303 42.949 35.6303 42.9492 35.6305 42.9496C35.6305 42.9499 35.6305 42.9501 35.6305 42.9503C35.6305 42.9505 35.6308 42.9508 35.6308 42.951C35.6308 42.9514 35.6308 42.9516 35.631 42.9519C35.631 42.9521 35.631 42.9523 35.631 42.9525C35.631 42.9528 35.6312 42.953 35.6312 42.9534C35.6312 42.9537 35.6312 42.9539 35.6314 42.9541C35.6314 42.9543 35.6314 42.9546 35.6314 42.9548C35.6317 42.955 35.6317 42.9555 35.6317 42.9557C35.6317 42.9559 35.6317 42.9561 35.6319 42.9564C35.6319 42.9566 35.6319 42.9568 35.6319 42.9573C35.6321 42.9575 35.6321 42.9577 35.6321 42.9579C35.6321 42.9582 35.6321 42.9584 35.6323 42.9586C35.6323 42.9591 35.6323 42.9593 35.6323 42.9595C35.6326 42.9597 35.6326 42.96 35.6326 42.9602C35.6326 42.9604 35.6328 42.9609 35.6328 42.9611C35.6328 42.9613 35.6328 42.9615 35.6328 42.9618L35.6663 42.9552ZM35.6066 42.6591L35.5728 42.6549C35.5642 42.7193 35.5468 42.8147 35.5204 42.9418L35.5534 42.9485L35.5866 42.9555C35.6133 42.8282 35.6312 42.7308 35.6403 42.6636L35.6066 42.6591ZM35.5534 42.9485L35.5201 42.9429C35.4982 43.0691 35.4674 43.2154 35.4276 43.3815L35.4606 43.3892L35.4937 43.397C35.5337 43.23 35.5647 43.0823 35.5869 42.9543L35.5534 42.9485ZM35.4606 43.3892L35.4276 43.3822C35.3923 43.5481 35.3484 43.725 35.2955 43.9129L35.328 43.9219L35.3609 43.9311C35.414 43.7419 35.4584 43.5636 35.4939 43.3961L35.4606 43.3892ZM35.328 43.9219L35.2952 43.9136C35.2468 44.1017 35.1939 44.2921 35.1364 44.4847L35.169 44.4941L35.2016 44.5038C35.2593 44.3105 35.3122 44.1192 35.3611 43.9304L35.328 43.9219ZM35.169 44.4941L35.1364 44.4849L33.2672 50.95L33.3 50.9592L33.3326 50.9684L35.2016 44.5035L35.169 44.4941ZM33.3 50.9592V50.9255H32.1665V50.9592V50.9929H33.3V50.9592ZM32.1665 50.9592L32.1993 50.9507L29.6276 41.3351L29.5948 41.3439L29.562 41.3524L32.1337 50.9677L32.1665 50.9592ZM29.5948 41.3439V41.3775H30.7679V41.3439V41.3102H29.5948V41.3439ZM30.7679 41.3439L30.7351 41.3522L32.2928 47.3831L32.3256 47.3748L32.3584 47.3665L30.8007 41.3355L30.7679 41.3439ZM32.3256 47.3748L32.2928 47.3831C32.3457 47.5844 32.3941 47.7838 32.4382 47.9807L32.4713 47.9733L32.5045 47.9661C32.4602 47.7683 32.4115 47.5683 32.3584 47.3662L32.3256 47.3748ZM32.4713 47.9733L32.4385 47.9816C32.4869 48.1737 32.5287 48.3616 32.564 48.5453L32.5973 48.539L32.6305 48.5327C32.5952 48.3477 32.5529 48.1587 32.5043 47.9652L32.4713 47.9733ZM32.5973 48.539L32.564 48.5459C32.6038 48.7298 32.6391 48.9092 32.6699 49.084L32.7034 49.0782L32.7369 49.0724C32.7059 48.8966 32.6704 48.7163 32.6305 48.5318L32.5973 48.539ZM32.7034 49.0782L32.6699 49.084C32.7009 49.2591 32.7294 49.43 32.7561 49.5965L32.7896 49.5912L32.8231 49.586C32.7966 49.4192 32.7676 49.2479 32.7369 49.0724L32.7034 49.0782ZM32.7896 49.5912L32.8231 49.5954C32.8452 49.4253 32.8737 49.2484 32.909 49.0647L32.8758 49.0584L32.8423 49.0522C32.8068 49.2369 32.7781 49.4152 32.7559 49.5869L32.7896 49.5912ZM32.8758 49.0584L32.909 49.0647C32.9443 48.8764 32.9819 48.6858 33.0217 48.493L32.9885 48.4862L32.9552 48.4795C32.9154 48.6728 32.8776 48.8634 32.8423 49.0522L32.8758 49.0584ZM32.9885 48.4862L33.0215 48.4939C33.0656 48.301 33.112 48.1062 33.1606 47.9091L33.1276 47.901L33.0946 47.8929C33.0459 48.0904 32.9995 48.2858 32.9552 48.4788L32.9885 48.4862ZM33.1276 47.901L33.1604 47.9097C33.2133 47.7126 33.2685 47.5155 33.3258 47.3184L33.2932 47.309L33.2606 47.2998C33.2032 47.4971 33.148 47.6947 33.0948 47.8922L33.1276 47.901ZM33.2932 47.309L33.3258 47.3184L35.069 41.3533L35.0364 41.3439L35.0038 41.3344L33.2606 47.2996L33.2932 47.309ZM35.0364 41.3439V41.3775H36.1964V41.3439V41.3102H35.0364V41.3439ZM36.1964 41.3439L36.164 41.3535L37.9801 47.3647L38.0127 47.355L38.045 47.3454L36.229 41.3342L36.1964 41.3439ZM38.0127 47.355L37.9801 47.3647C38.0418 47.5705 38.0991 47.7739 38.152 47.9753L38.1848 47.9668L38.2176 47.9582C38.1647 47.7562 38.107 47.5519 38.045 47.3454L38.0127 47.355ZM38.1848 47.9668L38.152 47.9753C38.205 48.1764 38.2511 48.3731 38.2909 48.5655L38.3242 48.5587L38.3575 48.552C38.3174 48.3583 38.2708 48.1605 38.2176 47.9582L38.1848 47.9668ZM38.3242 48.5587L38.2909 48.5664C38.3351 48.7543 38.3726 48.9357 38.4034 49.1103L38.4369 49.1045L38.4701 49.0986C38.4391 48.9226 38.4016 48.7401 38.3572 48.5511L38.3242 48.5587ZM38.4369 49.1045L38.4036 49.1112C38.4389 49.282 38.4697 49.4439 38.4961 49.597L38.5296 49.5912L38.5631 49.5855C38.5364 49.4318 38.5054 49.269 38.4701 49.0977L38.4369 49.1045ZM38.5296 49.5912L38.5631 49.5959C38.5941 49.3817 38.6314 49.1563 38.6756 48.9199L38.6423 48.9139L38.6088 48.9076C38.5647 49.1449 38.5269 49.3712 38.4959 49.5864L38.5296 49.5912ZM38.6423 48.9139L38.6756 48.9199C38.7197 48.6835 38.7706 48.4362 38.8278 48.1778L38.7948 48.1706L38.7615 48.1634C38.7041 48.4225 38.6532 48.6705 38.6088 48.9076L38.6423 48.9139ZM38.7948 48.1706L38.8278 48.1784C38.8896 47.9198 38.9559 47.6527 39.0265 47.3766L38.9937 47.3683L38.9606 47.36C38.8898 47.6363 38.8235 47.9039 38.7618 48.1627L38.7948 48.1706ZM38.9937 47.3683L39.0265 47.3766L40.5842 41.3522L40.5511 41.3439L40.5183 41.3355L38.9606 47.36L38.9937 47.3683ZM40.5511 41.3439V41.3775H41.731V41.3439V41.3102H40.5511V41.3439ZM50.6937 50.9592V50.9929H50.7276V50.9592H50.6937ZM45.2984 50.9592H45.2645V50.9929H45.2984V50.9592ZM45.2984 41.3439V41.3102H45.2645V41.3439H45.2984ZM50.6937 41.3439H50.7276V41.3102H50.6937V41.3439ZM50.6937 42.3303V42.3642H50.7276V42.3303H50.6937ZM46.4251 42.3303V42.2966H46.3912V42.3303H46.4251ZM46.4251 45.4412H46.3912V45.4749H46.4251V45.4412ZM50.4484 45.4412H50.4823V45.4076H50.4484V45.4412ZM50.4484 46.4146V46.4483H50.4823V46.4146H50.4484ZM46.4251 46.4146V46.381H46.3912V46.4146H46.4251ZM46.4251 49.9726H46.3912V50.0062H46.4251V49.9726ZM50.6937 49.9726H50.7276V49.9389H50.6937V49.9726ZM50.6937 50.9592V50.9255H45.2984V50.9592V50.9929H50.6937V50.9592ZM45.2984 50.9592H45.3323V41.3439H45.2984H45.2645V50.9592H45.2984ZM45.2984 41.3439V41.3775H50.6937V41.3439V41.3102H45.2984V41.3439ZM50.6937 41.3439H50.6597V42.3303H50.6937H50.7276V41.3439H50.6937ZM50.6937 42.3303V42.2966H46.4251V42.3303V42.3642H50.6937V42.3303ZM46.4251 42.3303H46.3912V45.4412H46.4251H46.459V42.3303H46.4251ZM46.4251 45.4412V45.4749H50.4484V45.4412V45.4076H46.4251V45.4412ZM50.4484 45.4412H50.4145V46.4146H50.4484H50.4823V45.4412H50.4484ZM50.4484 46.4146V46.381H46.4251V46.4146V46.4483H50.4484V46.4146ZM46.4251 46.4146H46.3912V49.9726H46.4251H46.459V46.4146H46.4251ZM46.4251 49.9726V50.0062H50.6937V49.9726V49.9389H46.4251V49.9726ZM50.6937 49.9726H50.6597V50.9592H50.6937H50.7276V49.9726H50.6937ZM60.2728 50.9592V50.9929H60.3068V50.9592H60.2728ZM54.8776 50.9592H54.8437V50.9929H54.8776V50.9592ZM54.8776 41.3439V41.3102H54.8437V41.3439H54.8776ZM60.2728 41.3439H60.3068V41.3102H60.2728V41.3439ZM60.2728 42.3303V42.3642H60.3068V42.3303H60.2728ZM56.0043 42.3303V42.2966H55.9704V42.3303H56.0043ZM56.0043 45.4412H55.9704V45.4749H56.0043V45.4412ZM60.0276 45.4412H60.0615V45.4076H60.0276V45.4412ZM60.0276 46.4146V46.4483H60.0615V46.4146H60.0276ZM56.0043 46.4146V46.381H55.9704V46.4146H56.0043ZM56.0043 49.9726H55.9704V50.0062H56.0043V49.9726ZM60.2728 49.9726H60.3068V49.9389H60.2728V49.9726ZM60.2728 50.9592V50.9255H54.8776V50.9592V50.9929H60.2728V50.9592ZM54.8776 50.9592H54.9115V41.3439H54.8776H54.8437V50.9592H54.8776ZM54.8776 41.3439V41.3775H60.2728V41.3439V41.3102H54.8776V41.3439ZM60.2728 41.3439H60.2389V42.3303H60.2728H60.3068V41.3439H60.2728ZM60.2728 42.3303V42.2966H56.0043V42.3303V42.3642H60.2728V42.3303ZM56.0043 42.3303H55.9704V45.4412H56.0043H56.0382V42.3303H56.0043ZM56.0043 45.4412V45.4749H60.0276V45.4412V45.4076H56.0043V45.4412ZM60.0276 45.4412H59.9937V46.4146H60.0276H60.0615V45.4412H60.0276ZM60.0276 46.4146V46.381H56.0043V46.4146V46.4483H60.0276V46.4146ZM56.0043 46.4146H55.9704V49.9726H56.0043H56.0382V46.4146H56.0043ZM56.0043 49.9726V50.0062H60.2728V49.9726V49.9389H56.0043V49.9726ZM60.2728 49.9726H60.2389V50.9592H60.2728H60.3068V49.9726H60.2728ZM67.4328 50.9592V50.9929H67.4667V50.9592H67.4328ZM66.2993 50.9592H66.2654V50.9929H66.2993V50.9592ZM66.2993 42.3303H66.3332V42.2966H66.2993V42.3303ZM63.2502 42.3303H63.2163V42.3642H63.2502V42.3303ZM63.2502 41.3439V41.3102H63.2163V41.3439H63.2502ZM70.4685 41.3439H70.5025V41.3102H70.4685V41.3439ZM70.4685 42.3303V42.3642H70.5025V42.3303H70.4685ZM67.4328 42.3303V42.2966H67.3989V42.3303H67.4328ZM67.4328 50.9592V50.9255H66.2993V50.9592V50.9929H67.4328V50.9592ZM66.2993 50.9592H66.3332V42.3303H66.2993H66.2654V50.9592H66.2993ZM66.2993 42.3303V42.2966H63.2502V42.3303V42.3642H66.2993V42.3303ZM63.2502 42.3303H63.2842V41.3439H63.2502H63.2163V42.3303H63.2502ZM63.2502 41.3439V41.3775H70.4685V41.3439V41.3102H63.2502V41.3439ZM70.4685 41.3439H70.4346V42.3303H70.4685H70.5025V41.3439H70.4685ZM70.4685 42.3303V42.2966H67.4328V42.3303V42.3642H70.4685V42.3303ZM67.4328 42.3303H67.3989V50.9592H67.4328H67.4667V42.3303H67.4328ZM73.3398 50.6436H73.3059V50.6649L73.3256 50.6741L73.3398 50.6436ZM73.3398 49.5714L73.3527 49.5404L73.3059 49.5211V49.5714H73.3398ZM74.5527 49.953L74.5446 49.9856H74.5448L74.5527 49.953ZM77.2837 49.9333L77.2957 49.9647L77.2961 49.9645L77.2837 49.9333ZM78.0923 47.6709L78.0638 47.6891L78.064 47.6893L78.0923 47.6709ZM77.3631 47.0657L77.3468 47.0953L77.3473 47.0955L77.3631 47.0657ZM75.9846 46.4804L75.9959 46.4488V46.4485L75.9846 46.4804ZM74.8975 46.0067L74.8808 46.0361L74.8812 46.0364L74.8975 46.0067ZM73.6249 44.6519L73.593 44.6636L73.5932 44.6638L73.6249 44.6519ZM74.9504 41.5017L74.9636 41.5327H74.9638L74.9504 41.5017ZM79.2059 41.7385L79.2378 41.75L79.2486 41.7205L79.2197 41.7078L79.2059 41.7385ZM78.8545 42.6987L78.8414 42.7299L78.8742 42.7433L78.8864 42.7101L78.8545 42.6987ZM75.4808 42.3765L75.4939 42.4075L75.4941 42.4073L75.4808 42.3765ZM74.8179 44.5074L74.7891 44.5251L74.7894 44.5255L74.8179 44.5074ZM75.5072 45.1059L75.4907 45.135L75.4912 45.1355L75.5072 45.1059ZM78.2183 46.3028L78.2009 46.3318L78.2014 46.332L78.2183 46.3028ZM79.4378 48.4009H79.4038C79.4038 48.9651 79.2618 49.4446 78.9792 49.8415L79.007 49.8608L79.0346 49.8803C79.3267 49.4704 79.4717 48.9767 79.4717 48.4009H79.4378ZM79.007 49.8608L78.9792 49.8415C78.7007 50.2345 78.3084 50.5356 77.8009 50.7439L77.814 50.7751L77.8269 50.8061C78.3446 50.5935 78.7477 50.2851 79.0348 49.8803L79.007 49.8608ZM77.814 50.7751L77.8009 50.7439C77.2934 50.9522 76.6948 51.0571 76.0043 51.0571V51.0908V51.1244C76.7016 51.1244 77.3093 51.0187 77.8269 50.8061L77.814 50.7751ZM76.0043 51.0908V51.0571C75.6387 51.0571 75.293 51.0396 74.9674 51.0045L74.9638 51.0382L74.9602 51.0717C75.2885 51.1069 75.6366 51.1244 76.0043 51.1244V51.0908ZM74.9638 51.0382L74.9674 51.0045C74.6416 50.9698 74.3425 50.9195 74.0704 50.8541L74.0622 50.8869L74.0543 50.9197C74.3299 50.9857 74.6319 51.0364 74.9602 51.0717L74.9638 51.0382ZM74.0622 50.8869L74.0704 50.8541C73.798 50.7888 73.5595 50.7082 73.3543 50.613L73.3398 50.6436L73.3256 50.6741C73.5355 50.7715 73.7787 50.8535 74.0543 50.9197L74.0622 50.8869ZM73.3398 50.6436H73.3738V49.5714H73.3398H73.3059V50.6436H73.3398ZM73.3398 49.5714L73.3269 49.6026C73.6602 49.7393 74.0663 49.8671 74.5446 49.9856L74.5527 49.953L74.5611 49.9203C74.0848 49.8022 73.6821 49.6756 73.3527 49.5404L73.3398 49.5714ZM74.5527 49.953L74.5448 49.9856C75.0249 50.1003 75.5269 50.1575 76.0509 50.1575V50.1239V50.0902C75.5319 50.0902 75.0353 50.0336 74.5609 49.9203L74.5527 49.953ZM76.0509 50.1239V50.1575C76.5396 50.1575 76.955 50.0938 77.2957 49.9647L77.2837 49.9333L77.2715 49.9019C76.9407 50.0271 76.5342 50.0902 76.0509 50.0902V50.1239ZM77.2837 49.9333L77.2961 49.9645C77.6366 49.8311 77.8966 49.6412 78.0735 49.3936L78.0459 49.3741L78.0183 49.3545C77.8504 49.5894 77.6023 49.7723 77.2713 49.9019L77.2837 49.9333ZM78.0459 49.3741L78.0735 49.3936C78.255 49.1415 78.345 48.8409 78.345 48.493H78.3111H78.2771C78.2771 48.8288 78.1905 49.1155 78.0183 49.3545L78.0459 49.3741ZM78.3111 48.493H78.345C78.345 48.1591 78.271 47.8783 78.1206 47.6522L78.0923 47.6709L78.064 47.6893C78.2052 47.9019 78.2771 48.169 78.2771 48.493H78.3111ZM78.0923 47.6709L78.1208 47.6525C77.9708 47.4224 77.7224 47.2174 77.3792 47.036L77.3631 47.0657L77.3473 47.0955C77.6844 47.2735 77.9222 47.472 78.0638 47.6891L78.0923 47.6709ZM77.3631 47.0657L77.3796 47.0362C77.0414 46.8508 76.5801 46.6551 75.9959 46.4488L75.9846 46.4804L75.9731 46.5121C76.5556 46.7179 77.0131 46.9123 77.3468 47.0953L77.3631 47.0657ZM75.9846 46.4804L75.9959 46.4485C75.5862 46.3044 75.2256 46.1473 74.9138 45.9773L74.8975 46.0067L74.8812 46.0364C75.1968 46.2083 75.5609 46.367 75.9731 46.5121L75.9846 46.4804ZM74.8975 46.0067L74.9142 45.9775C74.6027 45.8033 74.3428 45.608 74.1333 45.3916L74.1088 45.415L74.0842 45.4383C74.2991 45.6601 74.5647 45.8595 74.8808 46.0361L74.8975 46.0067ZM74.1088 45.415L74.1333 45.3916C73.9244 45.1757 73.7654 44.9254 73.6566 44.64L73.6249 44.6519L73.5932 44.6638C73.7052 44.9575 73.869 45.2156 74.0842 45.4383L74.1088 45.415ZM73.6249 44.6519L73.6568 44.6405C73.5523 44.3554 73.4998 44.0285 73.4998 43.6588H73.4658H73.4319C73.4319 44.0348 73.4853 44.3698 73.593 44.6636L73.6249 44.6519ZM73.4658 43.6588H73.4998C73.4998 43.1519 73.6285 42.7204 73.8846 42.363L73.8568 42.3435L73.8292 42.324C73.5638 42.6944 73.4319 43.14 73.4319 43.6588H73.4658ZM73.8568 42.3435L73.8844 42.363C74.1455 42.0005 74.5047 41.7235 74.9636 41.5327L74.9504 41.5017L74.9373 41.4707C74.4683 41.6658 74.0984 41.95 73.8292 42.324L73.8568 42.3435ZM74.9504 41.5017L74.9638 41.5327C75.4271 41.3373 75.9595 41.2395 76.5611 41.2395V41.2058V41.1721C75.952 41.1721 75.4106 41.2713 74.9373 41.4707L74.9504 41.5017ZM76.5611 41.2058V41.2395C77.076 41.2395 77.5509 41.2875 77.9855 41.3834L77.993 41.3504L78.0002 41.3176C77.5599 41.2204 77.0803 41.1721 76.5611 41.1721V41.2058ZM77.993 41.3504L77.9855 41.3834C78.4256 41.4794 78.8276 41.6081 79.1921 41.7693L79.2059 41.7385L79.2197 41.7078C78.8504 41.5445 78.4441 41.4143 78.0002 41.3176L77.993 41.3504ZM79.2059 41.7385L79.174 41.7271L78.8226 42.6872L78.8545 42.6987L78.8864 42.7101L79.2378 41.75L79.2059 41.7385ZM78.8545 42.6987L78.8676 42.6677C78.5167 42.5222 78.1439 42.4012 77.7491 42.3042L77.7409 42.337L77.7328 42.3695C78.1247 42.4656 78.4941 42.5857 78.8414 42.7299L78.8545 42.6987ZM77.7409 42.337L77.7493 42.3042C77.3577 42.2072 76.9527 42.1585 76.5346 42.1585V42.1922V42.2259C76.9473 42.2259 77.3466 42.2739 77.7328 42.3695L77.7409 42.337ZM76.5346 42.1922V42.1585C76.1161 42.1585 75.7599 42.2205 75.4674 42.3455L75.4808 42.3765L75.4941 42.4073C75.776 42.2869 76.1224 42.2259 76.5346 42.2259V42.1922ZM75.4808 42.3765L75.4676 42.3453C75.1796 42.4659 74.9577 42.6385 74.8032 42.8639L74.8312 42.8827L74.8593 42.9018C75.0052 42.6888 75.2163 42.5238 75.4939 42.4075L75.4808 42.3765ZM74.8312 42.8827L74.8032 42.8639C74.6486 43.0895 74.5719 43.3571 74.5719 43.6655H74.6059H74.6398C74.6398 43.3688 74.7133 43.1146 74.8593 42.9018L74.8312 42.8827ZM74.6059 43.6655H74.5719C74.5719 44.0076 74.6437 44.295 74.7891 44.5251L74.8179 44.5074L74.8466 44.4894C74.7095 44.2725 74.6398 43.9984 74.6398 43.6655H74.6059ZM74.8179 44.5074L74.7894 44.5255C74.9391 44.7552 75.1738 44.9579 75.4907 45.135L75.5072 45.1059L75.524 45.0764C75.2133 44.9029 74.9885 44.7067 74.8464 44.489L74.8179 44.5074ZM75.5072 45.1059L75.4912 45.1355C75.8113 45.3074 76.2328 45.4879 76.755 45.6767L76.7667 45.6451L76.7783 45.6134C76.2577 45.4253 75.8396 45.2462 75.5235 45.0762L75.5072 45.1059ZM76.7667 45.6451L76.755 45.6767C77.3237 45.8824 77.8057 46.1008 78.2009 46.3318L78.2183 46.3028L78.2355 46.2739C77.8355 46.0402 77.3498 45.82 76.7783 45.6134L76.7667 45.6451ZM78.2183 46.3028L78.2014 46.332C78.5948 46.5576 78.8932 46.8347 79.0975 47.1624L79.1262 47.1447L79.1552 47.1269C78.9441 46.7882 78.6369 46.504 78.2353 46.2737L78.2183 46.3028ZM79.1262 47.1447L79.0975 47.1624C79.3009 47.4845 79.4038 47.8965 79.4038 48.4009H79.4378H79.4717C79.4717 47.8877 79.367 47.4623 79.155 47.1267L79.1262 47.1447Z" fill="black"/>
</g>
<path d="M85.7465 39.1734C83.4366 38.7442 83.0381 38.0151 82.9083 36.3673C82.7261 38.2086 82.1302 38.7934 80.3167 39.1734C82.1553 39.4758 82.763 40.0263 83.0316 41.7551C83.1913 39.9933 83.7368 39.3849 85.7465 39.1734Z" fill="#D4AF37"/>
</svg>
