<svg width="100" height="55" viewBox="0 0 100 55" fill="none" xmlns="http://www.w3.org/2000/svg">
<path d="M42.8733 16.388H18.0995L16.2896 7.63288L21.1538 10.7757L22.285 6.06145L26.2443 10.2145L30.5429 1.34717L35.0678 10.2145L39.0271 6.06145L40.3846 10.7757L45.0226 7.63288L42.8733 16.388Z" stroke="#D4AF37"/>
<path d="M13.6561 16.3877C13.638 17.1061 13.6018 17.8334 13.5475 18.5697C13.5113 19.2881 13.448 20.0155 13.3575 20.7518H12.6516L11.5385 17.7885H5.61993V24.9273H10.0453L11.1041 22.9338H11.7828C11.8914 24.7118 11.8914 26.5257 11.7828 28.3755H11.1041L10.0453 26.3281H5.61993V33.844H11.8643L13.1946 30.6114H13.8733C14 31.3657 14.0905 32.1289 14.1448 32.9012C14.1991 33.6734 14.2082 34.4546 14.172 35.2448H0.787354V34.4636C1.42084 34.1763 2.16292 33.9608 3.0136 33.8171V17.8424C2.65161 17.7706 2.28057 17.6808 1.90048 17.573C1.52039 17.4473 1.14934 17.3126 0.787354 17.1689V16.3877H13.6561ZM17.8154 19.5306H24.0145V20.1816C23.6525 20.3163 23.2905 20.436 22.9285 20.5408C22.5665 20.6306 22.2045 20.6979 21.8425 20.7428V34.0775H27.0462L28.381 30.4632H28.9693C29.0145 30.7775 29.0521 31.1441 29.0824 31.5632C29.1276 31.9673 29.1577 32.3938 29.1729 32.8428C29.203 33.2767 29.2181 33.7033 29.2181 34.1224C29.2181 34.5415 29.2104 34.9155 29.1955 35.2448H17.8154V34.5938C18.1774 34.4293 18.5092 34.3094 18.8108 34.2346C19.1125 34.1599 19.3991 34.0999 19.6706 34.055V20.7428C19.3236 20.6829 18.9918 20.6081 18.6751 20.5183C18.3583 20.4135 18.0718 20.3013 17.8154 20.1816V19.5306ZM38.2012 19.5306H43.1785V20.1816C42.6055 20.4659 42.0324 20.653 41.4591 20.7428L37.1831 28.555V34.055C37.7713 34.1298 38.3446 34.3094 38.9025 34.5938V35.2448H33.1559V34.5938C33.6989 34.3244 34.3174 34.1448 35.0111 34.055V28.5775L30.441 20.7428C30.0941 20.6829 29.7699 20.6081 29.4681 20.5183C29.1817 20.4135 28.895 20.3013 28.6084 20.1816V19.5306H34.6039V20.1816C34.3776 20.2714 34.1213 20.3686 33.8346 20.4734C33.5482 20.5632 33.2238 20.653 32.8618 20.7428L36.5722 27.3428L40.0564 20.7428C39.7095 20.668 39.3776 20.5857 39.0609 20.4959C38.7593 20.3911 38.4726 20.2863 38.2012 20.1816V19.5306ZM47.6935 33.6959C47.8745 33.8755 48.1082 34.0326 48.3948 34.1673C48.6812 34.2869 49.1111 34.3469 49.6844 34.3469C50.167 34.3469 50.6195 34.2869 51.0419 34.1673C51.4641 34.0326 51.826 33.8456 52.1279 33.6061C52.4446 33.3517 52.6935 33.0522 52.8745 32.7081C53.0555 32.3489 53.146 31.9448 53.146 31.4959C53.146 30.8971 52.9573 30.3959 52.5803 29.9918C52.2183 29.5877 51.7582 29.2285 51.2002 28.9142C50.6573 28.5999 50.0613 28.2931 49.4129 27.9938C48.7643 27.6946 48.1609 27.3428 47.603 26.9387C47.06 26.5196 46.5998 26.0257 46.2229 25.4571C45.8609 24.8734 45.6799 24.1476 45.6799 23.2795C45.6799 22.651 45.793 22.0897 46.0193 21.5959C46.2455 21.102 46.5622 20.6829 46.9695 20.3387C47.3917 19.9945 47.8894 19.7326 48.4627 19.553C49.0358 19.3584 49.6767 19.2612 50.3858 19.2612C51.3057 19.2612 52.1428 19.336 52.8971 19.4857C53.6663 19.6203 54.2695 19.7925 54.707 20.002C54.707 20.2564 54.6844 20.5557 54.6392 20.8999C54.6088 21.2292 54.5636 21.5734 54.5034 21.9326C54.4582 22.2918 54.4052 22.6436 54.345 22.9877C54.2846 23.317 54.2242 23.6089 54.1641 23.8632H53.5758L52.6708 20.7877C52.3993 20.668 52.0523 20.5782 51.6301 20.5183C51.2229 20.4584 50.7853 20.4285 50.3179 20.4285C49.5487 20.4285 48.9301 20.6455 48.4627 21.0795C47.995 21.4986 47.7613 22.0897 47.7613 22.853C47.7613 23.4665 47.9423 23.9829 48.3043 24.402C48.6812 24.8211 49.1489 25.1951 49.707 25.5244C50.265 25.8538 50.8609 26.1755 51.4944 26.4897C52.1428 26.789 52.7462 27.1408 53.3043 27.5448C53.8622 27.9489 54.3224 28.4278 54.6844 28.9816C55.0613 29.5354 55.25 30.2237 55.25 31.0469C55.25 31.7203 55.1217 32.3339 54.8654 32.8877C54.624 33.4415 54.2695 33.9129 53.8021 34.302C53.3344 34.691 52.7613 34.9905 52.0826 35.1999C51.4039 35.4094 50.6346 35.5142 49.7749 35.5142C48.8247 35.5142 47.9724 35.402 47.2183 35.1775C46.4641 34.953 45.9288 34.7135 45.612 34.4591C45.6269 34.2048 45.6496 33.8979 45.6799 33.5387C45.7251 33.1795 45.7704 32.8129 45.8156 32.4387C45.8758 32.0497 45.9362 31.6755 45.9966 31.3163C46.0568 30.9571 46.1172 30.6502 46.1776 30.3959H46.7659L47.6935 33.6959ZM64.4385 35.2448H58.6466V34.5938C59.2349 34.3244 59.8383 34.1448 60.4566 34.055V20.7428C60.155 20.6829 59.8532 20.6081 59.5516 20.5183C59.25 20.4135 58.9482 20.3013 58.6466 20.1816V19.5306H64.4385V20.1816C64.167 20.3013 63.8729 20.4135 63.5561 20.5183C63.2394 20.6081 62.9301 20.6829 62.6285 20.7428V34.055C62.9453 34.115 63.262 34.1897 63.5788 34.2795C63.8955 34.3693 64.1821 34.4742 64.4385 34.5938V35.2448ZM71.6683 35.2448H66.6457V34.5938C67.1887 34.3543 67.7317 34.1747 68.2747 34.055L73.9987 19.2612H74.6548L80.3788 34.055C80.6806 34.115 80.9747 34.1823 81.2611 34.2571C81.5629 34.3318 81.8419 34.4441 82.0982 34.5938V35.2448H76.3064V34.5938C76.6082 34.4742 76.9172 34.3693 77.234 34.2795C77.5507 34.1897 77.86 34.115 78.1616 34.055L76.6231 29.9469H71.2159L69.7226 34.055C70.3561 34.1448 71.0048 34.3244 71.6683 34.5938V35.2448ZM71.6683 28.7795H76.2385L74.4512 24.0203L74.0213 22.0897H73.976L73.4104 24.0652L71.6683 28.7795ZM94.2389 19.5306H99.1258V20.1816C98.4923 20.6006 97.874 20.8999 97.2706 21.0795V35.5142H95.981L87.7683 23.1448L86.886 21.3938H86.8181L87.0217 23.1448V33.8081C87.6401 33.9727 88.2208 34.2346 88.7638 34.5938V35.2448H83.8769V34.5938C84.1484 34.4293 84.4351 34.2869 84.7367 34.1673C85.0534 34.0326 85.3853 33.9129 85.7321 33.8081V20.9448C85.4306 20.8251 85.1288 20.6979 84.8272 20.5632C84.5405 20.4285 84.269 20.2938 84.0127 20.1591V19.5306H87.8362L94.9629 30.1938L96.0036 32.1244H96.0941L95.981 30.1938V21.0795C95.6643 20.9448 95.355 20.8027 95.0534 20.653C94.7668 20.5033 94.4953 20.3462 94.2389 20.1816V19.5306Z" fill="white"/>
<path d="M26.7034 48.4007C26.7034 48.9707 26.5599 49.4574 26.2726 49.8605C25.9898 50.2597 25.5921 50.5643 25.0796 50.7749C24.567 50.9852 23.9638 51.0905 23.2701 51.0905C22.9032 51.0905 22.5564 51.073 22.2294 51.038C21.9024 51.0028 21.6019 50.9525 21.3279 50.8867C21.054 50.8209 20.8131 50.7396 20.6055 50.6433V49.5712C20.9369 49.7072 21.3412 49.8343 21.8184 49.9528C22.2957 50.0666 22.795 50.1237 23.3165 50.1237C23.8025 50.1237 24.2133 50.0601 24.5493 49.9331C24.8851 49.8015 25.1391 49.6152 25.3115 49.3739C25.4882 49.1285 25.5767 48.8346 25.5767 48.4927C25.5767 48.1639 25.5038 47.8898 25.3579 47.6707C25.2122 47.4468 24.969 47.2452 24.6287 47.0654C24.293 46.8813 23.8335 46.6863 23.2502 46.4802C22.8391 46.3354 22.4768 46.1776 22.1631 46.0065C21.8494 45.8312 21.5864 45.6339 21.3743 45.4148C21.1622 45.1954 21.0009 44.9411 20.8905 44.6517C20.7844 44.3623 20.7314 44.0314 20.7314 43.6586C20.7314 43.1456 20.8618 42.7072 21.1225 42.3433C21.3876 41.9749 21.7521 41.6943 22.2161 41.5014C22.6846 41.3041 23.2215 41.2056 23.8267 41.2056C24.3439 41.2056 24.821 41.2538 25.2586 41.3501C25.7004 41.4467 26.1047 41.576 26.4715 41.7383L26.1201 42.6984C25.771 42.5539 25.4 42.4331 25.0066 42.3368C24.6179 42.2402 24.2156 42.192 23.8002 42.192C23.3848 42.192 23.0337 42.2535 22.7464 42.3763C22.4636 42.4946 22.2471 42.6634 22.0968 42.8825C21.9466 43.1018 21.8715 43.3627 21.8715 43.6653C21.8715 44.0029 21.9422 44.2835 22.0836 44.5071C22.2294 44.7307 22.4592 44.9303 22.7728 45.1056C23.0909 45.2767 23.5109 45.4563 24.0323 45.6449C24.6023 45.8509 25.0862 46.0703 25.4839 46.3026C25.8814 46.5305 26.1842 46.8111 26.3918 47.1444C26.5995 47.4733 26.7034 47.892 26.7034 48.4007ZM41.731 41.3436L39.1394 50.959H38.0059L36.0837 44.4874C36.0262 44.3033 35.971 44.119 35.9181 43.9349C35.8694 43.7463 35.8231 43.5688 35.779 43.4022C35.7346 43.2311 35.6971 43.0821 35.6663 42.955C35.6396 42.8235 35.6197 42.7247 35.6066 42.6589C35.5977 42.7247 35.5801 42.8212 35.5534 42.9483C35.5314 43.0756 35.5004 43.2224 35.4606 43.389C35.4253 43.5555 35.3812 43.7331 35.328 43.9217C35.2796 44.1102 35.2265 44.3011 35.169 44.4939L33.3 50.959H32.1665L29.5948 41.3436H30.7679L32.3256 47.3745C32.3785 47.5764 32.4271 47.7757 32.4713 47.973C32.5199 48.1661 32.562 48.3544 32.5973 48.5388C32.6371 48.7228 32.6724 48.9027 32.7034 49.078C32.7344 49.2533 32.7629 49.4244 32.7896 49.5909C32.8115 49.4201 32.8403 49.2425 32.8758 49.0582C32.9111 48.8697 32.9486 48.6791 32.9885 48.486C33.0326 48.2932 33.079 48.0981 33.1276 47.9008C33.1805 47.7034 33.2357 47.5061 33.2932 47.3088L35.0364 41.3436H36.1964L38.0127 47.3548C38.0744 47.5609 38.1319 47.7647 38.1848 47.9665C38.238 48.1681 38.2844 48.3654 38.3242 48.5585C38.3683 48.7469 38.4059 48.9289 38.4369 49.1042C38.4722 49.2753 38.5032 49.4376 38.5296 49.5909C38.5606 49.3761 38.5982 49.1503 38.6423 48.9137C38.6864 48.6768 38.7373 48.429 38.7948 48.1704C38.8566 47.9118 38.9228 47.6442 38.9937 47.368L40.5511 41.3436H41.731ZM50.6937 50.959H45.2984V41.3436H50.6937V42.33H46.4251V45.441H50.4484V46.4144H46.4251V49.9723H50.6937V50.959ZM60.2728 50.959H54.8776V41.3436H60.2728V42.33H56.0043V45.441H60.0276V46.4144H56.0043V49.9723H60.2728V50.959ZM67.4328 50.959H66.2993V42.33H63.2502V41.3436H70.4685V42.33H67.4328V50.959ZM79.4378 48.4007C79.4378 48.9707 79.2941 49.4574 79.007 49.8605C78.7242 50.2597 78.3265 50.5643 77.814 50.7749C77.3013 50.9852 76.6982 51.0905 76.0043 51.0905C75.6376 51.0905 75.2907 51.073 74.9638 51.038C74.6369 51.0028 74.3362 50.9525 74.0622 50.8867C73.7885 50.8209 73.5475 50.7396 73.3398 50.6433V49.5712C73.6713 49.7072 74.0756 49.8343 74.5527 49.9528C75.0301 50.0666 75.5294 50.1237 76.0509 50.1237C76.5369 50.1237 76.9477 50.0601 77.2837 49.9331C77.6194 49.8015 77.8735 49.6152 78.0459 49.3739C78.2226 49.1285 78.3111 48.8346 78.3111 48.4927C78.3111 48.1639 78.238 47.8898 78.0923 47.6707C77.9464 47.4468 77.7034 47.2452 77.3631 47.0654C77.0274 46.8813 76.5679 46.6863 75.9846 46.4802C75.5735 46.3354 75.2113 46.1776 74.8975 46.0065C74.5837 45.8312 74.3208 45.6339 74.1088 45.4148C73.8966 45.1954 73.7353 44.9411 73.6249 44.6517C73.5188 44.3623 73.4658 44.0314 73.4658 43.6586C73.4658 43.1456 73.5961 42.7072 73.8568 42.3433C74.1219 41.9749 74.4864 41.6943 74.9504 41.5014C75.419 41.3041 75.9559 41.2056 76.5611 41.2056C77.0783 41.2056 77.5554 41.2538 77.993 41.3501C78.4348 41.4467 78.8391 41.576 79.2059 41.7383L78.8545 42.6984C78.5054 42.5539 78.1344 42.4331 77.7409 42.3368C77.352 42.2402 76.95 42.192 76.5346 42.192C76.1192 42.192 75.7681 42.2535 75.4808 42.3763C75.198 42.4946 74.9814 42.6634 74.8312 42.8825C74.681 43.1018 74.6059 43.3627 74.6059 43.6653C74.6059 44.0029 74.6765 44.2835 74.8179 44.5071C74.9638 44.7307 75.1934 44.9303 75.5072 45.1056C75.8253 45.2767 76.2452 45.4563 76.7667 45.6449C77.3366 45.8509 77.8206 46.0703 78.2183 46.3026C78.6158 46.5305 78.9185 46.8111 79.1262 47.1444C79.3339 47.4733 79.4378 47.892 79.4378 48.4007Z" fill="white"/>
<mask id="mask0_22_468" style="mask-type:luminance" maskUnits="userSpaceOnUse" x="20" y="41" width="60" height="11">
<path d="M79.6381 41.0815H20.3621V51.1836H79.6381V41.0815Z" fill="white"/>
<path d="M26.7034 48.4007C26.7034 48.9707 26.5599 49.4574 26.2726 49.8605C25.9898 50.2597 25.5921 50.5643 25.0796 50.7749C24.567 50.9852 23.9638 51.0905 23.2701 51.0905C22.9032 51.0905 22.5564 51.073 22.2294 51.038C21.9024 51.0028 21.6019 50.9525 21.3279 50.8867C21.054 50.8209 20.8131 50.7396 20.6055 50.6433V49.5712C20.9369 49.7072 21.3412 49.8343 21.8184 49.9528C22.2957 50.0666 22.795 50.1237 23.3165 50.1237C23.8025 50.1237 24.2133 50.0601 24.5493 49.9331C24.8851 49.8015 25.1391 49.6152 25.3115 49.3739C25.4882 49.1285 25.5767 48.8346 25.5767 48.4927C25.5767 48.1639 25.5038 47.8898 25.3579 47.6707C25.2122 47.4468 24.969 47.2452 24.6287 47.0654C24.293 46.8813 23.8335 46.6863 23.2502 46.4802C22.8391 46.3354 22.4768 46.1776 22.1631 46.0065C21.8494 45.8312 21.5864 45.6339 21.3743 45.4148C21.1622 45.1954 21.0009 44.9411 20.8905 44.6517C20.7844 44.3623 20.7314 44.0314 20.7314 43.6586C20.7314 43.1456 20.8618 42.7072 21.1225 42.3433C21.3876 41.9749 21.7521 41.6943 22.2161 41.5014C22.6846 41.3041 23.2215 41.2056 23.8267 41.2056C24.3439 41.2056 24.821 41.2538 25.2586 41.3501C25.7004 41.4467 26.1047 41.576 26.4715 41.7383L26.1201 42.6984C25.771 42.5539 25.4 42.4331 25.0066 42.3368C24.6179 42.2402 24.2156 42.192 23.8002 42.192C23.3848 42.192 23.0337 42.2535 22.7464 42.3763C22.4636 42.4946 22.2471 42.6634 22.0968 42.8825C21.9466 43.1018 21.8715 43.3627 21.8715 43.6653C21.8715 44.0029 21.9422 44.2835 22.0836 44.5071C22.2294 44.7307 22.4592 44.9303 22.7728 45.1056C23.0909 45.2767 23.5109 45.4563 24.0323 45.6449C24.6023 45.8509 25.0862 46.0703 25.4839 46.3026C25.8814 46.5305 26.1842 46.8111 26.3918 47.1444C26.5995 47.4733 26.7034 47.892 26.7034 48.4007ZM41.731 41.3436L39.1394 50.959H38.0059L36.0837 44.4874C36.0262 44.3033 35.971 44.119 35.9181 43.9349C35.8694 43.7463 35.8231 43.5688 35.779 43.4022C35.7346 43.2311 35.6971 43.0821 35.6663 42.955C35.6396 42.8235 35.6197 42.7247 35.6066 42.6589C35.5977 42.7247 35.5801 42.8212 35.5534 42.9483C35.5314 43.0756 35.5004 43.2224 35.4606 43.389C35.4253 43.5555 35.3812 43.7331 35.328 43.9217C35.2796 44.1102 35.2265 44.3011 35.169 44.4939L33.3 50.959H32.1665L29.5948 41.3436H30.7679L32.3256 47.3745C32.3785 47.5764 32.4271 47.7757 32.4713 47.973C32.5199 48.1661 32.562 48.3544 32.5973 48.5388C32.6371 48.7228 32.6724 48.9027 32.7034 49.078C32.7344 49.2533 32.7629 49.4244 32.7896 49.5909C32.8115 49.4201 32.8403 49.2425 32.8758 49.0582C32.9111 48.8697 32.9486 48.6791 32.9885 48.486C33.0326 48.2932 33.079 48.0981 33.1276 47.9008C33.1805 47.7034 33.2357 47.5061 33.2932 47.3088L35.0364 41.3436H36.1964L38.0127 47.3548C38.0744 47.5609 38.1319 47.7647 38.1848 47.9665C38.238 48.1681 38.2844 48.3654 38.3242 48.5585C38.3683 48.7469 38.4059 48.9289 38.4369 49.1042C38.4722 49.2753 38.5032 49.4376 38.5296 49.5909C38.5606 49.3761 38.5982 49.1503 38.6423 48.9137C38.6864 48.6768 38.7373 48.429 38.7948 48.1704C38.8566 47.9118 38.9228 47.6442 38.9937 47.368L40.5511 41.3436H41.731ZM50.6937 50.959H45.2984V41.3436H50.6937V42.33H46.4251V45.441H50.4484V46.4144H46.4251V49.9723H50.6937V50.959ZM60.2728 50.959H54.8776V41.3436H60.2728V42.33H56.0043V45.441H60.0276V46.4144H56.0043V49.9723H60.2728V50.959ZM67.4328 50.959H66.2993V42.33H63.2502V41.3436H70.4685V42.33H67.4328V50.959ZM79.4378 48.4007C79.4378 48.9707 79.2941 49.4574 79.007 49.8605C78.7242 50.2597 78.3265 50.5643 77.814 50.7749C77.3013 50.9852 76.6982 51.0905 76.0043 51.0905C75.6376 51.0905 75.2907 51.073 74.9638 51.038C74.6369 51.0028 74.3362 50.9525 74.0622 50.8867C73.7885 50.8209 73.5475 50.7396 73.3398 50.6433V49.5712C73.6713 49.7072 74.0756 49.8343 74.5527 49.9528C75.0301 50.0666 75.5294 50.1237 76.0509 50.1237C76.5369 50.1237 76.9477 50.0601 77.2837 49.9331C77.6194 49.8015 77.8735 49.6152 78.0459 49.3739C78.2226 49.1285 78.3111 48.8346 78.3111 48.4927C78.3111 48.1639 78.238 47.8898 78.0923 47.6707C77.9464 47.4468 77.7034 47.2452 77.3631 47.0654C77.0274 46.8813 76.5679 46.6863 75.9846 46.4802C75.5735 46.3354 75.2113 46.1776 74.8975 46.0065C74.5837 45.8312 74.3208 45.6339 74.1088 45.4148C73.8966 45.1954 73.7353 44.9411 73.6249 44.6517C73.5188 44.3623 73.4658 44.0314 73.4658 43.6586C73.4658 43.1456 73.5961 42.7072 73.8568 42.3433C74.1219 41.9749 74.4864 41.6943 74.9504 41.5014C75.419 41.3041 75.9559 41.2056 76.5611 41.2056C77.0783 41.2056 77.5554 41.2538 77.993 41.3501C78.4348 41.4467 78.8391 41.576 79.2059 41.7383L78.8545 42.6984C78.5054 42.5539 78.1344 42.4331 77.7409 42.3368C77.352 42.2402 76.95 42.192 76.5346 42.192C76.1192 42.192 75.7681 42.2535 75.4808 42.3763C75.198 42.4946 74.9814 42.6634 74.8312 42.8825C74.681 43.1018 74.6059 43.3627 74.6059 43.6653C74.6059 44.0029 74.6765 44.2835 74.8179 44.5071C74.9638 44.7307 75.1934 44.9303 75.5072 45.1056C75.8253 45.2767 76.2452 45.4563 76.7667 45.6449C77.3366 45.8509 77.8206 46.0703 78.2183 46.3026C78.6158 46.5305 78.9185 46.8111 79.1262 47.1444C79.3339 47.4733 79.4378 47.892 79.4378 48.4007Z" fill="black"/>
</mask>
<g mask="url(#mask0_22_468)">
<path d="M20.6055 50.6433H20.5715V50.6646L20.5911 50.6739L20.6055 50.6433ZM20.6055 49.5712L20.6184 49.5402L20.5715 49.5209V49.5712H20.6055ZM21.8184 49.9528L21.8102 49.9853H21.8105L21.8184 49.9528ZM24.5493 49.933L24.5613 49.9645L24.5618 49.9642L24.5493 49.933ZM25.3579 47.6706L25.3294 47.6888L25.3296 47.689L25.3579 47.6706ZM24.6287 47.0654L24.6124 47.095L24.6129 47.0953L24.6287 47.0654ZM23.2502 46.4802L23.2615 46.4485V46.4483L23.2502 46.4802ZM22.1631 46.0065L22.1464 46.0359L22.1468 46.0361L22.1631 46.0065ZM20.8905 44.6517L20.8586 44.6634L20.8588 44.6636L20.8905 44.6517ZM26.4715 41.7383L26.5034 41.7497L26.5142 41.7203L26.4853 41.7075L26.4715 41.7383ZM26.1201 42.6984L26.107 42.7296L26.1398 42.7431L26.152 42.7099L26.1201 42.6984ZM22.7464 42.3763L22.7595 42.4072L22.7597 42.407L22.7464 42.3763ZM22.0836 44.5071L22.0548 44.5249L22.0551 44.5253L22.0836 44.5071ZM22.7728 45.1056L22.7563 45.1348L22.7568 45.1352L22.7728 45.1056ZM25.4839 46.3026L25.4667 46.3315L25.467 46.3318L25.4839 46.3026ZM26.7034 48.4007H26.6695C26.6695 48.9648 26.5274 49.4443 26.2448 49.8412L26.2726 49.8605L26.3004 49.8801C26.5923 49.4701 26.7373 48.9765 26.7373 48.4007H26.7034ZM26.2726 49.8605L26.2448 49.8412C25.9663 50.2343 25.574 50.5353 25.0665 50.7437L25.0796 50.7749L25.0925 50.8059C25.6102 50.5933 26.0133 50.2848 26.3004 49.8801L26.2726 49.8605ZM25.0796 50.7749L25.0665 50.7437C24.559 50.952 23.9604 51.0568 23.2701 51.0568V51.0905V51.1242C23.9672 51.1242 24.5749 51.0184 25.0925 50.8059L25.0796 50.7749ZM23.2701 51.0905V51.0568C22.9043 51.0568 22.5587 51.0393 22.233 51.0043L22.2294 51.038L22.2257 51.0714C22.5541 51.1067 22.9023 51.1242 23.2701 51.1242V51.0905ZM22.2294 51.038L22.233 51.0043C21.9073 50.9695 21.6083 50.9192 21.3359 50.8539L21.3279 50.8867L21.32 50.9194C21.5956 50.9854 21.8975 51.0362 22.2257 51.0714L22.2294 51.038ZM21.3279 50.8867L21.3359 50.8539C21.0637 50.7886 20.8251 50.708 20.6199 50.6128L20.6055 50.6433L20.5911 50.6739C20.8012 50.7713 21.0443 50.8532 21.32 50.9194L21.3279 50.8867ZM20.6055 50.6433H20.6394V49.5712H20.6055H20.5715V50.6433H20.6055ZM20.6055 49.5712L20.5925 49.6024C20.9259 49.7391 21.3319 49.8668 21.8102 49.9853L21.8184 49.9528L21.8267 49.92C21.3505 49.8019 20.9478 49.6753 20.6184 49.5402L20.6055 49.5712ZM21.8184 49.9528L21.8105 49.9853C22.2905 50.1001 22.7925 50.1573 23.3165 50.1573V50.1236V50.09C22.7975 50.09 22.3009 50.0334 21.8264 49.92L21.8184 49.9528ZM23.3165 50.1236V50.1573C23.8052 50.1573 24.2206 50.0936 24.5613 49.9645L24.5493 49.933L24.5371 49.9016C24.2063 50.0269 23.7998 50.09 23.3165 50.09V50.1236ZM24.5493 49.933L24.5618 49.9642C24.9025 49.8309 25.1622 49.641 25.3391 49.3934L25.3115 49.3738L25.2839 49.3543C25.1161 49.5891 24.8681 49.7721 24.5371 49.9016L24.5493 49.933ZM25.3115 49.3738L25.3391 49.3934C25.5206 49.1413 25.6106 48.8407 25.6106 48.4927H25.5767H25.5428C25.5428 48.8286 25.4561 49.1152 25.2839 49.3543L25.3115 49.3738ZM25.5767 48.4927H25.6106C25.6106 48.1589 25.5366 47.8781 25.3862 47.652L25.3579 47.6706L25.3296 47.689C25.471 47.9016 25.5428 48.1688 25.5428 48.4927H25.5767ZM25.3579 47.6706L25.3864 47.6522C25.2364 47.4221 24.988 47.2172 24.6448 47.0358L24.6287 47.0654L24.6129 47.0953C24.95 47.2733 25.1878 47.4717 25.3294 47.6888L25.3579 47.6706ZM24.6287 47.0654L24.6452 47.036C24.307 46.8506 23.8457 46.6548 23.2615 46.4485L23.2502 46.4802L23.2387 46.5118C23.8213 46.7177 24.279 46.9121 24.6124 47.095L24.6287 47.0654ZM23.2502 46.4802L23.2615 46.4483C22.8518 46.3042 22.4913 46.147 22.1795 45.9771L22.1631 46.0065L22.1468 46.0361C22.4624 46.2081 22.8265 46.3668 23.2387 46.5118L23.2502 46.4802ZM22.1631 46.0065L22.1798 45.9773C21.8684 45.8031 21.6083 45.6078 21.3988 45.3914L21.3743 45.4147L21.3499 45.4381C21.5646 45.6599 21.8303 45.8592 22.1464 46.0359L22.1631 46.0065ZM21.3743 45.4147L21.3988 45.3914C21.1899 45.1754 21.0311 44.9251 20.9222 44.6398L20.8905 44.6517L20.8588 44.6636C20.9708 44.9572 21.1345 45.2154 21.3499 45.4381L21.3743 45.4147ZM20.8905 44.6517L20.9224 44.6402C20.8179 44.3551 20.7653 44.0283 20.7653 43.6585H20.7314H20.6975C20.6975 44.0346 20.7509 44.3695 20.8586 44.6634L20.8905 44.6517ZM20.7314 43.6585H20.7653C20.7653 43.1516 20.8941 42.7202 21.1501 42.3628L21.1225 42.3433L21.0949 42.3237C20.8295 42.6941 20.6975 43.1398 20.6975 43.6585H20.7314ZM21.1225 42.3433L21.1501 42.3628C21.4112 42.0002 21.7705 41.7232 22.2292 41.5324L22.2161 41.5014L22.203 41.4704C21.7338 41.6655 21.364 41.9497 21.0949 42.3237L21.1225 42.3433ZM22.2161 41.5014L22.2292 41.5324C22.6928 41.3371 23.2251 41.2392 23.8267 41.2392V41.2055V41.1719C23.2176 41.1719 22.6764 41.2711 22.203 41.4704L22.2161 41.5014ZM23.8267 41.2055V41.2392C24.3416 41.2392 24.8165 41.2873 25.2511 41.3831L25.2586 41.3501L25.2658 41.3173C24.8256 41.2201 24.3459 41.1719 23.8267 41.1719V41.2055ZM25.2586 41.3501L25.2511 41.3831C25.6912 41.4792 26.0932 41.6078 26.4577 41.769L26.4715 41.7383L26.4853 41.7075C26.1163 41.5443 25.7097 41.4141 25.2658 41.3173L25.2586 41.3501ZM26.4715 41.7383L26.4396 41.7268L26.0882 42.687L26.1201 42.6984L26.152 42.7099L26.5034 41.7497L26.4715 41.7383ZM26.1201 42.6984L26.1333 42.6674C25.7823 42.522 25.4097 42.401 25.0147 42.304L25.0066 42.3368L24.9984 42.3693C25.3903 42.4654 25.7597 42.5855 26.107 42.7296L26.1201 42.6984ZM25.0066 42.3368L25.0147 42.304C24.6231 42.207 24.2183 42.1583 23.8002 42.1583V42.192V42.2256C24.2129 42.2256 24.6122 42.2737 24.9984 42.3693L25.0066 42.3368ZM23.8002 42.192V42.1583C23.3817 42.1583 23.0256 42.2202 22.733 42.3453L22.7464 42.3763L22.7597 42.407C23.0416 42.2867 23.388 42.2256 23.8002 42.2256V42.192ZM22.7464 42.3763L22.7333 42.3451C22.4453 42.4656 22.2232 42.6382 22.0688 42.8636L22.0968 42.8825L22.1249 42.9016C22.2709 42.6885 22.4819 42.5235 22.7595 42.4072L22.7464 42.3763ZM22.0968 42.8825L22.0688 42.8636C21.9142 43.0892 21.8375 43.3568 21.8375 43.6653H21.8715H21.9054C21.9054 43.3685 21.979 43.1144 22.1249 42.9016L22.0968 42.8825ZM21.8715 43.6653H21.8375C21.8375 44.0074 21.9092 44.2948 22.0548 44.5249L22.0836 44.5071L22.1123 44.4892C21.9751 44.2723 21.9054 43.9982 21.9054 43.6653H21.8715ZM22.0836 44.5071L22.0551 44.5253C22.2047 44.755 22.4393 44.9577 22.7563 45.1348L22.7728 45.1056L22.7896 45.0762C22.479 44.9027 22.254 44.7065 22.1121 44.4887L22.0836 44.5071ZM22.7728 45.1056L22.7568 45.1352C23.0769 45.3072 23.4984 45.4877 24.0206 45.6765L24.0323 45.6448L24.0439 45.6132C23.5233 45.4251 23.1052 45.2459 22.7891 45.076L22.7728 45.1056ZM24.0323 45.6448L24.0206 45.6765C24.5894 45.8821 25.0713 46.1005 25.4667 46.3315L25.4839 46.3026L25.5011 46.2736C25.1011 46.0399 24.6154 45.8197 24.0439 45.6132L24.0323 45.6448ZM25.4839 46.3026L25.467 46.3318C25.8606 46.5574 26.1588 46.8344 26.3631 47.1622L26.3918 47.1444L26.4208 47.1267C26.2097 46.7879 25.9025 46.5037 25.5009 46.2734L25.4839 46.3026ZM26.3918 47.1444L26.3631 47.1622C26.5665 47.4843 26.6695 47.8962 26.6695 48.4007H26.7034H26.7373C26.7373 47.8875 26.6326 47.4621 26.4206 47.1265L26.3918 47.1444ZM41.731 41.3436L41.7638 41.3524L41.7753 41.3099H41.731V41.3436ZM39.1394 50.959V50.9926H39.1654L39.1722 50.9677L39.1394 50.959ZM38.0059 50.959L37.9733 50.9684L37.9805 50.9926H38.0059V50.959ZM35.9181 43.9349L35.8851 43.9432L35.8855 43.9441L35.9181 43.9349ZM35.779 43.4022L35.7459 43.4105L35.7461 43.4107L35.779 43.4022ZM35.6663 42.955L35.6328 42.9615L35.6333 42.9629L35.6663 42.955ZM35.6066 42.6589L35.6398 42.6524L35.5728 42.6546L35.6066 42.6589ZM35.5534 42.9483L35.5204 42.9415L35.5201 42.9427L35.5534 42.9483ZM35.4606 43.3889L35.4276 43.3813V43.382L35.4606 43.3889ZM35.328 43.9216L35.2955 43.9127L35.2952 43.9133L35.328 43.9216ZM35.169 44.4939L35.1364 44.4844V44.4847L35.169 44.4939ZM33.3 50.959V50.9926H33.3256L33.3326 50.9682L33.3 50.959ZM32.1665 50.959L32.1337 50.9675L32.1403 50.9926H32.1665V50.959ZM29.5948 41.3436V41.3099H29.5507L29.562 41.3521L29.5948 41.3436ZM30.7679 41.3436L30.8007 41.3353L30.7943 41.3099H30.7679V41.3436ZM32.4713 47.973L32.4382 47.9804L32.4385 47.9813L32.4713 47.973ZM32.5973 48.5387L32.564 48.545V48.5457L32.5973 48.5387ZM32.7896 49.5909L32.7561 49.5963L32.8231 49.5952L32.7896 49.5909ZM32.9885 48.486L32.9552 48.4786V48.4792L32.9885 48.486ZM33.1276 47.9007L33.0948 47.892L33.0946 47.8927L33.1276 47.9007ZM33.2932 47.3088L33.2606 47.2993V47.2996L33.2932 47.3088ZM35.0364 41.3436V41.3099H35.0111L35.0038 41.3342L35.0364 41.3436ZM36.1964 41.3436L36.229 41.334L36.2217 41.3099H36.1964V41.3436ZM38.3242 48.5585L38.2909 48.5652V48.5661L38.3242 48.5585ZM38.4369 49.1042L38.4034 49.1101L38.4036 49.111L38.4369 49.1042ZM38.5296 49.5909L38.4961 49.5968L38.5631 49.5956L38.5296 49.5909ZM38.7948 48.1703L38.7618 48.1625L38.7615 48.1632L38.7948 48.1703ZM40.5511 41.3436V41.3099H40.5249L40.5183 41.3353L40.5511 41.3436ZM41.731 41.3436L41.6982 41.3349L39.1066 50.9502L39.1394 50.959L39.1722 50.9677L41.7638 41.3524L41.731 41.3436ZM39.1394 50.959V50.9253H38.0059V50.959V50.9926H39.1394V50.959ZM38.0059 50.959L38.0385 50.9495L36.1163 44.4777L36.0837 44.4874L36.0511 44.4968L37.9733 50.9684L38.0059 50.959ZM36.0837 44.4874L36.1163 44.4777C36.0588 44.2936 36.0036 44.1095 35.9507 43.9257L35.9181 43.9349L35.8855 43.9441C35.9385 44.1286 35.9939 44.3129 36.0514 44.4972L36.0837 44.4874ZM35.9181 43.9349L35.9509 43.9266C35.9023 43.738 35.8559 43.5602 35.8118 43.3937L35.779 43.4022L35.7461 43.4107C35.7903 43.5773 35.8366 43.7549 35.8851 43.9432L35.9181 43.9349ZM35.779 43.4022L35.8118 43.3937C35.7676 43.2226 35.7301 43.074 35.6991 42.9471L35.6663 42.955L35.6333 42.9629C35.6642 43.0901 35.7018 43.2394 35.7459 43.4105L35.779 43.4022ZM35.6663 42.955L35.6995 42.9483C35.6993 42.948 35.6993 42.9478 35.6993 42.9476C35.6993 42.9474 35.6991 42.9471 35.6991 42.9467C35.6991 42.9465 35.6991 42.9462 35.6991 42.946C35.6989 42.9458 35.6989 42.9456 35.6989 42.9453C35.6989 42.9449 35.6986 42.9447 35.6986 42.9444C35.6986 42.9442 35.6986 42.944 35.6986 42.9438C35.6984 42.9435 35.6984 42.9431 35.6984 42.9429C35.6984 42.9427 35.6982 42.9424 35.6982 42.9422C35.6982 42.942 35.6982 42.9418 35.698 42.9415C35.698 42.9411 35.698 42.9409 35.698 42.9406C35.698 42.9404 35.6977 42.9402 35.6977 42.94C35.6977 42.9397 35.6977 42.9393 35.6975 42.9391C35.6975 42.9388 35.6975 42.9386 35.6975 42.9384C35.6975 42.9382 35.6973 42.9379 35.6973 42.9377C35.6973 42.9373 35.6973 42.937 35.6971 42.9368C35.6971 42.9366 35.6971 42.9364 35.6971 42.9361C35.6968 42.9359 35.6968 42.9357 35.6968 42.9352C35.6968 42.935 35.6968 42.9348 35.6966 42.9346C35.6966 42.9343 35.6966 42.9341 35.6966 42.9339C35.6964 42.9337 35.6964 42.9332 35.6964 42.933C35.6964 42.9328 35.6964 42.9325 35.6961 42.9323C35.6961 42.9321 35.6961 42.9319 35.6961 42.9317C35.6959 42.9312 35.6959 42.931 35.6959 42.9308C35.6959 42.9305 35.6959 42.9303 35.6957 42.9301C35.6957 42.9299 35.6957 42.9296 35.6957 42.9294C35.6955 42.929 35.6955 42.9287 35.6955 42.9285C35.6955 42.9283 35.6955 42.9281 35.6952 42.9278C35.6952 42.9276 35.6952 42.9274 35.6952 42.9269C35.695 42.9267 35.695 42.9265 35.695 42.9263C35.695 42.926 35.695 42.9258 35.6948 42.9256C35.6948 42.9254 35.6948 42.9251 35.6948 42.9247C35.6946 42.9245 35.6946 42.9242 35.6946 42.924C35.6946 42.9238 35.6946 42.9236 35.6943 42.9233C35.6943 42.9231 35.6943 42.9229 35.6943 42.9224C35.6941 42.9222 35.6941 42.922 35.6941 42.9218C35.6941 42.9215 35.6941 42.9213 35.6939 42.9211C35.6939 42.9209 35.6939 42.9207 35.6939 42.9204C35.6937 42.92 35.6937 42.9198 35.6937 42.9195C35.6937 42.9193 35.6937 42.9191 35.6934 42.9189C35.6934 42.9186 35.6934 42.9184 35.6934 42.9182C35.6932 42.918 35.6932 42.9175 35.6932 42.9173C35.6932 42.9171 35.6932 42.9168 35.693 42.9166C35.693 42.9164 35.693 42.9162 35.693 42.9159C35.6928 42.9157 35.6928 42.9155 35.6928 42.915C35.6928 42.9148 35.6928 42.9146 35.6925 42.9144C35.6925 42.9141 35.6925 42.9139 35.6925 42.9137C35.6925 42.9135 35.6923 42.9132 35.6923 42.913C35.6923 42.9128 35.6923 42.9123 35.6921 42.9121C35.6921 42.9119 35.6921 42.9117 35.6921 42.9114C35.6921 42.9112 35.6918 42.911 35.6918 42.9108C35.6918 42.9105 35.6919 42.9103 35.6916 42.9101C35.6916 42.9096 35.6916 42.9094 35.6916 42.9092C35.6916 42.909 35.6914 42.9088 35.6914 42.9085C35.6914 42.9083 35.6914 42.9081 35.6914 42.9079C35.6912 42.9076 35.6912 42.9074 35.6912 42.9072C35.6912 42.9067 35.6909 42.9065 35.6909 42.9063C35.6909 42.9061 35.6909 42.9058 35.6909 42.9056C35.6907 42.9054 35.6907 42.9052 35.6907 42.9049C35.6907 42.9047 35.6905 42.9045 35.6905 42.9043C35.6905 42.9038 35.6905 42.9036 35.6905 42.9034C35.6903 42.9031 35.6903 42.9029 35.6903 42.9027C35.6903 42.9025 35.6903 42.9022 35.69 42.902C35.69 42.9018 35.69 42.9016 35.69 42.9013C35.6898 42.9011 35.6898 42.9007 35.6898 42.9004C35.6898 42.9002 35.6898 42.9 35.6896 42.8998C35.6896 42.8995 35.6896 42.8993 35.6896 42.8991C35.6896 42.8989 35.6894 42.8986 35.6894 42.8984C35.6894 42.8982 35.6894 42.898 35.6891 42.8978C35.6891 42.8975 35.6891 42.8971 35.6891 42.8969C35.6891 42.8966 35.6889 42.8964 35.6889 42.8962C35.6889 42.896 35.6889 42.8957 35.6889 42.8955C35.6887 42.8953 35.6887 42.8951 35.6887 42.8948C35.6887 42.8946 35.6885 42.8944 35.6885 42.8942C35.6885 42.8939 35.6885 42.8935 35.6885 42.8933C35.6882 42.893 35.6882 42.8928 35.6882 42.8926C35.6882 42.8924 35.6882 42.8921 35.688 42.8919C35.688 42.8917 35.688 42.8915 35.688 42.8912C35.688 42.891 35.6878 42.8908 35.6878 42.8906C35.6878 42.8903 35.6878 42.8901 35.6876 42.8899C35.6876 42.8894 35.6876 42.8892 35.6876 42.889C35.6876 42.8888 35.6873 42.8885 35.6873 42.8883C35.6873 42.8881 35.6873 42.8879 35.6873 42.8877C35.6871 42.8874 35.6871 42.8872 35.6871 42.887C35.6871 42.8868 35.6871 42.8865 35.6869 42.8863C35.6869 42.8861 35.6869 42.8859 35.6869 42.8856C35.6866 42.8854 35.6866 42.885 35.6866 42.8847C35.6866 42.8845 35.6866 42.8843 35.6864 42.8841C35.6864 42.8838 35.6864 42.8836 35.6864 42.8834C35.6864 42.8832 35.6862 42.8829 35.6862 42.8827C35.6862 42.8825 35.6862 42.8823 35.6862 42.882C35.686 42.8818 35.686 42.8816 35.686 42.8814C35.686 42.8811 35.6857 42.8809 35.6857 42.8807C35.6857 42.8805 35.6857 42.8802 35.6857 42.8798C35.6855 42.8796 35.6855 42.8793 35.6855 42.8791C35.6855 42.8789 35.6855 42.8787 35.6853 42.8784C35.6853 42.8782 35.6853 42.878 35.6853 42.8778C35.6853 42.8775 35.6851 42.8773 35.6851 42.8771C35.6851 42.8769 35.6851 42.8767 35.6851 42.8764C35.6848 42.8762 35.6848 42.876 35.6848 42.8758C35.6848 42.8755 35.6848 42.8753 35.6846 42.8751C35.6846 42.8749 35.6846 42.8746 35.6846 42.8744C35.6844 42.8742 35.6844 42.874 35.6844 42.8737C35.6844 42.8735 35.6844 42.8731 35.6842 42.8728C35.6842 42.8726 35.6842 42.8724 35.6842 42.8722C35.6842 42.8719 35.6839 42.8717 35.6839 42.8715C35.6839 42.8713 35.6839 42.871 35.6839 42.8708C35.6837 42.8706 35.6837 42.8704 35.6837 42.8701C35.6837 42.8699 35.6837 42.8697 35.6835 42.8695C35.6835 42.8692 35.6835 42.869 35.6835 42.8688C35.6835 42.8686 35.6833 42.8683 35.6833 42.8681C35.6833 42.8679 35.6833 42.8677 35.6833 42.8674C35.683 42.8672 35.683 42.867 35.683 42.8668C35.683 42.8665 35.683 42.8663 35.6828 42.8661C35.6828 42.8659 35.6828 42.8657 35.6828 42.8654C35.6826 42.8652 35.6826 42.865 35.6826 42.8648C35.6826 42.8645 35.6826 42.8643 35.6823 42.8641C35.6823 42.8639 35.6823 42.8636 35.6823 42.8634C35.6823 42.8632 35.6821 42.863 35.6821 42.8627C35.6821 42.8623 35.6821 42.8621 35.6821 42.8618C35.6819 42.8616 35.6819 42.8614 35.6819 42.8612C35.6819 42.8609 35.6819 42.8607 35.6817 42.8605C35.6817 42.8603 35.6817 42.86 35.6817 42.8598C35.6817 42.8596 35.6814 42.8594 35.6814 42.8591C35.6814 42.8589 35.6814 42.8587 35.6814 42.8585C35.6812 42.8582 35.6812 42.858 35.6812 42.8578C35.6812 42.8576 35.6812 42.8573 35.681 42.8571C35.681 42.8569 35.681 42.8567 35.681 42.8564C35.681 42.8562 35.6808 42.856 35.6808 42.8558C35.6808 42.8556 35.6808 42.8553 35.6808 42.8551C35.6805 42.8549 35.6805 42.8546 35.6805 42.8544C35.6805 42.8542 35.6805 42.854 35.6803 42.8538C35.6803 42.8535 35.6803 42.8533 35.6803 42.8531C35.6803 42.8529 35.6801 42.8526 35.6801 42.8524C35.6801 42.8522 35.6801 42.852 35.6801 42.8517C35.6799 42.8515 35.6799 42.8513 35.6799 42.8511C35.6799 42.8508 35.6799 42.8506 35.6796 42.8504C35.6796 42.8502 35.6796 42.8499 35.6796 42.8497C35.6796 42.8495 35.6794 42.8493 35.6794 42.849C35.6794 42.8488 35.6794 42.8486 35.6794 42.8484C35.6792 42.8481 35.6792 42.8479 35.6792 42.8477C35.6792 42.8477 35.6792 42.8475 35.679 42.8472C35.679 42.847 35.679 42.8468 35.679 42.8466C35.679 42.8463 35.6787 42.8461 35.6787 42.8459C35.6787 42.8457 35.6787 42.8454 35.6787 42.8452C35.6785 42.845 35.6785 42.8448 35.6785 42.8445C35.6785 42.8443 35.6785 42.8441 35.6785 42.8439C35.6783 42.8437 35.6783 42.8434 35.6783 42.8432C35.6783 42.843 35.6783 42.8428 35.6781 42.8425C35.6781 42.8423 35.6781 42.8421 35.6781 42.8419C35.6781 42.8416 35.6778 42.8414 35.6778 42.8412C35.6778 42.841 35.6778 42.8407 35.6778 42.8405C35.6776 42.8403 35.6776 42.8401 35.6776 42.8398C35.6776 42.8396 35.6776 42.8394 35.6774 42.8392C35.6774 42.8389 35.6774 42.8387 35.6774 42.8385C35.6774 42.8383 35.6771 42.838 35.6771 42.8378C35.6771 42.8376 35.6771 42.8374 35.6771 42.8371C35.6769 42.8371 35.6769 42.8369 35.6769 42.8367C35.6769 42.8365 35.6769 42.8362 35.6767 42.836C35.6767 42.8358 35.6767 42.8356 35.6767 42.8353C35.6767 42.8351 35.6767 42.8349 35.6765 42.8347C35.6765 42.8344 35.6765 42.8342 35.6765 42.834C35.6765 42.8338 35.6762 42.8335 35.6762 42.8333C35.6762 42.8331 35.6762 42.8329 35.6762 42.8326C35.676 42.8324 35.676 42.8322 35.676 42.832C35.676 42.8318 35.676 42.8315 35.6758 42.8313C35.6758 42.8311 35.6758 42.8311 35.6758 42.8309C35.6758 42.8306 35.6756 42.8304 35.6756 42.8302C35.6756 42.83 35.6756 42.8297 35.6756 42.8295C35.6756 42.8293 35.6753 42.8291 35.6753 42.8288C35.6753 42.8286 35.6753 42.8284 35.6753 42.8282C35.6751 42.8279 35.6751 42.8277 35.6751 42.8275C35.6751 42.8273 35.6751 42.827 35.6749 42.8268C35.6749 42.8266 35.6749 42.8264 35.6749 42.8264C35.6749 42.8261 35.6747 42.8259 35.6747 42.8257C35.6747 42.8255 35.6747 42.8252 35.6747 42.825C35.6747 42.8248 35.6744 42.8246 35.6744 42.8243C35.6744 42.8241 35.6744 42.8239 35.6744 42.8237C35.6742 42.8234 35.6742 42.8232 35.6742 42.823C35.6742 42.8228 35.6742 42.8225 35.674 42.8223C35.674 42.8223 35.674 42.8221 35.674 42.8219C35.674 42.8217 35.674 42.8214 35.6737 42.8212C35.6737 42.821 35.6737 42.8208 35.6737 42.8205C35.6737 42.8203 35.6735 42.8201 35.6735 42.8199C35.6735 42.8196 35.6735 42.8194 35.6735 42.8192C35.6733 42.819 35.6733 42.8187 35.6733 42.8187C35.6733 42.8185 35.6733 42.8183 35.6733 42.8181C35.6731 42.8178 35.6731 42.8176 35.6731 42.8174C35.6731 42.8172 35.6731 42.8169 35.6728 42.8167C35.6728 42.8165 35.6728 42.8163 35.6728 42.816C35.6728 42.8158 35.6726 42.8156 35.6726 42.8154C35.6726 42.8154 35.6726 42.8151 35.6726 42.8149C35.6726 42.8147 35.6724 42.8145 35.6724 42.8142C35.6724 42.814 35.6724 42.8138 35.6724 42.8136C35.6722 42.8133 35.6722 42.8131 35.6722 42.8129C35.6722 42.8127 35.6722 42.8124 35.6719 42.8124C35.6719 42.8122 35.6719 42.812 35.6719 42.8118C35.6719 42.8115 35.6719 42.8113 35.6717 42.8111C35.6717 42.8109 35.6717 42.8106 35.6717 42.8104C35.6717 42.8102 35.6715 42.81 35.6715 42.8098C35.6715 42.8098 35.6715 42.8095 35.6715 42.8093C35.6715 42.8091 35.6713 42.8089 35.6713 42.8086C35.6713 42.8084 35.6713 42.8082 35.6713 42.808C35.671 42.8077 35.671 42.8075 35.671 42.8073C35.671 42.8073 35.671 42.8071 35.6708 42.8068C35.6708 42.8066 35.6708 42.8064 35.6708 42.8062C35.6708 42.8059 35.6708 42.8057 35.6706 42.8055C35.6706 42.8053 35.6706 42.805 35.6706 42.8048C35.6706 42.8048 35.6704 42.8046 35.6704 42.8044C35.6704 42.8041 35.6704 42.8039 35.6704 42.8037C35.6704 42.8035 35.6701 42.8032 35.6701 42.803C35.6701 42.8028 35.6701 42.8026 35.6701 42.8026C35.6699 42.8023 35.6699 42.8021 35.6699 42.8019C35.6699 42.8017 35.6699 42.8014 35.6699 42.8012C35.6697 42.801 35.6697 42.8008 35.6697 42.8005C35.6697 42.8003 35.6697 42.8003 35.6695 42.8001C35.6695 42.7999 35.6695 42.7997 35.6695 42.7994C35.6695 42.7992 35.6695 42.799 35.6692 42.7988C35.6692 42.7985 35.6692 42.7983 35.6692 42.7983C35.6692 42.7981 35.6692 42.7979 35.669 42.7976C35.669 42.7974 35.669 42.7972 35.669 42.797C35.669 42.7967 35.6688 42.7965 35.6688 42.7963C35.6688 42.7963 35.6688 42.7961 35.6688 42.7958C35.6688 42.7956 35.6685 42.7954 35.6685 42.7952C35.6685 42.7949 35.6685 42.7947 35.6685 42.7945C35.6683 42.7943 35.6683 42.7943 35.6683 42.794C35.6683 42.7938 35.6683 42.7936 35.6683 42.7934C35.6681 42.7931 35.6681 42.7929 35.6681 42.7927C35.6681 42.7925 35.6681 42.7925 35.6679 42.7922C35.6679 42.792 35.6679 42.7918 35.6679 42.7916C35.6679 42.7913 35.6679 42.7911 35.6676 42.7909C35.6676 42.7907 35.6676 42.7907 35.6676 42.7904C35.6676 42.7902 35.6676 42.79 35.6674 42.7898C35.6674 42.7895 35.6674 42.7893 35.6674 42.7891C35.6674 42.7889 35.6672 42.7889 35.6672 42.7886C35.6672 42.7884 35.6672 42.7882 35.6672 42.788C35.6672 42.7878 35.667 42.7875 35.667 42.7873C35.667 42.7873 35.667 42.7871 35.667 42.7869C35.667 42.7866 35.6667 42.7864 35.6667 42.7862C35.6667 42.786 35.6667 42.7857 35.6667 42.7857C35.6665 42.7855 35.6665 42.7853 35.6665 42.7851C35.6665 42.7848 35.6665 42.7846 35.6665 42.7844C35.6663 42.7842 35.6663 42.7839 35.6663 42.7839C35.6663 42.7837 35.6663 42.7835 35.6663 42.7833C35.6661 42.783 35.6661 42.7828 35.6661 42.7826C35.6661 42.7826 35.6661 42.7824 35.6661 42.7821C35.6658 42.7819 35.6658 42.7817 35.6658 42.7815C35.6658 42.7812 35.6658 42.781 35.6656 42.781C35.6656 42.7808 35.6656 42.7806 35.6656 42.7803C35.6656 42.7801 35.6656 42.7799 35.6654 42.7797C35.6654 42.7794 35.6654 42.7794 35.6654 42.7792C35.6654 42.779 35.6654 42.7788 35.6652 42.7785C35.6652 42.7783 35.6652 42.7781 35.6652 42.7781C35.6652 42.7779 35.6652 42.7776 35.6649 42.7774C35.6649 42.7772 35.6649 42.777 35.6649 42.7768C35.6649 42.7768 35.6647 42.7765 35.6647 42.7763C35.6647 42.7761 35.6647 42.7759 35.6647 42.7756C35.6647 42.7754 35.6645 42.7754 35.6645 42.7752C35.6645 42.775 35.6645 42.7747 35.6645 42.7745C35.6645 42.7743 35.6642 42.7741 35.6642 42.7741C35.6642 42.7738 35.6642 42.7736 35.6642 42.7734C35.6642 42.7732 35.664 42.7729 35.664 42.7727C35.664 42.7727 35.664 42.7725 35.664 42.7723C35.664 42.772 35.6638 42.7718 35.6638 42.7716C35.6638 42.7714 35.6638 42.7714 35.6638 42.7711C35.6638 42.7709 35.6636 42.7707 35.6636 42.7705C35.6636 42.7702 35.6636 42.7702 35.6636 42.77C35.6636 42.7698 35.6633 42.7696 35.6633 42.7693C35.6633 42.7691 35.6633 42.7689 35.6633 42.7689C35.6633 42.7687 35.6631 42.7684 35.6631 42.7682C35.6631 42.768 35.6631 42.7678 35.6631 42.7678C35.6629 42.7675 35.6629 42.7673 35.6629 42.7671C35.6629 42.7669 35.6629 42.7666 35.6629 42.7664C35.6627 42.7664 35.6627 42.7662 35.6627 42.766C35.6627 42.7658 35.6627 42.7655 35.6627 42.7653C35.6624 42.7653 35.6624 42.7651 35.6624 42.7649C35.6624 42.7646 35.6624 42.7644 35.6624 42.7642C35.6622 42.7642 35.6622 42.764 35.6622 42.7637C35.6622 42.7635 35.6622 42.7633 35.6622 42.7631C35.662 42.7631 35.662 42.7628 35.662 42.7626C35.662 42.7624 35.662 42.7622 35.662 42.7619C35.6618 42.7619 35.6618 42.7617 35.6618 42.7615C35.6618 42.7613 35.6618 42.761 35.6618 42.7608C35.6615 42.7608 35.6615 42.7606 35.6615 42.7604C35.6615 42.7601 35.6615 42.7599 35.6615 42.7597C35.6613 42.7597 35.6613 42.7595 35.6613 42.7592C35.6613 42.759 35.6613 42.7588 35.6613 42.7588C35.6611 42.7586 35.6611 42.7583 35.6611 42.7581C35.6611 42.7579 35.6611 42.7577 35.6611 42.7577C35.6611 42.7574 35.6609 42.7572 35.6609 42.757C35.6609 42.7568 35.6609 42.7565 35.6609 42.7565C35.6609 42.7563 35.6606 42.7561 35.6606 42.7559C35.6606 42.7557 35.6606 42.7557 35.6606 42.7554C35.6606 42.7552 35.6604 42.755 35.6604 42.7548C35.6604 42.7545 35.6604 42.7545 35.6604 42.7543C35.6604 42.7541 35.6602 42.7539 35.6602 42.7536C35.6602 42.7536 35.6602 42.7534 35.6602 42.7532C35.6602 42.753 35.66 42.7527 35.66 42.7525C35.66 42.7525 35.66 42.7523 35.66 42.7521C35.66 42.7518 35.6597 42.7516 35.6597 42.7516C35.6597 42.7514 35.6597 42.7512 35.6597 42.7509C35.6597 42.7507 35.6595 42.7507 35.6595 42.7505C35.6595 42.7503 35.6595 42.75 35.6595 42.7498C35.6595 42.7498 35.6595 42.7496 35.6593 42.7494C35.6593 42.7491 35.6593 42.7489 35.6593 42.7489C35.6593 42.7487 35.6593 42.7485 35.659 42.7482C35.659 42.748 35.659 42.7478 35.659 42.7478C35.659 42.7476 35.659 42.7473 35.6588 42.7471C35.6588 42.7469 35.6588 42.7469 35.6588 42.7467C35.6588 42.7464 35.6588 42.7462 35.6586 42.746C35.6586 42.746 35.6586 42.7458 35.6586 42.7455C35.6586 42.7453 35.6586 42.7451 35.6584 42.7451C35.6584 42.7449 35.6584 42.7447 35.6584 42.7444C35.6584 42.7444 35.6584 42.7442 35.6584 42.744C35.6581 42.7438 35.6581 42.7435 35.6581 42.7435C35.6581 42.7433 35.6581 42.7431 35.6581 42.7429C35.6579 42.7426 35.6579 42.7426 35.6579 42.7424C35.6579 42.7422 35.6579 42.742 35.6579 42.7417C35.6577 42.7417 35.6577 42.7415 35.6577 42.7413C35.6577 42.7411 35.6577 42.7408 35.6577 42.7408C35.6577 42.7406 35.6575 42.7404 35.6575 42.7402C35.6575 42.7402 35.6575 42.7399 35.6575 42.7397C35.6575 42.7395 35.6572 42.7393 35.6572 42.7393C35.6572 42.739 35.6572 42.7388 35.6572 42.7386C35.6572 42.7384 35.657 42.7384 35.657 42.7381C35.657 42.7379 35.657 42.7377 35.657 42.7377C35.657 42.7375 35.657 42.7372 35.6568 42.737C35.6568 42.7368 35.6568 42.7368 35.6568 42.7366C35.6568 42.7363 35.6568 42.7361 35.6566 42.7361C35.6566 42.7359 35.6566 42.7357 35.6566 42.7354C35.6566 42.7352 35.6566 42.7352 35.6566 42.735C35.6563 42.7348 35.6563 42.7345 35.6563 42.7345C35.6563 42.7343 35.6563 42.7341 35.6563 42.7339C35.6561 42.7336 35.6561 42.7336 35.6561 42.7334C35.6561 42.7332 35.6561 42.733 35.6561 42.733C35.6561 42.7328 35.6559 42.7325 35.6559 42.7323C35.6559 42.7323 35.6559 42.7321 35.6559 42.7319C35.6559 42.7316 35.6557 42.7314 35.6557 42.7314C35.6557 42.7312 35.6557 42.731 35.6557 42.7307C35.6557 42.7307 35.6557 42.7305 35.6554 42.7303C35.6554 42.7301 35.6554 42.7301 35.6554 42.7298C35.6554 42.7296 35.6554 42.7294 35.6552 42.7292C35.6552 42.7292 35.6552 42.7289 35.6552 42.7287C35.6552 42.7285 35.6552 42.7285 35.6552 42.7283C35.655 42.728 35.655 42.7278 35.655 42.7278C35.655 42.7276 35.655 42.7274 35.655 42.7271C35.6547 42.7271 35.6547 42.7269 35.6547 42.7267C35.6547 42.7265 35.6547 42.7265 35.6547 42.7262C35.6547 42.726 35.6545 42.7258 35.6545 42.7258C35.6545 42.7256 35.6545 42.7253 35.6545 42.7251C35.6545 42.7251 35.6545 42.7249 35.6543 42.7247C35.6543 42.7244 35.6543 42.7244 35.6543 42.7242C35.6543 42.724 35.6543 42.7238 35.6541 42.7235C35.6541 42.7235 35.6541 42.7233 35.6541 42.7231C35.6541 42.7229 35.6541 42.7229 35.6541 42.7227C35.6538 42.7224 35.6538 42.7224 35.6538 42.7222C35.6538 42.722 35.6538 42.7218 35.6538 42.7218C35.6538 42.7215 35.6536 42.7213 35.6536 42.7211C35.6536 42.7211 35.6536 42.7209 35.6536 42.7206C35.6536 42.7204 35.6534 42.7204 35.6534 42.7202C35.6534 42.72 35.6534 42.7197 35.6534 42.7197C35.6534 42.7195 35.6534 42.7193 35.6532 42.7191C35.6532 42.7191 35.6532 42.7188 35.6532 42.7186C35.6532 42.7184 35.6532 42.7184 35.6532 42.7182C35.6529 42.7179 35.6529 42.7177 35.6529 42.7177C35.6529 42.7175 35.6529 42.7173 35.6529 42.717C35.6529 42.717 35.6527 42.7168 35.6527 42.7166C35.6527 42.7166 35.6527 42.7164 35.6527 42.7161C35.6527 42.7159 35.6525 42.7159 35.6525 42.7157C35.6525 42.7155 35.6525 42.7152 35.6525 42.7152C35.6525 42.715 35.6525 42.7148 35.6523 42.7146C35.6523 42.7146 35.6523 42.7143 35.6523 42.7141C35.6523 42.7141 35.6523 42.7139 35.6523 42.7137C35.652 42.7134 35.652 42.7134 35.652 42.7132C35.652 42.713 35.652 42.7128 35.652 42.7128C35.652 42.7125 35.6518 42.7123 35.6518 42.7123C35.6518 42.7121 35.6518 42.7119 35.6518 42.7116C35.6518 42.7116 35.6518 42.7114 35.6516 42.7112C35.6516 42.711 35.6516 42.711 35.6516 42.7108C35.6516 42.7105 35.6516 42.7105 35.6516 42.7103C35.6514 42.7101 35.6514 42.7099 35.6514 42.7099C35.6514 42.7096 35.6514 42.7094 35.6514 42.7094C35.6514 42.7092 35.6511 42.709 35.6511 42.7087C35.6511 42.7087 35.6511 42.7085 35.6511 42.7083C35.6511 42.7083 35.6511 42.7081 35.6509 42.7078C35.6509 42.7076 35.6509 42.7076 35.6509 42.7074C35.6509 42.7072 35.6509 42.7072 35.6509 42.7069C35.6507 42.7067 35.6507 42.7065 35.6507 42.7065C35.6507 42.7063 35.6507 42.706 35.6507 42.706C35.6507 42.7058 35.6504 42.7056 35.6504 42.7054C35.6504 42.7054 35.6504 42.7051 35.6504 42.7049C35.6504 42.7049 35.6504 42.7047 35.6502 42.7045C35.6502 42.7042 35.6502 42.7042 35.6502 42.704C35.6502 42.7038 35.6502 42.7038 35.6502 42.7036C35.65 42.7033 35.65 42.7033 35.65 42.7031C35.65 42.7029 35.65 42.7027 35.65 42.7027C35.65 42.7024 35.6498 42.7022 35.6498 42.7022C35.6498 42.702 35.6498 42.7018 35.6498 42.7018C35.6498 42.7015 35.6498 42.7013 35.6495 42.7011C35.6495 42.7011 35.6495 42.7009 35.6495 42.7007C35.6495 42.7007 35.6495 42.7004 35.6495 42.7002C35.6493 42.7002 35.6493 42.7 35.6493 42.6998C35.6493 42.6995 35.6493 42.6995 35.6493 42.6993C35.6493 42.6991 35.6491 42.6991 35.6491 42.6989C35.6491 42.6986 35.6491 42.6986 35.6491 42.6984C35.6491 42.6982 35.6491 42.698 35.6491 42.698C35.6489 42.6977 35.6489 42.6975 35.6489 42.6975C35.6489 42.6973 35.6489 42.6971 35.6489 42.6971C35.6489 42.6968 35.6486 42.6966 35.6486 42.6966C35.6486 42.6964 35.6486 42.6962 35.6486 42.6962C35.6486 42.6959 35.6486 42.6957 35.6484 42.6955C35.6484 42.6955 35.6484 42.6953 35.6484 42.695C35.6484 42.695 35.6484 42.6948 35.6484 42.6946C35.6482 42.6946 35.6482 42.6944 35.6482 42.6941C35.6482 42.6941 35.6482 42.6939 35.6482 42.6937C35.6482 42.6937 35.6482 42.6935 35.648 42.6932C35.648 42.6932 35.648 42.693 35.648 42.6928C35.648 42.6926 35.648 42.6926 35.648 42.6923C35.6477 42.6921 35.6477 42.6921 35.6477 42.6919C35.6477 42.6917 35.6477 42.6917 35.6477 42.6914C35.6477 42.6912 35.6477 42.6912 35.6475 42.691C35.6475 42.6908 35.6475 42.6908 35.6475 42.6905C35.6475 42.6903 35.6475 42.6903 35.6475 42.6901C35.6473 42.6899 35.6473 42.6899 35.6473 42.6897C35.6473 42.6894 35.6473 42.6894 35.6473 42.6892C35.6473 42.689 35.6471 42.689 35.6471 42.6888C35.6471 42.6885 35.6471 42.6885 35.6471 42.6883C35.6471 42.6881 35.6471 42.6881 35.6471 42.6879C35.6468 42.6876 35.6468 42.6876 35.6468 42.6874C35.6468 42.6872 35.6468 42.6872 35.6468 42.687C35.6468 42.6867 35.6466 42.6867 35.6466 42.6865C35.6466 42.6863 35.6466 42.6863 35.6466 42.6861C35.6466 42.6858 35.6466 42.6858 35.6466 42.6856C35.6464 42.6854 35.6464 42.6854 35.6464 42.6852C35.6464 42.6849 35.6464 42.6849 35.6464 42.6847C35.6464 42.6845 35.6464 42.6845 35.6461 42.6843C35.6461 42.684 35.6461 42.684 35.6461 42.6838C35.6461 42.6836 35.6461 42.6836 35.6461 42.6834C35.6459 42.6831 35.6459 42.6831 35.6459 42.6829C35.6459 42.6827 35.6459 42.6827 35.6459 42.6825C35.6459 42.6825 35.6459 42.6822 35.6457 42.682C35.6457 42.682 35.6457 42.6818 35.6457 42.6816C35.6457 42.6816 35.6457 42.6813 35.6457 42.6811C35.6455 42.6811 35.6455 42.6809 35.6455 42.6807C35.6455 42.6807 35.6455 42.6804 35.6455 42.6802C35.6455 42.6802 35.6455 42.68 35.6452 42.6798C35.6452 42.6795 35.6452 42.6791 35.6452 42.6791C35.6452 42.6789 35.645 42.6787 35.645 42.6787C35.645 42.6784 35.645 42.6782 35.645 42.6782C35.645 42.678 35.645 42.6778 35.645 42.6778C35.6448 42.6775 35.6448 42.6775 35.6448 42.6773C35.6448 42.6771 35.6448 42.6771 35.6448 42.6769C35.6448 42.6766 35.6446 42.6766 35.6446 42.6764C35.6446 42.6762 35.6446 42.6762 35.6446 42.676C35.6446 42.6757 35.6446 42.6757 35.6446 42.6755C35.6443 42.6755 35.6443 42.6753 35.6443 42.6751C35.6443 42.6751 35.6443 42.6748 35.6443 42.6746C35.6443 42.6746 35.6443 42.6744 35.6441 42.6744C35.6441 42.6742 35.6441 42.6739 35.6441 42.6739C35.6441 42.6737 35.6441 42.6735 35.6441 42.6735C35.6441 42.6733 35.6439 42.673 35.6439 42.673C35.6439 42.6728 35.6439 42.6728 35.6439 42.6726C35.6439 42.6724 35.6439 42.6724 35.6439 42.6721C35.6437 42.6719 35.6437 42.6719 35.6437 42.6717C35.6437 42.6717 35.6437 42.6715 35.6437 42.6712C35.6437 42.6712 35.6437 42.671 35.6434 42.6708V42.6706C35.6434 42.6703 35.6434 42.6701 35.6434 42.6701C35.6434 42.6699 35.6432 42.6697 35.6432 42.6697C35.6432 42.6694 35.6432 42.6694 35.6432 42.6692C35.6432 42.669 35.6432 42.669 35.6432 42.6688C35.643 42.6688 35.643 42.6685 35.643 42.6683C35.643 42.6683 35.643 42.6681 35.643 42.6679C35.643 42.6679 35.643 42.6676 35.6428 42.6676C35.6428 42.6674 35.6428 42.6672 35.6428 42.6672C35.6428 42.667 35.6428 42.667 35.6428 42.6668C35.6428 42.6665 35.6425 42.6665 35.6425 42.6663C35.6425 42.6661 35.6425 42.6661 35.6425 42.6659C35.6425 42.6659 35.6425 42.6656 35.6425 42.6654L35.6423 42.6652C35.6423 42.665 35.6423 42.6647 35.6423 42.6647C35.6423 42.6645 35.6423 42.6645 35.6423 42.6643C35.6421 42.6641 35.6421 42.6641 35.6421 42.6638C35.6421 42.6638 35.6421 42.6636 35.6421 42.6634C35.6421 42.6634 35.6421 42.6632 35.6419 42.6629C35.6419 42.6627 35.6419 42.6623 35.6419 42.6623C35.6419 42.662 35.6416 42.662 35.6416 42.6618C35.6416 42.6616 35.6416 42.6616 35.6416 42.6614C35.6416 42.6611 35.6414 42.6607 35.6414 42.6607C35.6414 42.6605 35.6414 42.6605 35.6414 42.6602C35.6414 42.66 35.6414 42.66 35.6414 42.6598C35.6412 42.6598 35.6412 42.6596 35.6412 42.6593V42.6591C35.6412 42.6589 35.6412 42.6587 35.6412 42.6587C35.6409 42.6584 35.6409 42.6584 35.6409 42.6582C35.6409 42.658 35.6409 42.658 35.6409 42.6578C35.6409 42.6578 35.6409 42.6575 35.6407 42.6575C35.6407 42.6573 35.6407 42.6571 35.6407 42.6571C35.6407 42.6569 35.6407 42.6569 35.6407 42.6567C35.6407 42.6564 35.6407 42.6564 35.6405 42.6562C35.6405 42.656 35.6405 42.6555 35.6405 42.6555C35.6405 42.6553 35.6403 42.6553 35.6403 42.6551C35.6403 42.6549 35.6403 42.6549 35.6403 42.6546C35.6403 42.6544 35.64 42.654 35.64 42.654C35.64 42.6537 35.64 42.6537 35.64 42.6535C35.64 42.6535 35.64 42.6533 35.64 42.6531L35.6398 42.6528C35.6398 42.6526 35.6398 42.6524 35.6398 42.6524L35.6066 42.6589L35.5733 42.6656C35.5733 42.6659 35.5733 42.6663 35.5733 42.6663C35.5735 42.6665 35.5735 42.6665 35.5735 42.6668C35.5735 42.667 35.5735 42.667 35.5735 42.6672V42.6674C35.5738 42.6677 35.5737 42.6679 35.5737 42.6679C35.5737 42.6681 35.5737 42.6681 35.5737 42.6683C35.5737 42.6683 35.5738 42.6685 35.574 42.6688V42.669C35.574 42.6692 35.574 42.6694 35.574 42.6694C35.574 42.6697 35.574 42.6697 35.5742 42.6699C35.5742 42.6699 35.5742 42.6701 35.5742 42.6703C35.5742 42.6706 35.5744 42.671 35.5744 42.671C35.5744 42.6712 35.5744 42.6712 35.5744 42.6715C35.5744 42.6715 35.5744 42.6717 35.5744 42.6719L35.5747 42.6721C35.5747 42.6724 35.5747 42.6726 35.5747 42.6726C35.5747 42.6728 35.5747 42.6728 35.5747 42.673C35.5749 42.6733 35.5749 42.6733 35.5749 42.6735C35.5749 42.6735 35.5749 42.6737 35.5749 42.6739V42.6742C35.5751 42.6744 35.5751 42.6746 35.5751 42.6746C35.5751 42.6748 35.5751 42.6748 35.5751 42.6751C35.5751 42.6753 35.5751 42.6753 35.5753 42.6755C35.5753 42.6755 35.5753 42.6757 35.5753 42.676V42.6762C35.5753 42.6764 35.5756 42.6766 35.5756 42.6766C35.5756 42.6769 35.5756 42.6769 35.5756 42.6771C35.5756 42.6773 35.5756 42.6773 35.5756 42.6775C35.5756 42.6775 35.5758 42.6778 35.5758 42.678V42.6782C35.5758 42.6784 35.5758 42.6787 35.5758 42.6787C35.576 42.6789 35.576 42.6789 35.576 42.6791C35.576 42.6793 35.576 42.6793 35.576 42.6795C35.576 42.6798 35.576 42.6798 35.5762 42.68C35.5762 42.68 35.5762 42.6802 35.5762 42.6804C35.5762 42.6807 35.5765 42.6811 35.5765 42.6811C35.5765 42.6813 35.5765 42.6813 35.5765 42.6816C35.5765 42.6818 35.5765 42.6818 35.5765 42.682C35.5767 42.6822 35.5767 42.6822 35.5767 42.6825C35.5767 42.6825 35.5767 42.6827 35.5767 42.6829C35.5767 42.6829 35.5767 42.6831 35.5769 42.6834C35.5769 42.6836 35.5769 42.684 35.5769 42.684C35.5769 42.6843 35.5771 42.6845 35.5771 42.6845C35.5771 42.6847 35.5771 42.6847 35.5771 42.6849C35.5771 42.6852 35.5771 42.6852 35.5771 42.6854C35.5774 42.6856 35.5774 42.6856 35.5774 42.6858C35.5774 42.6858 35.5774 42.6861 35.5774 42.6863C35.5774 42.6863 35.5774 42.6865 35.5776 42.6867C35.5776 42.687 35.5776 42.6874 35.5776 42.6874C35.5776 42.6876 35.5778 42.6879 35.5778 42.6879C35.5778 42.6881 35.5778 42.6883 35.5778 42.6883C35.5778 42.6885 35.5778 42.6885 35.5778 42.6888C35.578 42.689 35.578 42.689 35.578 42.6892C35.578 42.6894 35.578 42.6894 35.578 42.6897C35.578 42.6899 35.578 42.6899 35.5783 42.6901C35.5783 42.6901 35.5783 42.6903 35.5783 42.6905C35.5783 42.6905 35.5783 42.6908 35.5783 42.691C35.5783 42.691 35.5785 42.6912 35.5785 42.6914V42.6917C35.5785 42.6919 35.5785 42.6921 35.5787 42.6921C35.5787 42.6923 35.5787 42.6926 35.5787 42.6926C35.5787 42.6928 35.5787 42.693 35.5787 42.693C35.5787 42.6932 35.579 42.6935 35.579 42.6935C35.579 42.6937 35.579 42.6939 35.579 42.6939C35.579 42.6941 35.579 42.6941 35.579 42.6944C35.5792 42.6946 35.5792 42.6946 35.5792 42.6948C35.5792 42.695 35.5792 42.695 35.5792 42.6953C35.5792 42.6955 35.5792 42.6955 35.5794 42.6957C35.5794 42.6959 35.5794 42.6959 35.5794 42.6962C35.5794 42.6964 35.5794 42.6964 35.5794 42.6966C35.5796 42.6968 35.5796 42.6968 35.5796 42.6971C35.5796 42.6973 35.5796 42.6973 35.5796 42.6975C35.5796 42.6977 35.5796 42.6977 35.5799 42.698C35.5799 42.6982 35.5799 42.6982 35.5799 42.6984C35.5799 42.6984 35.5799 42.6986 35.5799 42.6989C35.5801 42.6989 35.5801 42.6991 35.5801 42.6993C35.5801 42.6993 35.5801 42.6995 35.5801 42.6998C35.5801 42.6998 35.5801 42.7 35.5803 42.7002C35.5803 42.7002 35.5803 42.7004 35.5803 42.7007C35.5803 42.7007 35.5803 42.7009 35.5803 42.7011C35.5805 42.7011 35.5805 42.7013 35.5805 42.7015C35.5805 42.7015 35.5805 42.7018 35.5805 42.702C35.5805 42.702 35.5805 42.7022 35.5808 42.7024C35.5808 42.7024 35.5808 42.7027 35.5808 42.7029C35.5808 42.7029 35.5808 42.7031 35.5808 42.7033C35.581 42.7036 35.581 42.7036 35.581 42.7038C35.581 42.704 35.581 42.704 35.581 42.7042C35.581 42.7045 35.581 42.7045 35.5812 42.7047C35.5812 42.7049 35.5812 42.7049 35.5812 42.7051C35.5812 42.7054 35.5812 42.7054 35.5812 42.7056C35.5814 42.7058 35.5814 42.7058 35.5814 42.706C35.5814 42.7063 35.5814 42.7063 35.5814 42.7065C35.5814 42.7067 35.5817 42.7067 35.5817 42.7069C35.5817 42.7072 35.5817 42.7072 35.5817 42.7074C35.5817 42.7076 35.5817 42.7078 35.5817 42.7078C35.5819 42.7081 35.5819 42.7083 35.5819 42.7083C35.5819 42.7085 35.5819 42.7087 35.5819 42.7087C35.5819 42.709 35.5821 42.7092 35.5821 42.7092C35.5821 42.7094 35.5821 42.7096 35.5821 42.7096C35.5821 42.7099 35.5821 42.7101 35.5823 42.7101C35.5823 42.7103 35.5823 42.7105 35.5823 42.7108C35.5823 42.7108 35.5823 42.711 35.5823 42.7112C35.5823 42.7112 35.5826 42.7114 35.5826 42.7116C35.5826 42.7116 35.5826 42.7119 35.5826 42.7121C35.5826 42.7121 35.5826 42.7123 35.5828 42.7126C35.5828 42.7128 35.5828 42.7128 35.5828 42.713C35.5828 42.7132 35.5828 42.7132 35.5828 42.7134C35.583 42.7137 35.583 42.7137 35.583 42.7139C35.583 42.7141 35.583 42.7143 35.583 42.7143C35.583 42.7146 35.5833 42.7148 35.5833 42.7148C35.5833 42.715 35.5833 42.7152 35.5833 42.7152C35.5833 42.7155 35.5833 42.7157 35.5835 42.7159C35.5835 42.7159 35.5835 42.7161 35.5835 42.7164C35.5835 42.7164 35.5835 42.7166 35.5835 42.7168C35.5837 42.7168 35.5837 42.717 35.5837 42.7173C35.5837 42.7175 35.5837 42.7175 35.5837 42.7177C35.5837 42.7179 35.5839 42.7179 35.5839 42.7182C35.5839 42.7184 35.5839 42.7186 35.5839 42.7186C35.5839 42.7188 35.5839 42.7191 35.5839 42.7191C35.5842 42.7193 35.5842 42.7195 35.5842 42.7197C35.5842 42.7197 35.5842 42.72 35.5842 42.7202C35.5842 42.7202 35.5844 42.7204 35.5844 42.7206C35.5844 42.7209 35.5844 42.7209 35.5844 42.7211C35.5844 42.7213 35.5844 42.7213 35.5846 42.7215C35.5846 42.7218 35.5846 42.722 35.5846 42.722C35.5846 42.7222 35.5846 42.7224 35.5848 42.7224C35.5848 42.7227 35.5848 42.7229 35.5848 42.7231C35.5848 42.7231 35.5848 42.7233 35.5848 42.7235C35.5851 42.7235 35.5851 42.7238 35.5851 42.724C35.5851 42.7242 35.5851 42.7242 35.5851 42.7244C35.5851 42.7247 35.5853 42.7249 35.5853 42.7249C35.5853 42.7251 35.5853 42.7253 35.5853 42.7253C35.5853 42.7256 35.5853 42.7258 35.5855 42.726C35.5855 42.726 35.5855 42.7262 35.5855 42.7265C35.5855 42.7265 35.5855 42.7267 35.5855 42.7269C35.5857 42.7271 35.5857 42.7271 35.5857 42.7274C35.5857 42.7276 35.5857 42.7278 35.5857 42.7278C35.5857 42.728 35.586 42.7283 35.586 42.7285C35.586 42.7285 35.586 42.7287 35.586 42.7289C35.586 42.7289 35.586 42.7292 35.5862 42.7294C35.5862 42.7296 35.5862 42.7296 35.5862 42.7298C35.5862 42.7301 35.5862 42.7303 35.5862 42.7303C35.5864 42.7305 35.5864 42.7307 35.5864 42.731C35.5864 42.731 35.5864 42.7312 35.5864 42.7314C35.5866 42.7314 35.5866 42.7316 35.5866 42.7319C35.5866 42.7321 35.5866 42.7321 35.5866 42.7323C35.5866 42.7325 35.5869 42.7328 35.5869 42.7328C35.5869 42.733 35.5869 42.7332 35.5869 42.7334C35.5869 42.7334 35.5869 42.7336 35.5871 42.7339C35.5871 42.7341 35.5871 42.7341 35.5871 42.7343C35.5871 42.7346 35.5871 42.7348 35.5871 42.7348C35.5873 42.735 35.5873 42.7352 35.5873 42.7354C35.5873 42.7354 35.5873 42.7357 35.5873 42.7359C35.5876 42.7361 35.5876 42.7361 35.5876 42.7363C35.5876 42.7366 35.5876 42.7368 35.5876 42.7368C35.5876 42.737 35.5878 42.7372 35.5878 42.7375C35.5878 42.7375 35.5878 42.7377 35.5878 42.7379C35.5878 42.7381 35.5878 42.7381 35.588 42.7384C35.588 42.7386 35.588 42.7388 35.588 42.7388C35.588 42.739 35.588 42.7393 35.5882 42.7395C35.5882 42.7395 35.5882 42.7397 35.5882 42.7399C35.5882 42.7402 35.5882 42.7402 35.5882 42.7404C35.5885 42.7406 35.5885 42.7408 35.5885 42.7408C35.5885 42.7411 35.5885 42.7413 35.5885 42.7415C35.5887 42.7417 35.5887 42.7417 35.5887 42.742C35.5887 42.7422 35.5887 42.7424 35.5887 42.7424C35.5887 42.7426 35.5889 42.7429 35.5889 42.7431C35.5889 42.7431 35.5889 42.7433 35.5889 42.7435C35.5889 42.7438 35.5891 42.7438 35.5891 42.744C35.5891 42.7442 35.5891 42.7444 35.5891 42.7446C35.5891 42.7446 35.5891 42.7449 35.5894 42.7451C35.5894 42.7453 35.5894 42.7453 35.5894 42.7455C35.5894 42.7458 35.5894 42.746 35.5896 42.746C35.5896 42.7462 35.5896 42.7464 35.5896 42.7467C35.5896 42.7469 35.5896 42.7469 35.5896 42.7471C35.5898 42.7473 35.5898 42.7476 35.5898 42.7476C35.5898 42.7478 35.5898 42.748 35.5898 42.7482C35.59 42.7482 35.59 42.7485 35.59 42.7487C35.59 42.7489 35.59 42.7491 35.59 42.7491C35.59 42.7494 35.5903 42.7496 35.5903 42.7498C35.5903 42.7498 35.5903 42.75 35.5903 42.7503C35.5903 42.7505 35.5905 42.7507 35.5905 42.7507C35.5905 42.7509 35.5905 42.7512 35.5905 42.7514C35.5905 42.7516 35.5905 42.7516 35.5907 42.7518C35.5907 42.7521 35.5907 42.7523 35.5907 42.7523C35.5907 42.7525 35.5907 42.7527 35.5909 42.753C35.5909 42.7532 35.5909 42.7532 35.5909 42.7534C35.5909 42.7536 35.5909 42.7539 35.5912 42.7541C35.5912 42.7541 35.5912 42.7543 35.5912 42.7545C35.5912 42.7548 35.5912 42.7548 35.5912 42.755C35.5914 42.7552 35.5914 42.7554 35.5914 42.7556C35.5914 42.7556 35.5914 42.7559 35.5914 42.7561C35.5916 42.7563 35.5916 42.7565 35.5916 42.7565C35.5916 42.7568 35.5916 42.757 35.5916 42.7572C35.5919 42.7574 35.5918 42.7574 35.5918 42.7577C35.5918 42.7579 35.5918 42.7581 35.5918 42.7583C35.5918 42.7583 35.5921 42.7586 35.5921 42.7588C35.5921 42.759 35.5921 42.7592 35.5921 42.7592C35.5921 42.7595 35.5923 42.7597 35.5923 42.7599C35.5923 42.7601 35.5923 42.7601 35.5923 42.7604C35.5923 42.7606 35.5925 42.7608 35.5925 42.761C35.5925 42.761 35.5925 42.7613 35.5925 42.7615C35.5925 42.7617 35.5928 42.7619 35.5928 42.7619C35.5928 42.7622 35.5928 42.7624 35.5928 42.7626C35.5928 42.7628 35.5928 42.7628 35.593 42.7631C35.593 42.7633 35.593 42.7635 35.593 42.7637C35.593 42.7637 35.593 42.764 35.5932 42.7642C35.5932 42.7644 35.5932 42.7646 35.5932 42.7646C35.5932 42.7649 35.5932 42.7651 35.5934 42.7653C35.5934 42.7655 35.5934 42.7658 35.5934 42.7658C35.5934 42.766 35.5934 42.7662 35.5937 42.7664C35.5937 42.7666 35.5937 42.7666 35.5937 42.7669C35.5937 42.7671 35.5937 42.7673 35.5939 42.7675C35.5939 42.7675 35.5939 42.7678 35.5939 42.768C35.5939 42.7682 35.5939 42.7684 35.5941 42.7687C35.5941 42.7687 35.5941 42.7689 35.5941 42.7691C35.5941 42.7693 35.5941 42.7696 35.5943 42.7696C35.5943 42.7698 35.5943 42.77 35.5943 42.7702C35.5943 42.7705 35.5943 42.7707 35.5943 42.7707C35.5946 42.7709 35.5946 42.7711 35.5946 42.7714C35.5946 42.7716 35.5946 42.7718 35.5946 42.7718C35.5948 42.772 35.5948 42.7723 35.5948 42.7725C35.5948 42.7727 35.5948 42.7727 35.5948 42.7729C35.595 42.7732 35.595 42.7734 35.595 42.7736C35.595 42.7738 35.595 42.7738 35.595 42.7741C35.5952 42.7743 35.5952 42.7745 35.5952 42.7747C35.5952 42.775 35.5952 42.775 35.5952 42.7752C35.5955 42.7754 35.5955 42.7756 35.5955 42.7759C35.5955 42.7761 35.5955 42.7761 35.5955 42.7763C35.5957 42.7765 35.5957 42.7768 35.5957 42.777C35.5957 42.7772 35.5957 42.7772 35.5957 42.7774C35.5959 42.7776 35.5959 42.7779 35.5959 42.7781C35.5959 42.7783 35.5959 42.7783 35.5959 42.7785C35.5961 42.7788 35.5962 42.779 35.5962 42.7792C35.5962 42.7794 35.5962 42.7794 35.5962 42.7797C35.5964 42.7799 35.5964 42.7801 35.5964 42.7803C35.5964 42.7806 35.5964 42.7808 35.5964 42.7808C35.5966 42.781 35.5966 42.7812 35.5966 42.7815C35.5966 42.7817 35.5966 42.7819 35.5968 42.7819C35.5968 42.7821 35.5968 42.7824 35.5968 42.7826C35.5968 42.7828 35.5968 42.783 35.5971 42.783C35.5971 42.7833 35.5971 42.7835 35.5971 42.7837C35.5971 42.7839 35.5971 42.7842 35.5973 42.7844C35.5973 42.7844 35.5973 42.7846 35.5973 42.7848C35.5973 42.7851 35.5973 42.7853 35.5975 42.7855C35.5975 42.7857 35.5975 42.7857 35.5975 42.786C35.5975 42.7862 35.5975 42.7864 35.5977 42.7866C35.5977 42.7869 35.5977 42.7871 35.5977 42.7871C35.5977 42.7873 35.5977 42.7875 35.598 42.7878C35.598 42.788 35.598 42.7882 35.598 42.7884C35.598 42.7884 35.598 42.7887 35.5982 42.7889C35.5982 42.7891 35.5982 42.7893 35.5982 42.7895C35.5982 42.7898 35.5982 42.7898 35.5984 42.79C35.5984 42.7902 35.5984 42.7904 35.5984 42.7907C35.5984 42.7909 35.5986 42.7911 35.5986 42.7911C35.5986 42.7913 35.5986 42.7916 35.5986 42.7918C35.5986 42.792 35.5989 42.7922 35.5989 42.7925C35.5989 42.7925 35.5989 42.7927 35.5989 42.7929C35.5989 42.7931 35.5991 42.7934 35.5991 42.7936C35.5991 42.7938 35.5991 42.794 35.5991 42.794C35.5991 42.7943 35.5993 42.7945 35.5993 42.7947C35.5993 42.7949 35.5993 42.7952 35.5993 42.7954C35.5995 42.7954 35.5995 42.7956 35.5995 42.7958C35.5995 42.7961 35.5995 42.7963 35.5995 42.7965C35.5998 42.7967 35.5998 42.797 35.5998 42.797C35.5998 42.7972 35.5998 42.7974 35.5998 42.7976C35.6 42.7979 35.6 42.7981 35.6 42.7983C35.6 42.7985 35.6 42.7985 35.6 42.7988C35.6002 42.799 35.6002 42.7992 35.6002 42.7994C35.6002 42.7997 35.6002 42.7999 35.6004 42.8001C35.6004 42.8001 35.6004 42.8003 35.6004 42.8005C35.6004 42.8008 35.6004 42.801 35.6007 42.8012C35.6007 42.8014 35.6007 42.8017 35.6007 42.8019C35.6007 42.8019 35.6007 42.8021 35.6009 42.8023C35.6009 42.8026 35.6009 42.8028 35.6009 42.803C35.6009 42.8032 35.6011 42.8035 35.6011 42.8035C35.6011 42.8037 35.6011 42.8039 35.6011 42.8041C35.6011 42.8044 35.6014 42.8046 35.6014 42.8048C35.6014 42.805 35.6014 42.8053 35.6014 42.8053C35.6014 42.8055 35.6016 42.8057 35.6016 42.8059C35.6016 42.8062 35.6016 42.8064 35.6016 42.8066C35.6018 42.8068 35.6018 42.8071 35.6018 42.8073C35.6018 42.8073 35.6018 42.8075 35.6018 42.8077C35.602 42.808 35.602 42.8082 35.602 42.8084C35.602 42.8086 35.602 42.8089 35.6023 42.8091C35.6023 42.8091 35.6023 42.8093 35.6023 42.8095C35.6023 42.8098 35.6023 42.81 35.6025 42.8102C35.6025 42.8104 35.6025 42.8106 35.6025 42.8109C35.6025 42.8111 35.6027 42.8111 35.6027 42.8113C35.6027 42.8115 35.6027 42.8118 35.6027 42.812C35.6027 42.8122 35.6029 42.8124 35.6029 42.8127C35.6029 42.8129 35.6029 42.8131 35.6029 42.8131C35.6029 42.8133 35.6032 42.8136 35.6032 42.8138C35.6032 42.814 35.6032 42.8142 35.6032 42.8145C35.6034 42.8147 35.6034 42.8149 35.6034 42.8151C35.6034 42.8154 35.6034 42.8154 35.6034 42.8156C35.6036 42.8158 35.6036 42.816 35.6036 42.8163C35.6036 42.8165 35.6036 42.8167 35.6038 42.8169C35.6038 42.8172 35.6038 42.8174 35.6038 42.8176C35.6038 42.8176 35.6038 42.8178 35.6041 42.8181C35.6041 42.8183 35.6041 42.8185 35.6041 42.8187C35.6041 42.819 35.6043 42.8192 35.6043 42.8194C35.6043 42.8196 35.6043 42.8199 35.6043 42.8201C35.6045 42.8201 35.6045 42.8203 35.6045 42.8205C35.6045 42.8208 35.6045 42.821 35.6045 42.8212C35.6047 42.8214 35.6047 42.8217 35.6047 42.8219C35.6047 42.8221 35.6047 42.8223 35.605 42.8225C35.605 42.8225 35.605 42.8228 35.605 42.823C35.605 42.8232 35.605 42.8234 35.6052 42.8237C35.6052 42.8239 35.6052 42.8241 35.6052 42.8243C35.6052 42.8246 35.6054 42.8248 35.6054 42.825C35.6054 42.8252 35.6054 42.8252 35.6054 42.8255C35.6054 42.8257 35.6057 42.8259 35.6057 42.8261C35.6057 42.8264 35.6057 42.8266 35.6057 42.8268C35.6059 42.827 35.6059 42.8273 35.6059 42.8275C35.6059 42.8277 35.6059 42.8279 35.6061 42.8282C35.6061 42.8282 35.6061 42.8284 35.6061 42.8286C35.6061 42.8288 35.6061 42.8291 35.6063 42.8293C35.6063 42.8295 35.6063 42.8297 35.6063 42.83C35.6063 42.8302 35.6066 42.8304 35.6066 42.8306C35.6066 42.8309 35.6066 42.8311 35.6066 42.8313C35.6068 42.8313 35.6068 42.8315 35.6068 42.8318C35.6068 42.832 35.6068 42.8322 35.6068 42.8324C35.607 42.8327 35.607 42.8329 35.607 42.8331C35.607 42.8333 35.607 42.8335 35.6072 42.8338C35.6072 42.834 35.6072 42.8342 35.6072 42.8344C35.6072 42.8347 35.6075 42.8349 35.6075 42.8349C35.6075 42.8351 35.6075 42.8353 35.6075 42.8356C35.6075 42.8358 35.6077 42.836 35.6077 42.8362C35.6077 42.8365 35.6077 42.8367 35.6077 42.8369C35.6079 42.8371 35.6079 42.8374 35.6079 42.8376C35.6079 42.8378 35.6079 42.838 35.6081 42.8383C35.6081 42.8385 35.6081 42.8387 35.6081 42.8387C35.6081 42.8389 35.6081 42.8392 35.6084 42.8394C35.6084 42.8396 35.6084 42.8398 35.6084 42.8401C35.6084 42.8403 35.6086 42.8405 35.6086 42.8407C35.6086 42.841 35.6086 42.8412 35.6086 42.8414C35.6088 42.8416 35.6088 42.8419 35.6088 42.8421C35.6088 42.8423 35.6088 42.8425 35.609 42.8428C35.609 42.843 35.609 42.8432 35.609 42.8434C35.609 42.8434 35.6093 42.8437 35.6093 42.8439C35.6093 42.8441 35.6093 42.8443 35.6093 42.8445C35.6093 42.8448 35.6095 42.845 35.6095 42.8452C35.6095 42.8454 35.6095 42.8457 35.6095 42.8459C35.6097 42.8461 35.6097 42.8463 35.6097 42.8466C35.6097 42.8468 35.6097 42.847 35.6099 42.8472C35.6099 42.8475 35.6099 42.8477 35.6099 42.8479C35.6099 42.8481 35.6102 42.8484 35.6102 42.8486C35.6102 42.8488 35.6102 42.849 35.6102 42.8493C35.6104 42.8493 35.6104 42.8495 35.6104 42.8497C35.6104 42.8499 35.6104 42.8502 35.6104 42.8504C35.6106 42.8506 35.6106 42.8508 35.6106 42.8511C35.6106 42.8513 35.6106 42.8515 35.6109 42.8517C35.6109 42.852 35.6109 42.8522 35.6109 42.8524C35.6109 42.8526 35.6111 42.8529 35.6111 42.8531C35.6111 42.8533 35.6111 42.8535 35.6111 42.8538C35.6113 42.854 35.6113 42.8542 35.6113 42.8544C35.6113 42.8546 35.6113 42.8549 35.6115 42.8551C35.6115 42.8553 35.6115 42.8556 35.6115 42.8558C35.6115 42.856 35.6118 42.8562 35.6118 42.8564C35.6118 42.8567 35.6118 42.8569 35.6118 42.8571C35.612 42.8573 35.612 42.8576 35.612 42.8578C35.612 42.858 35.612 42.8582 35.6122 42.8582C35.6122 42.8585 35.6122 42.8587 35.6122 42.8589C35.6122 42.8591 35.6124 42.8594 35.6124 42.8596C35.6124 42.8598 35.6124 42.86 35.6124 42.8603C35.6124 42.8605 35.6127 42.8607 35.6127 42.8609C35.6127 42.8612 35.6127 42.8614 35.6127 42.8616C35.6129 42.8618 35.6129 42.8621 35.6129 42.8623C35.6129 42.8625 35.6129 42.8627 35.6131 42.863C35.6131 42.8632 35.6131 42.8634 35.6131 42.8636C35.6131 42.8639 35.6133 42.8641 35.6133 42.8643C35.6133 42.8645 35.6133 42.8648 35.6133 42.865C35.6136 42.8652 35.6136 42.8654 35.6136 42.8657C35.6136 42.8659 35.6136 42.8661 35.6138 42.8663C35.6138 42.8665 35.6138 42.8668 35.6138 42.867C35.6138 42.8672 35.614 42.8674 35.614 42.8677C35.614 42.8679 35.614 42.8681 35.614 42.8683C35.6142 42.8686 35.6142 42.8688 35.6142 42.869C35.6142 42.8692 35.6142 42.8695 35.6145 42.8697C35.6145 42.8699 35.6145 42.8701 35.6145 42.8704C35.6145 42.8706 35.6147 42.8708 35.6147 42.871C35.6147 42.8713 35.6147 42.8715 35.6147 42.8717C35.6149 42.8719 35.6149 42.8722 35.6149 42.8724C35.6149 42.8726 35.6149 42.8728 35.6152 42.8731C35.6152 42.8733 35.6152 42.8735 35.6152 42.8737C35.6152 42.874 35.6154 42.8742 35.6154 42.8744C35.6154 42.8746 35.6154 42.8749 35.6154 42.8751C35.6156 42.8753 35.6156 42.8755 35.6156 42.8758C35.6156 42.876 35.6156 42.8762 35.6158 42.8764C35.6158 42.8767 35.6158 42.8769 35.6158 42.8771C35.6161 42.8773 35.6161 42.8775 35.6161 42.8778C35.6161 42.878 35.6161 42.8784 35.6163 42.8787C35.6163 42.8789 35.6163 42.8791 35.6163 42.8793C35.6163 42.8796 35.6165 42.8798 35.6165 42.88C35.6165 42.8802 35.6165 42.8805 35.6165 42.8807C35.6167 42.8809 35.6167 42.8811 35.6167 42.8814C35.6167 42.8816 35.6167 42.8818 35.617 42.882C35.617 42.8823 35.617 42.8825 35.617 42.8827C35.617 42.8829 35.6172 42.8832 35.6172 42.8834C35.6172 42.8836 35.6172 42.8838 35.6172 42.8841C35.6174 42.8843 35.6174 42.8845 35.6174 42.8847C35.6174 42.885 35.6174 42.8852 35.6176 42.8854C35.6176 42.8856 35.6176 42.8859 35.6176 42.8861C35.6176 42.8863 35.6179 42.8865 35.6179 42.8868C35.6179 42.887 35.6179 42.8872 35.6181 42.8874C35.6181 42.8877 35.6181 42.8881 35.6181 42.8883C35.6181 42.8885 35.6183 42.8888 35.6183 42.889C35.6183 42.8892 35.6183 42.8894 35.6183 42.8897C35.6185 42.8899 35.6185 42.8901 35.6185 42.8903C35.6185 42.8906 35.6185 42.8908 35.6188 42.891C35.6188 42.8912 35.6188 42.8915 35.6188 42.8917C35.6188 42.8919 35.619 42.8921 35.619 42.8924C35.619 42.8926 35.619 42.8928 35.619 42.893C35.6192 42.8933 35.6192 42.8935 35.6192 42.8937C35.6192 42.8939 35.6195 42.8944 35.6195 42.8946C35.6195 42.8948 35.6195 42.8951 35.6195 42.8953C35.6197 42.8955 35.6197 42.8957 35.6197 42.896C35.6197 42.8962 35.6197 42.8964 35.6199 42.8966C35.6199 42.8969 35.6199 42.8971 35.6199 42.8973C35.6199 42.8975 35.6201 42.8978 35.6201 42.898C35.6201 42.8982 35.6201 42.8984 35.6204 42.8987C35.6204 42.8989 35.6204 42.8993 35.6204 42.8995C35.6204 42.8998 35.6206 42.9 35.6206 42.9002C35.6206 42.9004 35.6206 42.9007 35.6206 42.9009C35.6208 42.9011 35.6208 42.9013 35.6208 42.9016C35.6208 42.9018 35.6208 42.902 35.621 42.9022C35.621 42.9025 35.621 42.9027 35.621 42.9029C35.6213 42.9031 35.6213 42.9034 35.6213 42.9038C35.6213 42.904 35.6213 42.9043 35.6215 42.9045C35.6215 42.9047 35.6215 42.9049 35.6215 42.9052C35.6215 42.9054 35.6217 42.9056 35.6217 42.9058C35.6217 42.9061 35.6217 42.9063 35.6217 42.9065C35.6219 42.9067 35.6219 42.907 35.6219 42.9072C35.6219 42.9074 35.6222 42.9079 35.6222 42.9081C35.6222 42.9083 35.6222 42.9085 35.6222 42.9088C35.6224 42.909 35.6224 42.9092 35.6224 42.9094C35.6224 42.9097 35.6224 42.9099 35.6226 42.9101C35.6226 42.9103 35.6226 42.9105 35.6226 42.9108C35.6228 42.911 35.6228 42.9114 35.6228 42.9117C35.6228 42.9119 35.6228 42.9121 35.6231 42.9123C35.6231 42.9126 35.6231 42.9128 35.6231 42.913C35.6231 42.9132 35.6233 42.9135 35.6233 42.9137C35.6233 42.9139 35.6233 42.9141 35.6235 42.9144C35.6235 42.9148 35.6235 42.915 35.6235 42.9153C35.6235 42.9155 35.6238 42.9157 35.6238 42.9159C35.6238 42.9162 35.6238 42.9164 35.6238 42.9166C35.624 42.9168 35.624 42.9171 35.624 42.9173C35.624 42.9175 35.6242 42.918 35.6242 42.9182C35.6242 42.9184 35.6242 42.9186 35.6242 42.9189C35.6244 42.9191 35.6244 42.9193 35.6244 42.9195C35.6244 42.9198 35.6244 42.92 35.6247 42.9202C35.6247 42.9204 35.6247 42.9209 35.6247 42.9211C35.6249 42.9213 35.6249 42.9215 35.6249 42.9218C35.6249 42.922 35.6249 42.9222 35.6251 42.9224C35.6251 42.9227 35.6251 42.9229 35.6251 42.9231C35.6253 42.9233 35.6253 42.9238 35.6253 42.924C35.6253 42.9242 35.6253 42.9245 35.6256 42.9247C35.6256 42.9249 35.6256 42.9251 35.6256 42.9254C35.6256 42.9256 35.6258 42.9258 35.6258 42.926C35.6258 42.9265 35.6258 42.9267 35.626 42.9269C35.626 42.9272 35.626 42.9274 35.626 42.9276C35.626 42.9278 35.6262 42.9281 35.6262 42.9283C35.6262 42.9285 35.6262 42.9287 35.6265 42.9292C35.6265 42.9294 35.6265 42.9296 35.6265 42.9299C35.6265 42.9301 35.6267 42.9303 35.6267 42.9305C35.6267 42.9308 35.6267 42.931 35.6269 42.9312C35.6269 42.9317 35.6269 42.9319 35.6269 42.9321C35.6269 42.9323 35.6271 42.9325 35.6271 42.9328C35.6271 42.933 35.6271 42.9332 35.6271 42.9334C35.6274 42.9337 35.6274 42.9341 35.6274 42.9343C35.6274 42.9346 35.6276 42.9348 35.6276 42.935C35.6276 42.9352 35.6276 42.9355 35.6276 42.9357C35.6278 42.9359 35.6278 42.9364 35.6278 42.9366C35.6278 42.9368 35.628 42.937 35.628 42.9373C35.628 42.9375 35.628 42.9377 35.628 42.9379C35.6283 42.9382 35.6283 42.9386 35.6283 42.9388C35.6283 42.9391 35.6285 42.9393 35.6285 42.9395C35.6285 42.9397 35.6285 42.94 35.6285 42.9402C35.6287 42.9404 35.6287 42.9409 35.6287 42.9411C35.6287 42.9413 35.629 42.9415 35.629 42.9418C35.629 42.942 35.629 42.9422 35.629 42.9424C35.6292 42.9426 35.6292 42.9431 35.6292 42.9433C35.6292 42.9435 35.6294 42.9438 35.6294 42.944C35.6294 42.9442 35.6294 42.9444 35.6296 42.9447C35.6296 42.9451 35.6296 42.9453 35.6296 42.9456C35.6296 42.9458 35.6299 42.946 35.6299 42.9462C35.6299 42.9465 35.6299 42.9467 35.6301 42.9469C35.6301 42.9474 35.6301 42.9476 35.6301 42.9478C35.6301 42.948 35.6303 42.9483 35.6303 42.9485C35.6303 42.9487 35.6303 42.9489 35.6305 42.9494C35.6305 42.9496 35.6305 42.9498 35.6305 42.9501C35.6305 42.9503 35.6308 42.9505 35.6308 42.9507C35.6308 42.9512 35.6308 42.9514 35.631 42.9516C35.631 42.9519 35.631 42.9521 35.631 42.9523C35.631 42.9525 35.6312 42.9528 35.6312 42.9532C35.6312 42.9534 35.6312 42.9537 35.6314 42.9539C35.6314 42.9541 35.6314 42.9543 35.6314 42.9545C35.6317 42.9548 35.6317 42.9552 35.6317 42.9554C35.6317 42.9557 35.6317 42.9559 35.6319 42.9561C35.6319 42.9563 35.6319 42.9566 35.6319 42.957C35.6321 42.9572 35.6321 42.9575 35.6321 42.9577C35.6321 42.9579 35.6321 42.9581 35.6323 42.9584C35.6323 42.9588 35.6323 42.959 35.6323 42.9593C35.6326 42.9595 35.6326 42.9597 35.6326 42.9599C35.6326 42.9602 35.6328 42.9606 35.6328 42.9608C35.6328 42.9611 35.6328 42.9613 35.6328 42.9615L35.6663 42.955ZM35.6066 42.6589L35.5728 42.6546C35.5642 42.7191 35.5468 42.8145 35.5204 42.9415L35.5534 42.9483L35.5866 42.9552C35.6133 42.8279 35.6312 42.7305 35.6403 42.6634L35.6066 42.6589ZM35.5534 42.9483L35.5201 42.9427C35.4982 43.0688 35.4674 43.2152 35.4276 43.3813L35.4606 43.3889L35.4937 43.3968C35.5337 43.2298 35.5647 43.0821 35.5869 42.9541L35.5534 42.9483ZM35.4606 43.3889L35.4276 43.382C35.3923 43.5479 35.3484 43.7248 35.2955 43.9127L35.328 43.9216L35.3609 43.9309C35.414 43.7416 35.4584 43.5634 35.4939 43.3959L35.4606 43.3889ZM35.328 43.9216L35.2952 43.9133C35.2468 44.1015 35.1939 44.2918 35.1364 44.4844L35.169 44.4939L35.2016 44.5035C35.2593 44.3102 35.3122 44.119 35.3611 43.9302L35.328 43.9216ZM35.169 44.4939L35.1364 44.4847L33.2672 50.9498L33.3 50.959L33.3326 50.9682L35.2016 44.5033L35.169 44.4939ZM33.3 50.959V50.9253H32.1665V50.959V50.9926H33.3V50.959ZM32.1665 50.959L32.1993 50.9504L29.6276 41.3349L29.5948 41.3436L29.562 41.3521L32.1337 50.9675L32.1665 50.959ZM29.5948 41.3436V41.3773H30.7679V41.3436V41.3099H29.5948V41.3436ZM30.7679 41.3436L30.7351 41.3519L32.2928 47.3828L32.3256 47.3745L32.3584 47.3662L30.8007 41.3353L30.7679 41.3436ZM32.3256 47.3745L32.2928 47.3828C32.3457 47.5842 32.3941 47.7835 32.4382 47.9804L32.4713 47.973L32.5045 47.9658C32.4602 47.7681 32.4115 47.568 32.3584 47.366L32.3256 47.3745ZM32.4713 47.973L32.4385 47.9813C32.4869 48.1735 32.5287 48.3614 32.564 48.545L32.5973 48.5387L32.6305 48.5324C32.5952 48.3475 32.5529 48.1584 32.5043 47.9649L32.4713 47.973ZM32.5973 48.5387L32.564 48.5457C32.6038 48.7295 32.6391 48.9089 32.6699 49.0838L32.7034 49.078L32.7369 49.0721C32.7059 48.8963 32.6704 48.7161 32.6305 48.5315L32.5973 48.5387ZM32.7034 49.078L32.6699 49.0838C32.7009 49.2589 32.7294 49.4297 32.7561 49.5963L32.7896 49.5909L32.8231 49.5858C32.7966 49.419 32.7676 49.2477 32.7369 49.0721L32.7034 49.078ZM32.7896 49.5909L32.8231 49.5952C32.8452 49.425 32.8737 49.2481 32.909 49.0645L32.8758 49.0582L32.8423 49.0519C32.8068 49.2367 32.7781 49.4149 32.7559 49.5866L32.7896 49.5909ZM32.8758 49.0582L32.909 49.0645C32.9443 48.8761 32.9819 48.6856 33.0217 48.4927L32.9885 48.486L32.9552 48.4792C32.9154 48.6725 32.8776 48.8631 32.8423 49.0519L32.8758 49.0582ZM32.9885 48.486L33.0215 48.4936C33.0656 48.3008 33.112 48.1059 33.1606 47.9088L33.1276 47.9007L33.0946 47.8927C33.0459 48.0902 32.9995 48.2855 32.9552 48.4786L32.9885 48.486ZM33.1276 47.9007L33.1604 47.9095C33.2133 47.7124 33.2685 47.5153 33.3258 47.3182L33.2932 47.3088L33.2606 47.2996C33.2032 47.4969 33.148 47.6944 33.0948 47.892L33.1276 47.9007ZM33.2932 47.3088L33.3258 47.3182L35.069 41.353L35.0364 41.3436L35.0038 41.3342L33.2606 47.2993L33.2932 47.3088ZM35.0364 41.3436V41.3773H36.1964V41.3436V41.3099H35.0364V41.3436ZM36.1964 41.3436L36.164 41.3533L37.9801 47.3644L38.0127 47.3548L38.045 47.3451L36.229 41.334L36.1964 41.3436ZM38.0127 47.3548L37.9801 47.3644C38.0418 47.5703 38.0991 47.7737 38.152 47.975L38.1848 47.9665L38.2176 47.958C38.1647 47.7559 38.107 47.5516 38.045 47.3451L38.0127 47.3548ZM38.1848 47.9665L38.152 47.975C38.205 48.1762 38.2511 48.3728 38.2909 48.5652L38.3242 48.5585L38.3575 48.5518C38.3174 48.358 38.2708 48.1602 38.2176 47.958L38.1848 47.9665ZM38.3242 48.5585L38.2909 48.5661C38.3351 48.754 38.3726 48.9354 38.4034 49.1101L38.4369 49.1042L38.4701 49.0984C38.4391 48.9224 38.4016 48.7399 38.3572 48.5509L38.3242 48.5585ZM38.4369 49.1042L38.4036 49.111C38.4389 49.2818 38.4697 49.4437 38.4961 49.5968L38.5296 49.5909L38.5631 49.5853C38.5364 49.4315 38.5054 49.2688 38.4701 49.0975L38.4369 49.1042ZM38.5296 49.5909L38.5631 49.5956C38.5941 49.3815 38.6314 49.1561 38.6756 48.9197L38.6423 48.9136L38.6088 48.9073C38.5647 49.1446 38.5269 49.3709 38.4959 49.5862L38.5296 49.5909ZM38.6423 48.9136L38.6756 48.9197C38.7197 48.6833 38.7706 48.4359 38.8278 48.1775L38.7948 48.1703L38.7615 48.1632C38.7041 48.4222 38.6532 48.6703 38.6088 48.9073L38.6423 48.9136ZM38.7948 48.1703L38.8278 48.1782C38.8896 47.9196 38.9559 47.6524 39.0265 47.3763L38.9937 47.368L38.9606 47.3597C38.8898 47.6361 38.8235 47.9037 38.7618 48.1625L38.7948 48.1703ZM38.9937 47.368L39.0265 47.3763L40.5842 41.3519L40.5511 41.3436L40.5183 41.3353L38.9606 47.3597L38.9937 47.368ZM40.5511 41.3436V41.3773H41.731V41.3436V41.3099H40.5511V41.3436ZM50.6937 50.959V50.9926H50.7276V50.959H50.6937ZM45.2984 50.959H45.2645V50.9926H45.2984V50.959ZM45.2984 41.3436V41.3099H45.2645V41.3436H45.2984ZM50.6937 41.3436H50.7276V41.3099H50.6937V41.3436ZM50.6937 42.33V42.3639H50.7276V42.33H50.6937ZM46.4251 42.33V42.2963H46.3912V42.33H46.4251ZM46.4251 45.441H46.3912V45.4747H46.4251V45.441ZM50.4484 45.441H50.4823V45.4073H50.4484V45.441ZM50.4484 46.4144V46.4481H50.4823V46.4144H50.4484ZM46.4251 46.4144V46.3807H46.3912V46.4144H46.4251ZM46.4251 49.9723H46.3912V50.006H46.4251V49.9723ZM50.6937 49.9723H50.7276V49.9387H50.6937V49.9723ZM50.6937 50.959V50.9253H45.2984V50.959V50.9926H50.6937V50.959ZM45.2984 50.959H45.3323V41.3436H45.2984H45.2645V50.959H45.2984ZM45.2984 41.3436V41.3773H50.6937V41.3436V41.3099H45.2984V41.3436ZM50.6937 41.3436H50.6597V42.33H50.6937H50.7276V41.3436H50.6937ZM50.6937 42.33V42.2963H46.4251V42.33V42.3639H50.6937V42.33ZM46.4251 42.33H46.3912V45.441H46.4251H46.459V42.33H46.4251ZM46.4251 45.441V45.4747H50.4484V45.441V45.4073H46.4251V45.441ZM50.4484 45.441H50.4145V46.4144H50.4484H50.4823V45.441H50.4484ZM50.4484 46.4144V46.3807H46.4251V46.4144V46.4481H50.4484V46.4144ZM46.4251 46.4144H46.3912V49.9723H46.4251H46.459V46.4144H46.4251ZM46.4251 49.9723V50.006H50.6937V49.9723V49.9387H46.4251V49.9723ZM50.6937 49.9723H50.6597V50.959H50.6937H50.7276V49.9723H50.6937ZM60.2728 50.959V50.9926H60.3068V50.959H60.2728ZM54.8776 50.959H54.8437V50.9926H54.8776V50.959ZM54.8776 41.3436V41.3099H54.8437V41.3436H54.8776ZM60.2728 41.3436H60.3068V41.3099H60.2728V41.3436ZM60.2728 42.33V42.3639H60.3068V42.33H60.2728ZM56.0043 42.33V42.2963H55.9704V42.33H56.0043ZM56.0043 45.441H55.9704V45.4747H56.0043V45.441ZM60.0276 45.441H60.0615V45.4073H60.0276V45.441ZM60.0276 46.4144V46.4481H60.0615V46.4144H60.0276ZM56.0043 46.4144V46.3807H55.9704V46.4144H56.0043ZM56.0043 49.9723H55.9704V50.006H56.0043V49.9723ZM60.2728 49.9723H60.3068V49.9387H60.2728V49.9723ZM60.2728 50.959V50.9253H54.8776V50.959V50.9926H60.2728V50.959ZM54.8776 50.959H54.9115V41.3436H54.8776H54.8437V50.959H54.8776ZM54.8776 41.3436V41.3773H60.2728V41.3436V41.3099H54.8776V41.3436ZM60.2728 41.3436H60.2389V42.33H60.2728H60.3068V41.3436H60.2728ZM60.2728 42.33V42.2963H56.0043V42.33V42.3639H60.2728V42.33ZM56.0043 42.33H55.9704V45.441H56.0043H56.0382V42.33H56.0043ZM56.0043 45.441V45.4747H60.0276V45.441V45.4073H56.0043V45.441ZM60.0276 45.441H59.9937V46.4144H60.0276H60.0615V45.441H60.0276ZM60.0276 46.4144V46.3807H56.0043V46.4144V46.4481H60.0276V46.4144ZM56.0043 46.4144H55.9704V49.9723H56.0043H56.0382V46.4144H56.0043ZM56.0043 49.9723V50.006H60.2728V49.9723V49.9387H56.0043V49.9723ZM60.2728 49.9723H60.2389V50.959H60.2728H60.3068V49.9723H60.2728ZM67.4328 50.959V50.9926H67.4667V50.959H67.4328ZM66.2993 50.959H66.2654V50.9926H66.2993V50.959ZM66.2993 42.33H66.3332V42.2963H66.2993V42.33ZM63.2502 42.33H63.2163V42.3639H63.2502V42.33ZM63.2502 41.3436V41.3099H63.2163V41.3436H63.2502ZM70.4685 41.3436H70.5025V41.3099H70.4685V41.3436ZM70.4685 42.33V42.3639H70.5025V42.33H70.4685ZM67.4328 42.33V42.2963H67.3989V42.33H67.4328ZM67.4328 50.959V50.9253H66.2993V50.959V50.9926H67.4328V50.959ZM66.2993 50.959H66.3332V42.33H66.2993H66.2654V50.959H66.2993ZM66.2993 42.33V42.2963H63.2502V42.33V42.3639H66.2993V42.33ZM63.2502 42.33H63.2842V41.3436H63.2502H63.2163V42.33H63.2502ZM63.2502 41.3436V41.3773H70.4685V41.3436V41.3099H63.2502V41.3436ZM70.4685 41.3436H70.4346V42.33H70.4685H70.5025V41.3436H70.4685ZM70.4685 42.33V42.2963H67.4328V42.33V42.3639H70.4685V42.33ZM67.4328 42.33H67.3989V50.959H67.4328H67.4667V42.33H67.4328ZM73.3398 50.6433H73.3059V50.6646L73.3256 50.6739L73.3398 50.6433ZM73.3398 49.5712L73.3527 49.5402L73.3059 49.5209V49.5712H73.3398ZM74.5527 49.9528L74.5446 49.9853H74.5448L74.5527 49.9528ZM77.2837 49.933L77.2957 49.9645L77.2961 49.9642L77.2837 49.933ZM78.0923 47.6706L78.0638 47.6888L78.064 47.689L78.0923 47.6706ZM77.3631 47.0654L77.3468 47.095L77.3473 47.0953L77.3631 47.0654ZM75.9846 46.4802L75.9959 46.4485V46.4483L75.9846 46.4802ZM74.8975 46.0065L74.8808 46.0359L74.8812 46.0361L74.8975 46.0065ZM73.6249 44.6517L73.593 44.6634L73.5932 44.6636L73.6249 44.6517ZM74.9504 41.5014L74.9636 41.5324H74.9638L74.9504 41.5014ZM79.2059 41.7383L79.2378 41.7497L79.2486 41.7203L79.2197 41.7075L79.2059 41.7383ZM78.8545 42.6984L78.8414 42.7296L78.8742 42.7431L78.8864 42.7099L78.8545 42.6984ZM75.4808 42.3763L75.4939 42.4072L75.4941 42.407L75.4808 42.3763ZM74.8179 44.5071L74.7891 44.5249L74.7894 44.5253L74.8179 44.5071ZM75.5072 45.1056L75.4907 45.1348L75.4912 45.1352L75.5072 45.1056ZM78.2183 46.3026L78.2009 46.3315L78.2014 46.3318L78.2183 46.3026ZM79.4378 48.4007H79.4038C79.4038 48.9648 79.2618 49.4443 78.9792 49.8412L79.007 49.8605L79.0346 49.8801C79.3267 49.4701 79.4717 48.9765 79.4717 48.4007H79.4378ZM79.007 49.8605L78.9792 49.8412C78.7007 50.2343 78.3084 50.5353 77.8009 50.7437L77.814 50.7749L77.8269 50.8059C78.3446 50.5933 78.7477 50.2848 79.0348 49.8801L79.007 49.8605ZM77.814 50.7749L77.8009 50.7437C77.2934 50.952 76.6948 51.0568 76.0043 51.0568V51.0905V51.1242C76.7016 51.1242 77.3093 51.0184 77.8269 50.8059L77.814 50.7749ZM76.0043 51.0905V51.0568C75.6387 51.0568 75.293 51.0393 74.9674 51.0043L74.9638 51.038L74.9602 51.0714C75.2885 51.1067 75.6366 51.1242 76.0043 51.1242V51.0905ZM74.9638 51.038L74.9674 51.0043C74.6416 50.9695 74.3425 50.9192 74.0704 50.8539L74.0622 50.8867L74.0543 50.9194C74.3299 50.9854 74.6319 51.0362 74.9602 51.0714L74.9638 51.038ZM74.0622 50.8867L74.0704 50.8539C73.798 50.7886 73.5595 50.708 73.3543 50.6128L73.3398 50.6433L73.3256 50.6739C73.5355 50.7713 73.7787 50.8532 74.0543 50.9194L74.0622 50.8867ZM73.3398 50.6433H73.3738V49.5712H73.3398H73.3059V50.6433H73.3398ZM73.3398 49.5712L73.3269 49.6024C73.6602 49.7391 74.0663 49.8668 74.5446 49.9853L74.5527 49.9528L74.5611 49.92C74.0848 49.8019 73.6821 49.6753 73.3527 49.5402L73.3398 49.5712ZM74.5527 49.9528L74.5448 49.9853C75.0249 50.1001 75.5269 50.1573 76.0509 50.1573V50.1236V50.09C75.5319 50.09 75.0353 50.0334 74.5609 49.92L74.5527 49.9528ZM76.0509 50.1236V50.1573C76.5396 50.1573 76.955 50.0936 77.2957 49.9645L77.2837 49.933L77.2715 49.9016C76.9407 50.0269 76.5342 50.09 76.0509 50.09V50.1236ZM77.2837 49.933L77.2961 49.9642C77.6366 49.8309 77.8966 49.641 78.0735 49.3934L78.0459 49.3738L78.0183 49.3543C77.8504 49.5891 77.6023 49.7721 77.2713 49.9016L77.2837 49.933ZM78.0459 49.3738L78.0735 49.3934C78.255 49.1413 78.345 48.8407 78.345 48.4927H78.3111H78.2771C78.2771 48.8286 78.1905 49.1152 78.0183 49.3543L78.0459 49.3738ZM78.3111 48.4927H78.345C78.345 48.1589 78.271 47.8781 78.1206 47.652L78.0923 47.6706L78.064 47.689C78.2052 47.9016 78.2771 48.1688 78.2771 48.4927H78.3111ZM78.0923 47.6706L78.1208 47.6522C77.9708 47.4221 77.7224 47.2172 77.3792 47.0358L77.3631 47.0654L77.3473 47.0953C77.6844 47.2733 77.9222 47.4717 78.0638 47.6888L78.0923 47.6706ZM77.3631 47.0654L77.3796 47.036C77.0414 46.8506 76.5801 46.6548 75.9959 46.4485L75.9846 46.4802L75.9731 46.5118C76.5556 46.7177 77.0131 46.9121 77.3468 47.095L77.3631 47.0654ZM75.9846 46.4802L75.9959 46.4483C75.5862 46.3042 75.2256 46.147 74.9138 45.9771L74.8975 46.0065L74.8812 46.0361C75.1968 46.2081 75.5609 46.3668 75.9731 46.5118L75.9846 46.4802ZM74.8975 46.0065L74.9142 45.9773C74.6027 45.8031 74.3428 45.6078 74.1333 45.3914L74.1088 45.4147L74.0842 45.4381C74.2991 45.6599 74.5647 45.8592 74.8808 46.0359L74.8975 46.0065ZM74.1088 45.4147L74.1333 45.3914C73.9244 45.1754 73.7654 44.9251 73.6566 44.6398L73.6249 44.6517L73.5932 44.6636C73.7052 44.9572 73.869 45.2154 74.0842 45.4381L74.1088 45.4147ZM73.6249 44.6517L73.6568 44.6402C73.5523 44.3551 73.4998 44.0283 73.4998 43.6585H73.4658H73.4319C73.4319 44.0346 73.4853 44.3695 73.593 44.6634L73.6249 44.6517ZM73.4658 43.6585H73.4998C73.4998 43.1516 73.6285 42.7202 73.8846 42.3628L73.8568 42.3433L73.8292 42.3237C73.5638 42.6941 73.4319 43.1398 73.4319 43.6585H73.4658ZM73.8568 42.3433L73.8844 42.3628C74.1455 42.0002 74.5047 41.7232 74.9636 41.5324L74.9504 41.5014L74.9373 41.4704C74.4683 41.6655 74.0984 41.9497 73.8292 42.3237L73.8568 42.3433ZM74.9504 41.5014L74.9638 41.5324C75.4271 41.3371 75.9595 41.2392 76.5611 41.2392V41.2055V41.1719C75.952 41.1719 75.4106 41.2711 74.9373 41.4704L74.9504 41.5014ZM76.5611 41.2055V41.2392C77.076 41.2392 77.5509 41.2873 77.9855 41.3831L77.993 41.3501L78.0002 41.3173C77.5599 41.2201 77.0803 41.1719 76.5611 41.1719V41.2055ZM77.993 41.3501L77.9855 41.3831C78.4256 41.4792 78.8276 41.6078 79.1921 41.769L79.2059 41.7383L79.2197 41.7075C78.8504 41.5443 78.4441 41.4141 78.0002 41.3173L77.993 41.3501ZM79.2059 41.7383L79.174 41.7268L78.8226 42.687L78.8545 42.6984L78.8864 42.7099L79.2378 41.7497L79.2059 41.7383ZM78.8545 42.6984L78.8676 42.6674C78.5167 42.522 78.1439 42.401 77.7491 42.304L77.7409 42.3368L77.7328 42.3693C78.1247 42.4654 78.4941 42.5855 78.8414 42.7296L78.8545 42.6984ZM77.7409 42.3368L77.7493 42.304C77.3577 42.207 76.9527 42.1583 76.5346 42.1583V42.192V42.2256C76.9473 42.2256 77.3466 42.2737 77.7328 42.3693L77.7409 42.3368ZM76.5346 42.192V42.1583C76.1161 42.1583 75.7599 42.2202 75.4674 42.3453L75.4808 42.3763L75.4941 42.407C75.776 42.2867 76.1224 42.2256 76.5346 42.2256V42.192ZM75.4808 42.3763L75.4676 42.3451C75.1796 42.4656 74.9577 42.6382 74.8032 42.8636L74.8312 42.8825L74.8593 42.9016C75.0052 42.6885 75.2163 42.5235 75.4939 42.4072L75.4808 42.3763ZM74.8312 42.8825L74.8032 42.8636C74.6486 43.0892 74.5719 43.3568 74.5719 43.6653H74.6059H74.6398C74.6398 43.3685 74.7133 43.1144 74.8593 42.9016L74.8312 42.8825ZM74.6059 43.6653H74.5719C74.5719 44.0074 74.6437 44.2948 74.7891 44.5249L74.8179 44.5071L74.8466 44.4892C74.7095 44.2723 74.6398 43.9982 74.6398 43.6653H74.6059ZM74.8179 44.5071L74.7894 44.5253C74.9391 44.755 75.1738 44.9577 75.4907 45.1348L75.5072 45.1056L75.524 45.0762C75.2133 44.9027 74.9885 44.7065 74.8464 44.4887L74.8179 44.5071ZM75.5072 45.1056L75.4912 45.1352C75.8113 45.3072 76.2328 45.4877 76.755 45.6765L76.7667 45.6448L76.7783 45.6132C76.2577 45.4251 75.8396 45.2459 75.5235 45.076L75.5072 45.1056ZM76.7667 45.6448L76.755 45.6765C77.3237 45.8821 77.8057 46.1005 78.2009 46.3315L78.2183 46.3026L78.2355 46.2736C77.8355 46.0399 77.3498 45.8197 76.7783 45.6132L76.7667 45.6448ZM78.2183 46.3026L78.2014 46.3318C78.5948 46.5574 78.8932 46.8344 79.0975 47.1622L79.1262 47.1444L79.1552 47.1267C78.9441 46.7879 78.6369 46.5037 78.2353 46.2734L78.2183 46.3026ZM79.1262 47.1444L79.0975 47.1622C79.3009 47.4843 79.4038 47.8962 79.4038 48.4007H79.4378H79.4717C79.4717 47.8875 79.367 47.4621 79.155 47.1265L79.1262 47.1444Z" fill="white"/>
</g>
<path d="M85.7465 39.1733C83.4366 38.7441 83.0381 38.0149 82.9083 36.3672C82.7261 38.2085 82.1302 38.7932 80.3167 39.1733C82.1553 39.4757 82.763 40.0261 83.0316 41.7549C83.1913 39.9931 83.7368 39.3848 85.7465 39.1733Z" fill="#D4AF37"/>
</svg>
